<svg xmlns="http://www.w3.org/2000/svg" width="915" height="492" fill="none" viewBox="0 0 915 492"><mask id="mask0_12_17" width="188" height="293" x="208" y="75" maskUnits="userSpaceOnUse" style="mask-type:luminance"><path fill="#fff" d="M395.6 75.58H208.36V367.3h187.22z"/></mask><g mask="url(#mask0_12_17)"><path fill="#000" d="M265.4 308.73a11 11 0 0 1-5.32 3.02q-4.04 1.02-7.77-.86 2.09 1.05 4.46 1.05h-1.2l-1.18-.26a60 60 0 0 1-18.72-7.74l-.57-.35-.52-.41a61 61 0 0 0-3.9-2.43q-4.2-2.5-8.3-5.12l-5.44-3.52-.25-.17-.24-.18a12.7 12.7 0 0 1-4.38-5.96 15 15 0 0 1-.88-5.23v-3.3l2.77-34.12q1.43-16.71 2.51-33.28.66-9.35 1.44-18.72.72-8.74.51-17.38l10.96-.26-10.75 2.15q-.3-1.53-.58-3.83-.84-7.14 3.58-11.56l7.75 7.75-8.54-6.87 3.62-4.5 5.48-6.8a64 64 0 0 0 2.53-3.26l.3-.49.33-.45q.48-.63 2.06-3.02 1.8-2.7 4.04-5.95a188 188 0 0 0 3.74-5.61 86 86 0 0 1 2.87-4.29l8.77 6.59-9.8-4.91q1.58-3.15 5.34-5.56l.6-.4q-.45.33-1.04.92l.88-.89 1.06-.66q2.05-1.3 5.21-2.99a42 42 0 0 1 7.9-3.28q7.1-2.1 12.72.71l-4.9 9.82 4.31-10.09q2.61 1.12 7.73 4.76 4.08 2.91 8.17 5.7a97 97 0 0 1 6.3 4.58l-7.01 8.42 5.8-9.3a21 21 0 0 1 6 5.56 35 35 0 0 1 3.04 4.99l-9.8 4.9 9.4-5.64q1.56 2.6 4.39 8.38 2.67 5.46 6 12.57l6.55 13.9q3.35 7.02 5.82 12.66 2.56 5.81 3.56 8.57l-10.3 3.75 10.11-4.24a331 331 0 0 1 9.4 25.42q4.02 12.36 8.34 24.49l-10.32 3.69-7.74-7.76a153 153 0 0 1 3.94-3.72l5.48-5.04a166 166 0 0 0 3.07-2.87l6.93-6.94 7.66 6.13a343 343 0 0 0 8.5 6.6q4.5 3.37 8.76 6.74l7.93 6.27-5.6 8.43q-1.08 1.6-4.14 5.62l-6.23 8.2q-3.45 4.57-6.36 8.27a73 73 0 0 1-4.8 5.69l-7.75-7.76 8.42 7.02a89 89 0 0 1-5.61 5.79 180 180 0 0 1-8.06 7.37q-4.2 3.6-6.13 4.98l-6.37-8.93 6.57 8.78a21 21 0 0 1-3.99 2.35 13 13 0 0 1-5.4 1.16q-3.06 0-5.81-1.38l-1-.5-.89-.7a940 940 0 0 0-16.88-13l-.13-.1-.14-.1q-3.23-2.6-5.73-8.38a77 77 0 0 1-2.2-5.5l10.4-3.47-10.13 4.19a291 291 0 0 1-7.75-20.97 539 539 0 0 0-6.87-19.78l10.28-3.8 9.12 6.08-3.67 5.46q-1.85 2.7-3.57 5.29l-9.11-6.08 9.3 5.8q-2.37 3.8-7.9 7.42-3.75 2.47-8.18 5.05-4.5 2.6-8.7 4.64a56 56 0 0 0-4.57 2.4l-5.81-9.3 10.63 2.66q.1-.43.11-.8 0 2.08-.44 4.24l-10.74-2.15 5.85-9.28q4.23 2.67 8.33 5.34 3.93 2.55 7.75 4.9l9.23 5.64-5.52 9.31q-4.25 7.15-8.72 14.2l-9.4 14.95zm-15.5-15.52 7.75 7.76-9.28-5.84 8.8-13.97q4.28-6.77 8.37-13.65l9.42 5.6-5.72 9.36q-4.07-2.5-8.24-5.2a806 806 0 0 0-8.1-5.2l-6.38-4.03 1.48-7.4v-.06.14q0-2.34.55-4.53l1.07-4.3 3.75-2.34q2.25-1.4 6.61-3.53 3.48-1.7 7.3-3.9 3.9-2.25 7.15-4.4 1.1-.72 1.67-1.22l.11-.11-.02.02a4 4 0 0 0-.44.61l.08-.13.1-.14q1.77-2.67 3.66-5.46l3.56-5.3 11.94-17.91 7.46 20.2a557 557 0 0 1 7.15 20.59q3.15 9.7 7.16 19.4l.15.35.12.36q.3.85 1.52 3.72.42.96.67 1.37-.39-.63-1.36-1.4l-6.84 8.56 6.57-8.78a1056 1056 0 0 1 17.3 13.33l-6.78 8.6 4.9-9.8a8.8 8.8 0 0 0-7.75-.06l.1-.08.1-.07q1.15-.8 4.61-3.8a158 158 0 0 0 11.1-10.54l.32-.37.35-.36q.64-.64 3.08-3.75 2.79-3.53 6.13-7.96l6.27-8.26q2.63-3.45 3.31-4.46l9.12 6.08-6.8 8.62q-4.05-3.22-8.32-6.42-4.53-3.4-9.04-7.01l6.84-8.57 7.75 7.76q-.81.8-3.72 3.5l-5.48 5.04q-2.57 2.36-3.29 3.08l-12.24 12.26-5.82-16.32a902 902 0 0 1-8.55-25.1 309 309 0 0 0-8.78-23.72l-.1-.24-.09-.25a142 142 0 0 0-3.01-7.22 450 450 0 0 0-5.58-12.13l-6.59-13.96q-3.24-6.94-5.84-12.23-2.42-4.95-3.5-6.75l-.21-.36-.2-.38a13 13 0 0 0-1.03-1.74l-.64-.4-.57-.48q-.92-.75-4.66-3.32a613 613 0 0 1-8.49-5.93 47 47 0 0 0-3.66-2.47l-.3-.13-.28-.15a6.3 6.3 0 0 0 3.37.69h.03l-.1.02q-1.88.56-3.73 1.55a77 77 0 0 0-3.99 2.28l-5.8-9.3 7.74 7.76a20 20 0 0 1-3.34 2.52l.3-.23a9 9 0 0 0 2.25-2.95l-.44.89-.6.79a66 66 0 0 0-1.94 2.94 235 235 0 0 1-4.15 6.25 414 414 0 0 0-3.86 5.66q-1.92 2.89-2.76 4.01l-8.76-6.58 9.4 5.64a61 61 0 0 1-4.27 5.74l-5.47 6.8-4 4.95-.4.42a9 9 0 0 0 2.6-4.92q.16-.93.1-1.6.15 1.44.3 2.1l.18.94.02.95q.24 9.8-.58 19.7-.76 9.27-1.41 18.36-1.1 16.77-2.53 33.62l-2.75 33.68-10.91-.9h10.95v2.86q0-1.05-.44-2.27a9 9 0 0 0-3.06-4.1l-6.58 8.78 6.08-9.13a331 331 0 0 0 12.78 8.04 64 64 0 0 1 6.4 4.16l-6.85 8.56 5.76-9.33a39 39 0 0 0 11.95 4.98l-2.37 10.71V290q2.8 0 5.34 1.27a10.3 10.3 0 0 0-7.34-.8 10.3 10.3 0 0 0-4.87 2.74m27.9-120.57q0 2.36-.46 8.9l-.99 13.5-.98 13.4q-.46 6.22-.7 8.4l-10.89-1.21-4.9-9.8q4.88-2.45 9.62-4.77a59 59 0 0 0 7.5-4.35l6.19 9.05-10.13 4.16q-3.4-8.25-7.2-16.2l-7.87-16.31 9.86-4.78zm-21.9 0 20.81-4.78 7.9 16.37a329 329 0 0 1 7.72 17.37l3.36 8.2-7.31 5.02a81 81 0 0 1-10.26 5.95q-4.66 2.28-9.44 4.67l-18.01 9.02 2.22-20.04q.2-1.76.62-7.6l.99-13.38.98-13.47q.4-5.75.41-7.34"/><path fill="#fff" d="M257.65 300.96q-.22.23-.45.12a49 49 0 0 1-15.76-6.47 62 62 0 0 0-5.17-3.28q-4.05-2.41-8-4.94a435 435 0 0 1-5.26-3.4q-.87-.66-.87-2.41v-2.86q1.32-16.88 2.74-33.68t2.52-33.46q.65-9.2 1.42-18.52.78-9.33.56-18.54a32 32 0 0 1-.45-2.98q-.21-1.85.45-2.52l3.61-4.49 5.47-6.8a58 58 0 0 0 3.4-4.49q.66-.9 2.4-3.52 1.78-2.64 3.95-5.8a206 206 0 0 0 3.94-5.94 73 73 0 0 1 2.43-3.6q.21-.45 1.41-1.21 1.2-.78 1.44-1 1.75-1.1 4.6-2.64a31 31 0 0 1 5.8-2.41q2.96-.87 4.73 0 1.53.66 5.68 3.64 4.18 2.95 8.33 5.8a76 76 0 0 1 5.47 3.95q1.77 1.1 2.98 2.74 1.2 1.66 2.07 3.4 1.33 2.2 3.94 7.58 2.65 5.37 5.92 12.38t6.56 13.93q3.3 6.93 5.71 12.4 2.4 5.48 3.3 7.89a325 325 0 0 1 9.09 24.59 884 884 0 0 0 8.44 24.77q.87-.87 3.61-3.4l5.48-5.03q2.73-2.53 3.4-3.19a333 333 0 0 0 8.75 6.8q4.38 3.3 8.56 6.6-.87 1.3-3.73 5.02l-6.25 8.25q-3.4 4.49-6.25 8.12a58 58 0 0 1-3.94 4.7q-1.1 1.32-4.81 4.94-3.75 3.6-7.58 6.92a92 92 0 0 1-5.35 4.37q-.87.65-1.87 1.08-.99.44-1.86.02-4.15-3.3-8.45-6.58-4.26-3.28-8.63-6.6-1.12-.86-2.55-4.15a60 60 0 0 1-1.84-4.6 272 272 0 0 1-7.45-20.17 539 539 0 0 0-7.01-20.2l-3.63 5.36a468 468 0 0 0-3.61 5.39q-1.1 1.75-4.6 4.06-3.52 2.3-7.7 4.72-4.15 2.41-8 4.28a70 70 0 0 0-5.56 2.95q-.21.87-.21 1.87 0 .99-.24 2.07 4.17 2.65 8.23 5.3 4.05 2.61 8 5.03a575 575 0 0 1-8.56 13.93q-4.37 6.9-8.75 13.91m9.2-128.34q0 1.99-.45 8.13a3475 3475 0 0 1-2.62 34.88q4.8-2.4 9.53-4.7a70 70 0 0 0 8.87-5.17 301 301 0 0 0-7.45-16.77q-3.95-8.24-7.88-16.37"/></g><mask id="mask1_12_17" width="199" height="301" x="64" y="96" maskUnits="userSpaceOnUse" style="mask-type:luminance"><path fill="#fff" d="M262.72 96.74H64.92v299.28h197.8z"/></mask><g mask="url(#mask1_12_17)"><mask id="mask2_12_17" width="188" height="211" x="65" y="128" maskUnits="userSpaceOnUse" style="mask-type:luminance"><path fill="#fff" d="M65.83 128.48h186.32v210.1H65.83z"/></mask><g mask="url(#mask2_12_17)"><path fill="#000" d="M169.35 305.49a894 894 0 0 1-11.77 12.45L138.3 338l-8.05-7.61a416 416 0 0 1-8.16-7.94q-3.8-3.8-7.7-7.5l-1.44-1.35-.89-1.77a12.5 12.5 0 0 1-1.07-8.21q.4-2.02 1.3-3.81l.08-.18.1-.18a80 80 0 0 1 3.24-5.44q.75-1.16 1.21-2.42l10.5 3.82-10.68-3.29q.07-.2-.05-.78l-.04-.17-.03-.19q-.12-.75-1.3-4.98-1.38-4.95-2.65-10.02-1.13-4.5-1.44-5.44l10.6-3.54 4.02 10.44q-2.64 1.02-5.4 2.24-1.64.74-2.94 1.8l-7.4 6.06-7.13-6.39q-4.3-3.84-8.48-7.7-4.08-3.74-8.02-7.26L78 258.66l7.64-8.38q4.65-5.1 9.3-10.31 4.82-5.4 9.87-10.68l8.08 7.73-10.63 3.47q-3.52-10.8-7.27-21.3l-7.6-21.37 10.52-3.76 7.9 7.92q-.37.37-.75.82a21 21 0 0 1-3.35 3.13l-7.98 5.98-6.85-7.25q-3.63-3.86-7.49-7.6a270 270 0 0 1-8.15-8.3l-6.58-6.97 5.88-7.57q1.91-2.46 6.88-7.68 4.71-4.95 10.54-10.67l10.52-10.3q4.76-4.66 6.5-6.4 2.53-2.53 5.76-3.33 4.11-1.03 7.9.86a11.2 11.2 0 0 1 5.14 5.16l-10 5 7.9-7.9 7.71 7.7q4.03 4.04 7.93 8.18l-8.12 7.68 7.9-7.9a15 15 0 0 1 3.16 4.73q.68 1.6 1.12 3.37l-10.84 2.7 10.58-3.58q4.45 13.14 9.13 26.51 4.7 13.5 9.2 26.73l-10.58 3.6-3.82-10.52q4.66-1.7 9.22-3.61 4.98-2.08 9.84-3.94l3.98 10.46-10.98 2.11q-1.1-5.74-2.31-11.58-1.2-5.8-2.52-11.51l10.89-2.52 6.7 8.96q-1.14.86-2.4 1.7-1.23.82-2.57 1.63l-8.64 5.19-12.75-17.03a188 188 0 0 0-6.55-8.23l-6.6-7.85 7.25-7.26q1.15-1.15 4.25-3.59l1.88-1.48.4-.34-.27.26q.31-.3 1.75-1.85l2.05-2.18.37-.37.4-.33q6.33-5.25 12.32-10.59 6.23-5.55 12.57-11l7.27 8.5-7.9-7.9a13 13 0 0 1 3.88-2.7q3-1.36 6.25-1.03 5.1.5 8.6 4.7l-8.6 7.16 7.9-7.91q1.39 1.38 4.76 5.24a605 605 0 0 0 6.14 6.91 61 61 0 0 1 5.03 6.11l-9.3 6.2 8.94-6.7q2.1 2.78 3.3 8 .7 3.1 1.3 6.21l.79 4a423 423 0 0 0 2.8 12.65q1.6 6.75 2.98 13.4l-10.94 2.26-2.72-10.85q2.11-.53 4.23-.92a30 30 0 0 1 5.42-.53q-.67 0-1.2.1 3.69-.73 7.08.72 3.95 1.7 5.9 5.59l-10 5 8.55-7.2q3.63 4.31 7.15 8.63 3.5 4.3 7.1 8.81l7.03 8.8-8.82 6.97a790 790 0 0 0-16.31 13.23l-7.16-8.59 10.93-2.34q1.95 9.13 4.34 18.16 2.55 9.66 4.43 19.45l-10.98 2.1 8.13-7.69 7.48 7.95 14.94 15.84-7.68 7.69q-1.4 1.4-5.36 5.26-3.96 3.84-8.58 8.24-4.66 4.44-8.65 8.1-4.67 4.27-7.32 5.93l-5.92-9.5 6.5 9.11a50 50 0 0 1-4.92 3.05 14.5 14.5 0 0 1-8.43 1.87 13.6 13.6 0 0 1-8.65-4.1l-.34-.33-.31-.37a259 259 0 0 0-6.95-7.93 805 805 0 0 0-7.38-7.93l-.65-.69-.52-.78a16 16 0 0 1-2.12-4.6q-.15-.54-.3-.98l-.22-.66-1.14-5.71q-.85-4.23-1.45-8.45-.51-3.6-.68-4.42-1.3-6.53-2.83-13.08-1.5-6.5-3.24-12.76l10.78-2.98 4.05 10.43a957 957 0 0 1-8.26 3.17q-3.84 1.45-7.57 3.11l-4.54-10.22 10.73-3.1 1.68 5.82a433 433 0 0 1 5.06 19.09 74 74 0 0 1 1.44 7.23l-11.09 1.38 11-2a19 19 0 0 1-1.5 11.56 57 57 0 0 1-3.05 5.82l-9.57-5.75 9.99 5q-.4.78-1.7 3.02-.44.7-.63 1.1l-.02.04q.14-.3.27-.7l-10.6-3.54h11.18q0 2.03-.7 4.1l-.86 2.63zm-16.38-15.23 8.19 7.62-10.6-3.54.11-.34a9 9 0 0 0-.46 2.98v-1.81l.57-1.73a27 27 0 0 1 2.3-4.7l.99-1.69.2-.38.21-.37a36 36 0 0 0 1.87-3.57 3 3 0 0 0-.15 1.7l-.05-.3-.05-.3q-.15-1.2-1.01-4.85a463 463 0 0 0-4.78-18.05l-4.37-15.19 8.89-3.95q4.32-1.92 8.74-3.6 4.09-1.54 8.06-3.1l11.53-4.48 3.3 11.93q1.84 6.7 3.46 13.64 1.6 6.9 2.98 13.77.28 1.42.89 5.65.5 3.6 1.24 7.21l1 5.04-10.96 2.2 10.6-3.55q.3.9.6 1.92a6 6 0 0 0-.78-1.68l-9.3 6.21 8.12-7.68q3.85 4.09 7.6 8.18 3.86 4.2 7.58 8.63l-8.55 7.2 7.9-7.91a8 8 0 0 0-5.19-2.36 7.3 7.3 0 0 0-4.3.8q1.65-.9 2.7-1.65l.27-.2.3-.18a41 41 0 0 0 4.08-3.47q3.82-3.5 8.33-7.78a1365 1365 0 0 0 13.54-13.12l7.9 7.9-8.13 7.69-7.48-7.95-9.73-10.32-.61-3.2q-1.71-9-4.07-17.91a420 420 0 0 1-4.6-19.2l-1.41-6.62 5.19-4.32a877 877 0 0 1 16.77-13.61l6.92 8.78-8.73 6.99a1008 1008 0 0 0-13.9-17.01l-.85-1.02-.6-1.19a10.3 10.3 0 0 0 5.3 4.98q2.99 1.28 6.11.66-1.64.32-3.2.32-.52 0-1.3.15a53 53 0 0 0-2.92.64l-11.3 2.83-2.34-11.42a468 468 0 0 0-2.84-12.77q-1.6-6.76-3-13.53l-.79-4.05q-.52-2.71-1.14-5.42-.2-.84-.33-1.2.24.67.94 1.6l-.2-.25-.16-.26q-.44-.66-3.03-3.52a610 610 0 0 1-6.36-7.18 118 118 0 0 0-3.74-4.15l-.36-.36-.33-.39a9 9 0 0 0 6.35 3.24q2.7.27 5.15-.83a9 9 0 0 0 2.75-1.89l-.3.3-.32.29q-6.18 5.3-12.25 10.7-6.3 5.63-12.93 11.13l-7.13-8.63 7.9 7.92-1.52 1.62q-1.7 1.81-2.28 2.4-.92.93-4.03 3.36a68 68 0 0 0-2.23 1.79l-7.9-7.91 8.55-7.21q3.78 4.5 7.32 9.22l6.7 8.95-8.93 6.71-5.75-9.6a40 40 0 0 0 3.06-2.03l13.74-10.31 3.86 16.74q1.36 5.94 2.62 12 1.24 6 2.38 11.9l1.77 9.22-8.77 3.34a301 301 0 0 0-9.16 3.67 233 233 0 0 1-10.22 4l-10.73 3.9-3.66-10.82q-4.46-13.15-9.13-26.52-4.71-13.48-9.2-26.73l-.15-.43-.1-.45v.02q.51 1.2 1.59 2.27l-.11-.11-.11-.12q-3.7-3.9-7.49-7.71l-9-9-.8-1.62a10.6 10.6 0 0 0 4.85 4.84 10.6 10.6 0 0 0 7.52.83 10 10 0 0 0 4.63-2.54 927 927 0 0 1-6.68 6.57l-10.5 10.28a423 423 0 0 0-10.01 10.13q-4.2 4.4-5.42 5.98l-8.82-6.87 8.13-7.68q3.63 3.85 7.49 7.6a277 277 0 0 1 8.15 8.28l-8.12 7.69-6.71-8.96-.21.22q.94-1.1 1.92-2.08l12.5-12.52 13.52 38.02a846 846 0 0 1 7.48 21.89l2.08 6.36-4.63 4.84q-4.78 5.01-9.35 10.13a1378 1378 0 0 1-9.47 10.5l-8.25-7.56 7.43-8.35q4.09 3.64 8.29 7.5 4.08 3.75 8.27 7.51l-7.45 8.34-7.08-8.66a35 35 0 0 1 8.02-4.92q3.27-1.46 6.44-2.68l10.92-4.2 3.7 11.1q.58 1.75 1.91 7.09 1.2 4.77 2.5 9.44 1.5 5.38 1.82 7.32l-11.03 1.84 10.96-2.2q1.23 6.14-.5 11.75l-.08.27-.1.26a34 34 0 0 1-3.48 6.98 60 60 0 0 0-2.35 3.96l-9.8-5.36 9.99 5q.44-.9.63-1.8.63-3.2-.86-6.2l-10 5.01 7.68-8.13q4.14 3.9 8.16 7.94a389 389 0 0 0 7.7 7.5l-7.67 8.13-8.04-7.76 11.62-12.08q5.74-5.98 11.48-12.16m72.1-92.62v.16h-22.34v-.16zm-22.34 0h22.35v.16a11 11 0 0 1-3.28 7.9 11 11 0 0 1-7.9 3.28 11 11 0 0 1-7.9-3.28 11 11 0 0 1-3.27-7.9z"/></g><path fill="#fff" d="M161.15 297.87a871 871 0 0 1-11.63 12.3l-11.6 12.1a407 407 0 0 1-7.93-7.73 444 444 0 0 0-7.93-7.72q-.24-.45-.12-1 .13-.55.33-1 1.35-2.46 2.79-4.7 1.45-2.25 2.36-4.7.9-2.91.2-6.27-.2-1.34-1.55-6.14t-2.57-9.73q-1.23-4.93-1.68-6.28a121 121 0 0 0-5.92 2.46q-3.03 1.35-5.47 3.35a890 890 0 0 1-8.4-7.6q-4.13-3.8-8.14-7.4 4.7-5.1 9.39-10.39 4.7-5.26 9.6-10.39a783 783 0 0 0-7.36-21.61l-7.62-21.35q-.66.66-1.34 1.44-.67.78-1.56 1.47-3.8-4.04-7.83-7.94-4.02-3.92-7.81-7.96 1.57-2 6.16-6.8 4.57-4.82 10.26-10.42l17.1-16.79q.69-.65.9-.21l7.71 7.72q3.91 3.9 7.72 7.94.44.44.78 1.22.33.78.56 1.68 4.46 13.2 9.16 26.64 4.69 13.42 9.15 26.62 4.93-1.8 9.72-3.8 4.81-2.03 9.5-3.8-1.1-5.84-2.35-11.77-1.23-5.92-2.55-11.74a58 58 0 0 1-4.03 2.7l-6.7-8.95q-3.36-4.49-6.94-8.74.69-.66 3.26-2.67a44 44 0 0 0 3-2.48q.44-.44 2-2.13a61 61 0 0 1 1.81-1.89q6.46-5.35 12.6-10.84 6.15-5.49 12.41-10.86 1.14-1.11 2.24.21 1.14 1.14 4.25 4.73 3.14 3.57 6.25 7.03a58 58 0 0 1 4.04 4.8q.65.9 1.32 3.82.68 2.91 1.25 5.81l.78 4.02q1.35 6.5 2.9 13.1 1.57 6.6 2.9 13.1 1.8-.45 3.59-.79t3.35-.35q.44 0 .99-.1.56-.1.8.33a892 892 0 0 1 14.08 17.22q-4.25 3.37-8.4 6.7a599 599 0 0 0-8.14 6.74 397 397 0 0 0 4.46 18.68 276 276 0 0 1 4.25 18.68l7.48 7.94 7.5 7.93q-1.35 1.35-5.26 5.15t-8.5 8.17a587 587 0 0 1-8.48 7.96 48 48 0 0 1-5.7 4.68 43 43 0 0 1-3.81 2.36q-2.22 1.23-3.78-.35-3.6-4.25-7.29-8.27-3.68-4.04-7.48-8.05-.45-.69-.68-1.47-.2-.78-.43-1.44-.24-1.13-1.01-5.03-.78-3.9-1.34-7.84-.56-3.92-.78-5.03-1.35-6.7-2.9-13.41a333 333 0 0 0-3.35-13.23q-4.02 1.59-8.17 3.14a149 149 0 0 0-8.14 3.35q.43 1.59 1.65 5.84 1.26 4.23 2.58 9.28 1.35 5.03 2.35 9.28a63 63 0 0 1 1.23 6.05q.45 2.46-.68 4.9a46 46 0 0 1-2.46 4.7q-.21.46-1.34 2.37a17 17 0 0 0-1.32 2.55q0 .24-.12.57zm52.75-100.23v.11z"/></g><mask id="mask3_12_17" width="229" height="355" x="258" y="57" maskUnits="userSpaceOnUse" style="mask-type:luminance"><path fill="#fff" d="M486.19 57.44h-228v353.7h228z"/></mask><g mask="url(#mask3_12_17)"><path fill="#000" d="M383.15 314.04a14 14 0 0 1-9.88.02 16 16 0 0 1-6.09-4.05l8.87-8.54-7.2 10a108 108 0 0 1-8.11-6.46l-7.08-6.2a561 561 0 0 0-14.39-12.1 808 808 0 0 0-14.82-11.77l-.13-.1-.13-.1q-7.5-6.15-13.85-13.34l-11.48-13.05a30 30 0 0 1-7.72-20.94v-.24l.01-.24a39 39 0 0 1 2.2-10.94q1.39-3.94 2.9-7.86l.09-.23.1-.22a164 164 0 0 1 16.2-28.94q8.62-12.3 16.35-25.01l10.51 6.4-10.76-5.97a89 89 0 0 0 1.56-3.19q-.2.48-.37 1.36a11.3 11.3 0 0 0 1.36 7.94 11 11 0 0 0 2.75 3.16 14 14 0 0 1-3.85-4.44 12.3 12.3 0 0 1-1.28-8.22 12 12 0 0 1 5.22-8.01l6.96 10.15-7.72-9.6a128 128 0 0 1 8.3-6.16 12 12 0 0 0-3.3 3.4 12 12 0 0 0-1.92 5.73 11.8 11.8 0 0 0 4.86 10.55 14 14 0 0 1-3.82-3.72 12.3 12.3 0 0 1-2.18-8.03 12.4 12.4 0 0 1 5.38-9.37l6.96 10.15-8.07-9.29a891 891 0 0 1 14.17-12.09q7.01-5.86 13.79-11.76l.53-.47.58-.4a14.5 14.5 0 0 1 7.82-2.66 13 13 0 0 1 10.47 4.4l-9.06 8.34 7.42-9.82q1.97 1.5 5.11 5.22 2.18 2.56 4.46 5.17a58 58 0 0 1 3.89 4.73l-10.14 6.97 5.95-10.77q2.28 1.25 5.32 4.4 1.62 1.65 3.25 3.2a30 30 0 0 1 3.88 4.26l-10.14 6.96 9.31-8.04q4.15 4.81 8.1 9.47 3.83 4.53 7.68 8.95l8.13 9.3-23.2 20.17q-7.1 6.18-14.31 12.19l-7.5 6.27-7.8-5.9q-1.59-1.2-4.64-4.3-2.54-2.58-5.06-5.28l-3.25-3.5 9.02-8.38 10.32 6.7q-2.39 3.68-6.61 10.54a392 392 0 0 0-8.53 14.56 115 115 0 0 0-6.64 13.8q-1.9 4.84-1.84 6.82l.05 1.36-.27 1.45-.03.12-12.09-2.25 7.7-9.61q9.04 7.28 17.92 14.76l17.43 14.79-7.96 9.39-12.09-2.25q.36-1.98 1.41-4.28a14.6 14.6 0 0 1 4.94-6.15l6.96 10.15-8.42-8.97q6.72-6.32 13.56-12.62 6.75-6.2 13.37-12.43l8.77-8.25 8.43 8.6q4.35 4.43 8.65 9.12l14.2 15.47-4.06 7.69q-3.96 7.5-8.32 15.05a109 109 0 0 1-10.95 15.62q-1.8 2.11-6.26 6.26-3.99 3.7-8.86 8.12a457 457 0 0 0-8.54 7.92 140 140 0 0 1-6.06 5.56l-7.86-9.48 9.22 8.17a18.6 18.6 0 0 1-8 5.2zm-8.34-23.17q-1.16.4-2.34 1.73l.63-.71.73-.6q1.16-.96 4.8-4.44 4.06-3.88 9-8.35 4.76-4.32 8.63-7.92a69 69 0 0 0 4.17-4.06q4.77-5.67 8.47-12.09a433 433 0 0 0 7.88-14.25l10.88 5.77-9.06 8.33-8.33-9.07a353 353 0 0 0-8.09-8.53l8.78-8.62 8.43 8.97q-6.73 6.32-13.56 12.61-6.75 6.21-13.38 12.44l-.68.64-.78.54a11 11 0 0 0 3.52-3.92q.2-.45.4-1.45l-3.88 20.86-33.55-28.47a951 951 0 0 0-17.46-14.38l-5.74-4.61 1.37-7.37.02-.12 12.1 2.25-12.3.43q-.24-7.1 3.54-16.72a139 139 0 0 1 8.05-16.78 420 420 0 0 1 9.07-15.49 678 678 0 0 1 6.9-10.99l8.59-13.28 13.97 15.07a235 235 0 0 0 6.54 6.72l-7.42 9.82-7.89-9.45q7.03-5.87 13.94-11.87l13.88-12.07 8.07 9.3-9.26 8.1q-3.98-4.56-7.95-9.25a1276 1276 0 0 0-7.94-9.29l-.44-.51-.39-.57a9 9 0 0 0 .54.72l-1.06-1.03a130 130 0 0 1-3.94-3.9q-.6-.62-.91-.9.41.38 1.3.87l-2.55-1.42-1.64-2.4q-.17-.23-2.05-2.37a363 363 0 0 1-4.81-5.58 40 40 0 0 0-1.7-1.9q.2.18.55.44l-.88-.67-.76-.81a10.6 10.6 0 0 0 8.5 3.53q3.01-.1 5.25-1.64l-6.95-10.15 8.07 9.3a891 891 0 0 1-14.17 12.08q-7 5.85-13.79 11.77l-.53.46-.58.4a12 12 0 0 0 3.3-3.41 12 12 0 0 0 1.93-5.73 11.8 11.8 0 0 0-4.87-10.54 14 14 0 0 1 3.83 3.71 12.3 12.3 0 0 1 2.18 8.03 12.4 12.4 0 0 1-5.39 9.37 124 124 0 0 0-6.8 5.05l-.36.3-.39.26a11.7 11.7 0 0 0 5.05-7.78q.77-4.18-1.2-7.9a11 11 0 0 0-3.01-3.6 14 14 0 0 1 3.7 4.15 12.6 12.6 0 0 1 1.53 8.9 24 24 0 0 1-2.19 5.96 80 80 0 0 1-1.67 3.3l-.12.22-.13.22a483 483 0 0 1-17.23 26.35 139 139 0 0 0-13.77 24.6l-11.28-4.9 11.47 4.45q-1.38 3.57-2.64 7.15a14 14 0 0 0-.83 4.02l-12.29-.63 12.3.16a6.2 6.2 0 0 0 1.6 4.34l11.45 13.03a94 94 0 0 0 10.98 10.57l-7.79 9.53 7.53-9.74a833 833 0 0 1 15.28 12.13q7.55 6.14 15.04 12.67l7.13 6.23q3 2.62 6.27 4.99l.9.64.77.8a8.4 8.4 0 0 0-3.21-2 10 10 0 0 0-7.12.03z"/><path fill="#fff" d="M378.87 302.49q-1.38.5-2.84-1.02-3.75-2.7-7.2-5.71l-7.07-6.24a600 600 0 0 0-14.72-12.37q-7.41-6.03-15.05-11.95-6.75-5.5-12.44-11.96l-11.46-13.03a18 18 0 0 1-4.65-12.64q.2-3.72 1.51-7.48 1.31-3.75 2.79-7.52a151 151 0 0 1 14.95-26.75 461 461 0 0 0 16.8-25.7q.37-.68 1.37-2.74a14 14 0 0 0 1.15-2.81q.09-.45-.56-.97-.65-.51-.38-.68 1.8-1.43 3.68-2.84a105 105 0 0 1 3.9-2.78q.27-.19-.5-.71-.76-.53-.52-.74 6.88-6 13.99-11.92 7.13-5.93 14.01-11.9 1.42-1 2.24-.1.9.66 3.14 3.35 2.26 2.68 4.63 5.37a43 43 0 0 1 2.97 3.56q.68.39 2.48 2.22 1.78 1.83 3.6 3.54a19 19 0 0 1 2.18 2.27q4.12 4.8 8.02 9.4t7.83 9.07l-13.9 12.1a946 946 0 0 1-14.13 12.04q-.87-.69-3.28-3.14t-4.81-5.03-3.23-3.48a560 560 0 0 0-6.77 10.77q-4.3 6.97-8.8 15.03t-7.36 15.28q-2.84 7.22-2.67 11.78l-.02.12-.03.12a910 910 0 0 1 17.67 14.57q8.75 7.4 17.42 14.76.06-.47.49-1.4.45-.93.73-1.13 6.67-6.28 13.45-12.51 6.8-6.25 13.47-12.55a337 337 0 0 1 8.4 8.84q4.17 4.53 8.3 9.07a428 428 0 0 1-8.09 14.64 97 97 0 0 1-9.7 13.84 73 73 0 0 1-5.23 5.2q-3.92 3.63-8.75 8-4.82 4.35-8.78 8.15a113 113 0 0 1-5.43 4.98 6.5 6.5 0 0 1-2.8 1.73"/></g><mask id="mask4_12_17" width="204" height="288" x="369" y="105" maskUnits="userSpaceOnUse" style="mask-type:luminance"><path fill="#fff" d="M572.25 105.8H369.93V393h202.32z"/></mask><g mask="url(#mask4_12_17)"><mask id="mask5_12_17" width="191" height="277" x="370" y="113" maskUnits="userSpaceOnUse" style="mask-type:luminance"><path fill="#fff" d="M370.12 113.36h190.05v276.61H370.12z"/></mask><g mask="url(#mask5_12_17)"><path fill="#000" d="M557.25 362.3a1360 1360 0 0 0-10.24 11.6q-5.1 5.85-10.4 11.8l-.2.22-.21.21a10.5 10.5 0 0 1-5.5 2.95 10.6 10.6 0 0 1-5.55-.35 11.4 11.4 0 0 1-4.48-2.81q-.6-.6-3.7-3.31l-6.63-5.8q-3.09-2.7-3.97-3.4l-.45-.36-.42-.42a28 28 0 0 1-3.65-5.02 62 62 0 0 1-2.32-4.04 181 181 0 0 1-10.22-25.6 160 160 0 0 1-5.97-27.1 143 143 0 0 1 .78-40.7 430 430 0 0 1 7.88-37.93l10.2 2.62 3.79 9.83q-8.98 3.46-18.64 5.54l-.24.05-.23.03q-2.98.5-6.06.75-2.18.18-4.26.52l-1.74-10.4 3.33 10a9 9 0 0 0 3.16-1.83q.48-.45.77-.86-1.78 2.55-4.25 3.9a10.7 10.7 0 0 1-6.4 1.3 10.6 10.6 0 0 1-6.58-3.16 33 33 0 0 1-3.51-4.08l8.43-6.33 7.45 7.46a408 408 0 0 1-11.67 11.24l-7.16-7.73 10.4-1.68a900 900 0 0 1 3.83 26.02l.1.7v.69q0-1.24-.31-2.48a10.4 10.4 0 0 0-4.98-6.57 10.4 10.4 0 0 0-5.22-1.39q-3.69 0-6.57 2.3a11 11 0 0 0-2.77 3.42q1.05-2.12 2.9-3.6a10.4 10.4 0 0 1 6.65-2.33q4.44 0 7.63 3.2l.32.32 6.93 8.26 7.02 8.35.32.49a11.5 11.5 0 0 1 1.98 6.48q0 3.51-1.98 6.48l-8.76-5.85 9.78 3.92q-1.29 3.2-5.06 6.79a155 155 0 0 1-8.26 7.23 847 847 0 0 0-17.42 14.53l-.26.22-.27.21q-1.2.9-2.42 1.66a12.7 12.7 0 0 1-9.55 1.72l-.64-.13-.62-.21a13 13 0 0 1-5.28-3.28l-1.57-1.57-.5-.7q-.74-1.05-3.54-4.22a207 207 0 0 1-6.44-7.67 58 58 0 0 1-4.71-6.52l-.52-.9-.33-1a92 92 0 0 1-2.46-10.53q-1.3-6.86-2.5-15l-2.1-14.68a804 804 0 0 0-1.36-9.39 778 778 0 0 0-4.67-27.15q-2.6-13.66-5.53-27.03l10.29-2.25 6.64 8.18a256 256 0 0 0-6.27 5.27q-3.29 2.85-6.79 5.7l-8.23 6.7-6.64-8.3a419 419 0 0 0-6.57-8.02l-11.84-14.07 4.4-6.58a87 87 0 0 1 4.42-5.7l6.01-7.3 3.8-4.61 8.22 6.59-8.76-5.85q.2-.3 1.38-2.4 2.08-3.68 3.51-5.12l.36-.35 12.5-10.33a798 798 0 0 0 11.75-9.9l6.86 8-7.45-7.45a11.3 11.3 0 0 1 9.62-3.25q3.84.55 6.75 3.46 1.4 1.41 4.69 5.4 2.84 3.44 5.78 6.8a65 65 0 0 1 4.75 5.86q1.67 2.5 3.38 7.95 1.35 4.24 2.46 8.5a59 59 0 0 1 1.53 7.07l-10.45 1.3 10.26-2.38a608 608 0 0 1 3.97 18.35q1.8 9.03 3.5 18.17l-10.36 1.93-8.22-6.59a235 235 0 0 0 2.75-3.53q1.15-1.55 4-4.27a281 281 0 0 1 4.71-4.38q2.13-1.95 2.59-2.4l7.44 7.46-9.93-3.51a126 126 0 0 0 3.9-13.25 542 542 0 0 0 4.56-20.35 105 105 0 0 0 2.11-18.78l.08-4.13 2.86-2.97q5.52-5.73 11.03-11.35 5.43-5.55 10.88-11.21l7.24-7.53 7.58 7.18a674 674 0 0 1 15.38 14.97l3.17 3.18-.08 4.5a133 133 0 0 1-2.4 22.45 303 303 0 0 1-4.92 21.2l-10.17-2.75 10.26 2.41q-.9 3.83-2.02 7.76a52 52 0 0 1-3.45 8.88l-.76 1.54-1.21 1.2q.3-.3.46-.5l-.33.43q.26-.34.58-.98 1.05-2.12 1.06-4.56 0-4.35-3.07-7.41a10 10 0 0 0-7.41-3.08v10.55l-3.4-9.99 5.27-1.79 8.8-3.04q4.89-1.7 9.06-3.1a54 54 0 0 1 6.97-1.98l1.73 10.4-7.44-7.45q3.3-3.3 7.87-3.3t7.86 3.3l.21.2.2.22q3.7 4.14 7.07 8.17l6.63 7.9-8.07 6.78 7.45-7.45a12.4 12.4 0 0 1 3.24 12.23 23 23 0 0 0-.36 1.5l-.05.23-8.8 35.86a171 171 0 0 0-4.65 34.13q-.58 12.67 1.65 25.44a118 118 0 0 0 7.05 24.6l-9.74 4 9.42-4.72q.75 1.5 2.33 5.13 1.35 3.07 2.87 6.04a26 26 0 0 0 1.22 2.14q-.13-.18-.39-.44l-7.45 7.45 3.91-9.79q2.54 1.02 4.33 2.81a11 11 0 0 1 3.35 8.04v4.02zm-15.72-14.06 7.87 7.03h-10.54a9.4 9.4 0 0 0 5.57 8.73l-2.01-.8-1.53-1.53q-2.2-2.22-4.65-6.94-1.83-3.57-3.45-7.25-1.37-3.14-1.88-4.15l-.17-.36-.15-.36a139 139 0 0 1-8.32-28.97 137 137 0 0 1-1.94-29.8q.67-19.42 5.25-38.43l8.74-35.63 10.23 2.51-10.33-2.07q.28-1.4.7-2.92a8 8 0 0 0 0 4.38 8.3 8.3 0 0 0 2.18 3.85l-.32-.32-6.94-8.28q-3.15-3.77-6.62-7.64l7.85-7.03-7.45 7.45a9.6 9.6 0 0 0 7.03 2.88q4.14 0 7.02-2.88l-2.38 2.39-3.33.55q-.45.08-3.78 1.2-4.05 1.34-8.84 3.01l-8.9 3.07-6.91 2.36h-1.74a10.2 10.2 0 0 1-7.5-3.1 10.2 10.2 0 0 1-3.09-7.5q0-2.55 1.16-4.87.54-1.06 1.42-2.24a22 22 0 0 1 1.82-2.19l7.45 7.46-9.42-4.72a30 30 0 0 0 2.03-5.25q.98-3.45 1.77-6.79l.04-.17.05-.17q2.63-9.75 4.56-19.7a111 111 0 0 0 2.03-18.88l10.52.21-7.44 7.46a794 794 0 0 0-14.95-14.55l7.23-7.67 7.58 7.32q-5.51 5.73-11.02 11.35-5.44 5.56-10.88 11.2l-7.6-7.3 10.54.21q-.23 11.3-2.53 22.56-2.15 10.53-4.7 20.97a148 148 0 0 1-4.54 15.44l-.78 2.25-1.7 1.7q-.8.8-3.3 3.09a223 223 0 0 0-6.04 5.69l-1.48 1.94-1.67 2.12-14.37 17.98-4.22-22.64q-1.65-9-3.44-17.9a587 587 0 0 0-3.83-17.7l-.12-.54-.07-.55q-.12-.99-1-4.31-.99-3.76-2.18-7.53a39 39 0 0 0-1.08-3.02l.26.43q-.45-.69-3.04-3.63a308 308 0 0 1-6.23-7.33 80 80 0 0 0-3.32-3.89 9 9 0 0 0 5.17 2.51 9.6 9.6 0 0 0 8.25-2.71l-.28.28-.3.26q-5.98 5.13-12.06 10.14l-12.11 10.02-6.7-8.13 7.44 7.46q.51-.5.85-1l.03-.03-.07.11-.88 1.5a69 69 0 0 1-2.2 3.72l-.25.38-.29.36q-.9 1.12-4 4.87l-5.99 7.26a71 71 0 0 0-3.16 4l-8.76-5.85 8.05-6.8 6.74 8.02q3.46 4.11 6.92 8.43l-8.23 6.58-6.64-8.18q3.24-2.63 6.27-5.27 3.3-2.85 6.79-5.7l13.27-10.8 3.66 16.74q2.98 13.63 5.64 27.58a788 788 0 0 1 4.8 27.9q.44 2.8 1.38 9.58l2.11 14.64a336 336 0 0 0 2.35 14.1 76 76 0 0 0 1.75 7.81l-10 3.34 9.15-5.23q.44.75 2.87 3.8 2.8 3.5 5.79 6.9a86 86 0 0 1 4.88 5.9l-8.57 6.13 7.45-7.45.94.94a7.4 7.4 0 0 0-2.95-1.8l-3.33 10 2.06-10.34a7.7 7.7 0 0 0-5.75 1.08q.46-.29.95-.65l6.32 8.43-6.86-8a789 789 0 0 1 17.98-14.99q.9-.74 2.99-2.51 2-1.74 3.91-3.55.6-.55.83-.84-.43.5-.83 1.52l.4-1.03.62-.91a9 9 0 0 0-1.56 5.22q0 2.88 1.56 5.21l8.77-5.84-8.07 6.78-13.27-15.82 8.06-6.78-7.44 7.46a10 10 0 0 0 7.26 2.98q3.65 0 6.5-2.29a10 10 0 0 0 1.75-1.75 10.7 10.7 0 0 1-8.46 4.25q-2.8 0-5.24-1.4a10 10 0 0 1-3.2-2.83 10.4 10.4 0 0 1-2.12-6.42h10.53l-10.44 1.4a892 892 0 0 0-3.75-25.45l-.9-5.57 4.13-3.83a452 452 0 0 0 11.1-10.7l8.58-8.6 7.3 9.73a21 21 0 0 0 1.54 1.82 10 10 0 0 0-6.12-2.91 10 10 0 0 0-5.87 1.17 8 8 0 0 0-2.93 2.52 13.2 13.2 0 0 1 6.67-5.22l.78-.27.82-.13q2.97-.5 6.06-.74 2.17-.18 4.27-.53l1.72 10.4-2.2-10.3a104 104 0 0 0 15.49-4.6l19.04-7.33-5.06 19.79a413 413 0 0 0-7.5 36.08 122 122 0 0 0-.69 34.59 139 139 0 0 0 5.2 23.52 159 159 0 0 0 8.95 22.48 58 58 0 0 0 2.4 3.97l.12.15-.49-.54-7.45 7.46 6.58-8.23q1.24.98 4.66 3.98l6.65 5.8q3.63 3.19 4.73 4.28a10.1 10.1 0 0 0-9-2.61q-3.07.6-5.27 2.82l7.45 7.46-7.86-7.03q5.23-5.86 10.25-11.6 5.1-5.85 10.4-11.8"/></g><path fill="#fff" d="M549.4 355.26q-5.27 5.9-10.34 11.69-5.04 5.81-10.3 11.71-.22.21-.64-.19-.86-.84-4.23-3.8-3.35-2.95-6.63-5.8a178 178 0 0 0-4.31-3.7 20 20 0 0 1-2.13-3.06q-1.47-2.41-1.88-3.26a169 169 0 0 1-9.58-24.04q-3.9-12.45-5.57-25.3a133 133 0 0 1 .7-37.64 419 419 0 0 1 7.72-37.01 112 112 0 0 1-17.08 5.05q-2.52.42-5.17.64a60 60 0 0 0-5.14.64q-.63.2-1.37 1.27-.73 1.04-1.15.62a27 27 0 0 1-2.53-2.96q-2.74 2.75-5.59 5.48a374 374 0 0 1-5.78 5.48 1183 1183 0 0 1 3.78 25.74q0 .22.09 0 .12-.21.33 0 3.38 4 6.63 7.92 3.27 3.9 6.65 7.88.4.65 0 1.28-.42 1.06-2.55 3.07a139 139 0 0 1-7.57 6.64q-4.41 3.59-8.84 7.27a573 573 0 0 0-8.85 7.49q-.85.63-1.7 1.15-.83.52-1.89.31a3 3 0 0 1-1.15-.73l-.95-.94q-1.06-1.5-4.22-5.08-3.17-3.57-6.11-7.25a48 48 0 0 1-3.78-5.18 82 82 0 0 1-2.12-9.16q-1.26-6.66-2.4-14.57a4849 4849 0 0 1-3.5-24.14 765 765 0 0 0-4.74-27.51q-2.62-13.81-5.57-27.33a233 233 0 0 0-6.53 5.5 265 265 0 0 1-6.54 5.49q-3.38-4.23-6.75-8.22l-6.72-8.03q.83-1.25 3.78-4.85l6.01-7.27 3.9-4.75q.41-.64 1.79-3.04 1.35-2.44 1.8-2.86 6.1-5.07 12.1-10.01a825 825 0 0 0 11.9-10.02q.65-.63 1.47.19 1.05 1.06 4.01 4.65 2.94 3.6 6 7.06a58 58 0 0 1 3.91 4.75q.83 1.26 2.1 5.27 1.28 4.01 2.31 8.03 1.05 4 1.28 5.69 2.1 9.05 3.89 18.02 1.79 8.95 3.47 18.02l1.58-1.98q.72-.97 1.37-1.8.63-.85 2.85-2.95 2.2-2.12 4.53-4.23 2.3-2.1 2.95-2.74 1.25-3.59 2.31-7.15 1.05-3.6 1.89-7.18 2.54-10.34 4.65-20.67 2.1-10.34 2.3-20.67 5.47-5.68 10.95-11.28 5.5-5.6 10.98-11.3a1049 1049 0 0 1 15.16 14.77q-.21 10.35-2.21 20.69a294 294 0 0 1-4.74 20.45q-.85 3.57-1.92 7.27-1.04 3.7-2.73 7.07-.19.21-.83 1.06-.63.83-.42.83a4044 4044 0 0 0 23.05-7.92q4.12-1.36 5.38-1.58.42-.42.85 0 3.58 4.02 6.84 7.91l6.63 7.91q.84.85.51 2.01-.3 1.16-.51 2.22-4.43 17.72-8.73 35.64a181 181 0 0 0-4.96 36.25q-.64 13.74 1.8 27.64 2.42 13.9 7.69 26.78.63 1.27 2.1 4.63 1.48 3.37 3.16 6.63 1.7 3.28 2.74 4.35 1.06.42 1.06 1.04"/></g><mask id="mask6_12_17" width="255" height="350" x="513" y="54" maskUnits="userSpaceOnUse" style="mask-type:luminance"><path fill="#fff" d="M767.03 54.41H513.37v349.17h253.66z"/></mask><g mask="url(#mask6_12_17)"><path fill="#000" d="M584.8 317.03q-2.85 2.06-6.3 2.35-4.58.4-8.31-2.3 2.1 1.5 4.67 1.93l-1.31-.21-1.23-.5a67 67 0 0 1-19.01-11.7l-.56-.47-.49-.55q-.47-.52-3.82-3.33-4.14-3.45-8.13-7.02a436 436 0 0 1-5.3-4.79l-.25-.22-.23-.24a14 14 0 0 1-3.72-7.25q-.54-2.79-.04-5.85l.58-3.59 9-36.62q4.46-17.94 8.55-35.77 2.36-10.05 4.84-20.11a183 183 0 0 0 3.6-18.81l11.97 1.63-12.07.46q-.06-1.72.05-4.27.34-7.93 5.9-11.95l7.08 9.8-8.08-8.98 4.72-4.26 7.16-6.45a62 62 0 0 0 3.32-3.09l.4-.48.45-.43q.63-.6 2.77-2.92a520 520 0 0 1 5.44-5.77q2.79-2.92 5.05-5.44 2.68-3.02 3.87-4.16l8.38 8.7-9.8-7.06q2.28-3.15 6.79-5.1l.73-.33q-.55.27-1.3.8l1.11-.8 1.27-.54q2.45-1.03 6.2-2.34a46 46 0 0 1 9.15-2.17q8.1-1.05 13.72 3l-7.05 9.81 6.46-10.2q2.65 1.67 7.58 6.53 3.93 3.87 7.88 7.64 4.46 4.22 6.06 6.08l-9.1 7.94 7.94-9.1a24 24 0 0 1 5.54 7.09q1.49 2.91 2.44 5.96l-11.52 3.61 11.21-4.49q1.25 3.1 3.3 9.9 1.96 6.4 4.33 14.72l4.7 16.27q2.4 8.23 4.11 14.8 1.77 6.78 2.37 9.94l-11.86 2.27 11.74-2.83a366 366 0 0 1 5.79 29.3q2.19 14.15 4.77 28.1l-11.87 2.2-7.07-9.8q1.3-.94 4.94-3.34l6.84-4.53q3.22-2.13 3.84-2.58l8.76-6.33 7.26 8.01q4.03 4.44 8.09 8.66 4.29 4.46 8.35 8.88l7.53 8.22-7.57 8.17q-1.45 1.57-5.5 5.4l-8.2 7.82q-4.54 4.36-8.37 7.88a81 81 0 0 1-6.22 5.34l-7.07-9.8 7.93 9.12a99 99 0 0 1-7.12 5.31 196 196 0 0 1-10.06 6.6 113 113 0 0 1-7.54 4.35l-5.36-10.83 5.61 10.7a23 23 0 0 1-4.75 1.85q-3.05.8-6.08.32a14 14 0 0 1-6.08-2.52l-1-.72-.84-.92a936 936 0 0 0-16.09-17.1l-.26-.27q-3.05-3.37-4.76-10.12-1.1-4.34-1.44-6.37l11.92-1.95-11.75 2.78q-2.87-12.15-4.75-24.17a590 590 0 0 0-4.01-22.72l11.85-2.34 8.85 8.22q-2.4 2.6-4.95 5.3l-4.8 5.13-8.85-8.22 9.09 7.95q-3.26 3.71-9.87 6.69-4.53 2.03-9.8 4.04-5.36 2.06-10.28 3.53a62 62 0 0 0-5.4 1.81l-4.68-11.14 11.1 4.76q.2-.45.26-.85-.36 2.25-1.22 4.54l-11.3-4.23 7.98-9.06q4.12 3.63 8.13 7.27 3.83 3.45 7.57 6.67l9.06 7.77-7.64 9.15q-5.88 7.06-11.97 13.93l-12.85 14.6zm-14.13-19.6 7.07 9.8-9.07-7.99 12.01-13.64q5.86-6.62 11.5-13.38l9.27 7.74-7.86 9.18a394 394 0 0 1-8.06-7.1q-3.9-3.54-7.9-7.08l-6.23-5.5 2.9-7.79.03-.07-.03.14q.4-2.54 1.38-4.82l1.92-4.48 4.5-1.9a83 83 0 0 1 7.8-2.68q4.08-1.22 8.62-2.96 4.64-1.77 8.55-3.53 1.32-.6 2.03-1.04l.14-.09-.02.02q-.28.22-.6.58l.12-.13.13-.13q2.4-2.6 4.95-5.3l4.8-5.12 16.12-17.41 4.57 23.3q2.34 11.85 4.18 23.64 1.73 11.1 4.4 22.35l.09.42.07.42q.15 1 1 4.3.29 1.13.48 1.6-.3-.74-1.22-1.76l-8.95 8.12 8.7-8.4a1018 1018 0 0 1 16.49 17.55l-8.9 8.17 7.05-9.82a9.7 9.7 0 0 0-8.42-1.42l.25-.13q1.38-.68 5.67-3.31a171 171 0 0 0 13.92-9.52l.42-.36.44-.32q.8-.6 4.01-3.54 3.65-3.36 8.06-7.59l8.27-7.87q3.46-3.3 4.38-4.29l8.86 8.22-8.9 8.18q-3.85-4.2-7.94-8.44a406 406 0 0 1-8.6-9.21l8.95-8.12 7.07 9.8q-1.05.75-4.67 3.15l-6.85 4.52q-3.2 2.13-4.1 2.78l-15.48 11.18-3.47-18.77q-2.65-14.31-4.9-28.8a337 337 0 0 0-5.4-27.35l-.06-.28-.06-.28q-.45-2.4-2.01-8.4a484 484 0 0 0-3.94-14.16l-4.72-16.35a854 854 0 0 0-4.21-14.32 115 115 0 0 0-2.63-7.95l-.17-.44-.14-.44a14 14 0 0 0-.83-2.08l-.62-.55-.54-.62a88 88 0 0 0-4.48-4.43q-4.1-3.9-8.2-7.94a50 50 0 0 0-3.55-3.34l-.3-.19-.29-.2a7 7 0 0 0 3.56 1.33h.03l-.12.01q-2.13.29-4.33 1.04-3 1.05-4.73 1.78l-4.7-11.14 7.08 9.8q-1.35.98-4.01 2.12l-.07.03.35-.2a10 10 0 0 0 2.98-2.8l-.63.88-.79.75a77 77 0 0 0-2.64 2.87q-2.52 2.83-5.6 6.06-2.88 3-5.19 5.5a108 108 0 0 1-3.7 3.86l-8.38-8.7 9.23 7.8a66 66 0 0 1-5.65 5.5l-7.14 6.42-5.2 4.7-.53.38a10 10 0 0 0 3.7-4.9q.34-.99.37-1.72a31 31 0 0 0-.03 2.33l.03 1.05-.14 1.04a205 205 0 0 1-4.08 21.33q-2.46 9.94-4.76 19.72a1928 1928 0 0 1-8.64 36.14l-8.88 36.15-11.72-2.89 11.92 1.93-.5 3.1q.2-1.15-.08-2.55a9.7 9.7 0 0 0-2.62-4.99l-8.69 8.4 8.21-8.87a387 387 0 0 0 12.5 10.99 71 71 0 0 1 6.23 5.64l-8.95 8.11 7.9-9.14a43 43 0 0 0 12.13 7.53l-4.46 11.23 1.93-11.94q3.05.5 5.58 2.32a11.4 11.4 0 0 0-7.84-2.16q-3.22.27-5.78 2.14m51.48-126.27q-.42 2.58-2.07 9.6l-3.44 14.52-3.42 14.4q-1.59 6.7-2.23 9.02l-11.63-3.23-3.62-11.53q5.73-1.8 11.31-3.49 4.7-1.43 8.92-3.42l5.14 10.94-11.75 2.75a337 337 0 0 0-5-18.89l-5.7-19.13 11.57-3.46zm-23.84-3.84 23.49-1.54 5.72 19.19q2.95 9.97 5.35 20.25l2.22 9.51-8.83 4.17a90 90 0 0 1-12.2 4.68q-5.47 1.66-11.1 3.43l-21.17 6.65 5.93-21.41q.53-1.9 2-8.17l3.42-14.38 3.44-14.48a164 164 0 0 0 1.73-7.9"/><path fill="#fff" d="M577.74 307.23q-.28.19-.5.02-.2-.13-.44-.18a54 54 0 0 1-15.6-9.62 68 68 0 0 0-5.02-4.46 427 427 0 0 1-12.95-11.4q-.84-.86-.52-2.77l.5-3.12q4.38-18.13 8.87-36.13t8.58-35.97q2.33-9.9 4.8-19.91a191 191 0 0 0 3.84-20.08q-.05-1.22.04-3.28.12-2.07.92-2.67l4.72-4.27 7.15-6.43a59 59 0 0 0 4.5-4.3q.83-.84 3.2-3.4 2.37-2.55 5.32-5.62 2.98-3.09 5.36-5.76t3.23-3.52q.33-.42 1.77-1.06t1.72-.8q2.1-.9 5.45-2.08 3.38-1.19 6.75-1.6 3.4-.44 5.17.84 1.53.98 5.54 4.94a582 582 0 0 0 8.02 7.8 98 98 0 0 1 5.29 5.26q1.7 1.47 2.71 3.47a26 26 0 0 1 1.7 4.06q1.01 2.65 2.95 8.95 1.92 6.29 4.27 14.5 2.34 8.23 4.7 16.32a455 455 0 0 1 4.03 14.48q1.65 6.38 2.2 9.16a335 335 0 0 1 5.58 28.32q2.23 14.32 4.84 28.44 1.11-.78 4.53-3.05l6.84-4.51q3.42-2.26 4.25-2.88 4.15 4.59 8.35 8.95t8.16 8.64q-1.2 1.28-4.95 4.85t-8.24 7.86a468 468 0 0 1-8.2 7.7 90 90 0 0 1-11.23 8.98 177 177 0 0 1-16.07 10.03q-1.05.54-2.2.85t-2.05-.33a840 840 0 0 0-16.25-17.31q-1.05-1.14-2.03-4.96a74 74 0 0 1-1.23-5.39 317 317 0 0 1-4.55-23.24q-1.8-11.54-4.08-23.19a1554 1554 0 0 1-9.77 10.42q-1.5 1.72-5.71 3.61a173 173 0 0 1-18.64 7.04q-4.5 1.34-6.58 2.27a9 9 0 0 0-.57 2q-.15 1.06-.59 2.2 4.04 3.6 7.98 7.18 3.96 3.54 7.83 6.87-5.73 6.9-11.73 13.65-5.97 6.75-11.96 13.63m32.49-138q-.33 2.16-1.91 8.77l-3.45 14.5-3.42 14.38q-1.5 6.47-2.1 8.57l11.19-3.42a80 80 0 0 0 10.57-4.06 350 350 0 0 0-5.17-19.56q-2.84-9.65-5.71-19.18"/></g><mask id="mask7_12_17" width="205" height="326" x="605" y="60" maskUnits="userSpaceOnUse" style="mask-type:luminance"><path fill="#fff" d="M809.3 60.46H605.48v324.98h203.84z"/></mask><g mask="url(#mask7_12_17)"><path fill="#000" d="M719 302.43q-1.25.25-5.98 1.62a380 380 0 0 1-10.45 2.87q-6.15 1.58-9.19 1.71l-1.39.06-1.36-.27q-5.48-1.13-8.23-5.3l-.18-.28-.17-.29q-2.64-4.56-5.5-9.18a396 396 0 0 0-5.77-9.03 12.5 12.5 0 0 1-2.02-5.5q.28 2.3 1.57 4.26l-1.66-2.53-.18-3.02q-.4-6.6-.2-13.23.21-5.96.27-11.82l.02-.36a441 441 0 0 1 4.11-43.96 874 874 0 0 0 5.06-42.06l11.25 1.07 4.26 10.49q-3.66 1.48-7.34 3.08-4.2 1.83-8.85 3.42l-9.03 3.1-4.55-8.4a149 149 0 0 0-5.34-9.02q-3.1-4.86-6.1-9.69l-5.9-9.52 9.46-6q7.2-4.57 14.38-9.03 7.27-4.5 14.73-8.86l5.69 9.77-8.89-6.98q2.5-3.19 7.24-4.65l.52-.16q-.84.3-1.81.95l1.16-.77 1.31-.46q1.04-.37 4.1-1.58 3.05-1.22 6.8-2.87 4.08-1.8 7.63-3.25 3.1-1.26 3.84-1.61l.28-.14.3-.12a12.5 12.5 0 0 1 9.93-.03 12.5 12.5 0 0 1 6.92 7.14l-10.47 4.27 9.6-5.97a787 787 0 0 1 11.54 19.25l.4.68.29.73q1.05 2.57 1.2 6.39l.15 3.3-.02.5q-.6 13.49-2.27 26.88-1.6 13-3.36 26.1-1.62 13.5-3.04 27.21a419 419 0 0 0-1.93 27.05l-11.3-.44-4.25-10.48q1.32-.54 4.72-1.52l5.63-1.61a39 39 0 0 1 5.29-1.26l7.16-.86 3.8 6.13q2.9 4.7 5.93 9.4 3.1 4.86 6.1 9.69l6.01 9.71-9.75 5.92a869 869 0 0 0-14.08 8.75L721.03 302zm-4.56-22.17 2.28 11.09-6.05-9.56 14.31-9.08q7.25-4.6 14.46-8.98l5.86 9.67-9.6 5.97a799 799 0 0 0-5.93-9.4 711 711 0 0 1-6.1-9.7l9.6-5.96 1.36 11.24.54-.08q-.1.01-.35.08-.71.18-1.96.54l-5.63 1.62q-2.24.64-2.43.72l-16.24 6.6.69-17.53a443 443 0 0 1 2.03-28.5q1.44-13.88 3.12-27.87 1.73-12.99 3.33-25.89a322 322 0 0 0 2.12-25.1l11.29.5-11.3.49-.12-2.8q0-.34-.02-.41.1.69.46 1.57l10.47-4.27-9.78 5.67a820 820 0 0 0-11.18-18.65l-.51-.82-.36-.88a9.3 9.3 0 0 0 5.24 5.18 9.3 9.3 0 0 0 7.36.13l-4.25-10.48 4.83 10.23q-1.3.62-5 2.12-3.24 1.32-7.02 3a221 221 0 0 1-12.5 5.08l-3.76-10.67 6.23 9.44q-1.63 1.07-4.54 1.97.18-.06.55-.24a10 10 0 0 0 3.36-2.78l-1.33 1.7-1.87 1.1q-7.2 4.19-14.2 8.53-7.08 4.4-14.2 8.91l-6.04-9.55 9.6-5.96q2.9 4.69 5.93 9.4a169 169 0 0 1 6.15 10.42l-9.93 5.4-3.66-10.7a98 98 0 0 0 7.18-2.77q3.91-1.7 7.81-3.28l17.29-7.05-1.78 18.6a899 899 0 0 1-5.19 43.15q-3 20.75-3.9 41.7l-11.3-.49 11.31.13q-.07 6.1-.28 12.32-.18 5.53.16 11.09l-11.29.69 9.44-6.24a12.6 12.6 0 0 1 2 5.5 10 10 0 0 0-1.57-4.25 384 384 0 0 1 11.98 19.33l-9.78 5.68 9.43-6.24a10.3 10.3 0 0 0-6.1-4.4l-2.27 11.09-.5-11.3q.69-.04 4.54-1.03 4.83-1.25 9.82-2.69 5.58-1.6 7.69-2.05"/><path fill="#fff" d="M716.72 291.33q-1.69.36-6.85 1.85-5.14 1.49-10.14 2.78-4.98 1.3-6.84 1.35-.88-.16-1.06-.43a389 389 0 0 0-11.64-18.8q-.2-.25-.2-.58a1.3 1.3 0 0 0-.22-.64 129 129 0 0 1-.19-12.17q.22-6.06.28-12.06a423 423 0 0 1 4.01-42.82 885 885 0 0 0 5.12-42.6 242 242 0 0 0-7.57 3.18 96 96 0 0 1-8 3.07q-2.69-4.9-5.75-9.7t-6.02-9.55q7.15-4.52 14.27-8.97 7.15-4.44 14.49-8.7.33-.4 1.68-.8 1.35-.42 1.57-.59 1.29-.47 4.54-1.75 3.27-1.3 7.2-3.02 3.93-1.74 7.3-3.12 3.4-1.39 4.44-1.89 1.5-.59 2.1.9a657 657 0 0 1 11.4 18.97q.27.76.37 2.62l.12 2.78q-.56 13.04-2.2 26-1.6 12.95-3.32 26.01a1516 1516 0 0 0-3.12 27.51q-1.42 13.8-1.95 27.78.74-.3 3.56-1.11l5.64-1.6q2.82-.8 3.54-.93 2.91 4.78 5.99 9.57 3.09 4.77 6.04 9.54-7.11 4.32-14.27 8.86z"/></g><mask id="mask8_12_17" width="177" height="293" x="218" y="75" maskUnits="userSpaceOnUse" style="mask-type:luminance"><path fill="#fff" d="M394.08 75.58H218.94V367.3h175.14z"/></mask><g mask="url(#mask8_12_17)"><path fill="#000" d="M276.33 319.81q-.22.24-.45.12a49 49 0 0 1-15.76-6.47 62 62 0 0 0-5.17-3.28q-4.05-2.4-8-4.94a419 419 0 0 1-5.25-3.4q-.88-.66-.88-2.4v-2.87q1.32-16.88 2.74-33.68 1.43-16.78 2.52-33.46.66-9.2 1.42-18.52.78-9.32.56-18.54a32 32 0 0 1-.44-2.97q-.22-1.87.44-2.53l3.62-4.49 5.47-6.8a58 58 0 0 0 3.4-4.49q.65-.9 2.4-3.52 1.77-2.64 3.94-5.8a206 206 0 0 0 3.94-5.93 73 73 0 0 1 2.43-3.62q.21-.45 1.42-1.2 1.2-.78 1.44-1 1.75-1.1 4.6-2.64a31 31 0 0 1 5.8-2.4q2.95-.89 4.72 0 1.52.66 5.69 3.63 4.17 2.95 8.32 5.81a76 76 0 0 1 5.48 3.94q1.77 1.1 2.97 2.74 1.2 1.66 2.07 3.4 1.33 2.2 3.94 7.59 2.64 5.36 5.93 12.37 3.27 7.01 6.56 13.94 3.3 6.92 5.7 12.4t3.3 7.88a325 325 0 0 1 9.09 24.59 884 884 0 0 0 8.45 24.77q.86-.86 3.6-3.4l5.48-5.03q2.73-2.52 3.4-3.19a333 333 0 0 0 8.75 6.8q4.38 3.3 8.56 6.6-.87 1.3-3.72 5.03t-6.26 8.24q-3.4 4.5-6.25 8.12a58 58 0 0 1-3.94 4.7q-1.09 1.33-4.81 4.94-3.73 3.61-7.57 6.92a92 92 0 0 1-5.36 4.37q-.87.66-1.86 1.08-1 .45-1.87.03-4.15-3.3-8.44-6.6l-8.64-6.58q-1.11-.87-2.55-4.16a60 60 0 0 1-1.84-4.6 272 272 0 0 1-7.45-20.17 539 539 0 0 0-7-20.2l-3.64 5.37a468 468 0 0 0-3.61 5.38q-1.1 1.75-4.6 4.06-3.51 2.29-7.7 4.73-4.14 2.4-7.99 4.27a70 70 0 0 0-5.57 2.95q-.21.88-.21 1.87t-.24 2.08q4.18 2.64 8.24 5.29 4.05 2.62 8 5.03a572 572 0 0 1-8.57 13.93q-4.37 6.9-8.75 13.91m9.2-128.33q0 1.98-.45 8.12a3266 3266 0 0 1-1.96 26.88q-.45 6.02-.66 8 4.81-2.4 9.53-4.7a70 70 0 0 0 8.88-5.17 300 300 0 0 0-7.46-16.77q-3.95-8.23-7.88-16.36"/><path fill="#fff" d="M257.65 299.76q-.22.23-.45.12a49 49 0 0 1-15.76-6.47 61 61 0 0 0-5.17-3.29q-4.05-2.4-8-4.94a431 431 0 0 1-5.26-3.4q-.87-.65-.87-2.4v-2.86q1.32-16.9 2.74-33.68 1.43-16.8 2.52-33.47.65-9.2 1.42-18.51.78-9.33.56-18.54-.23-1.1-.45-2.98-.21-1.86.45-2.53l3.61-4.48 5.47-6.8a57 57 0 0 0 3.4-4.5q.66-.89 2.4-3.51 1.78-2.64 3.95-5.81a206 206 0 0 0 3.94-5.93 73 73 0 0 1 2.43-3.61q.21-.45 1.41-1.2 1.2-.8 1.44-1 1.75-1.11 4.6-2.64a31 31 0 0 1 5.8-2.41q2.96-.87 4.73 0 1.53.66 5.68 3.63 4.18 2.97 8.33 5.81 4.17 2.85 5.47 3.95 1.77 1.08 2.98 2.74 1.2 1.65 2.07 3.4 1.33 2.2 3.94 7.58 2.65 5.37 5.92 12.38t6.56 13.93q3.3 6.93 5.71 12.4 2.4 5.47 3.3 7.89a325 325 0 0 1 9.09 24.58q4.06 12.5 8.44 24.78.87-.87 3.61-3.4t5.48-5.03q2.73-2.53 3.4-3.2 4.38 3.54 8.75 6.8a405 405 0 0 1 8.56 6.6q-.87 1.3-3.73 5.03l-6.25 8.24q-3.4 4.5-6.25 8.13a58 58 0 0 1-3.94 4.7q-1.1 1.32-4.81 4.93a175 175 0 0 1-7.58 6.92 92 92 0 0 1-5.35 4.37q-.87.66-1.87 1.09-.99.44-1.86.02-4.15-3.3-8.45-6.59l-8.63-6.59q-1.12-.87-2.55-4.15a60 60 0 0 1-1.84-4.6 272 272 0 0 1-7.45-20.18 539 539 0 0 0-7.01-20.2l-3.63 5.37a486 486 0 0 0-3.61 5.38q-1.1 1.76-4.6 4.07-3.52 2.3-7.7 4.72-4.15 2.41-8 4.28a70 70 0 0 0-5.56 2.95q-.21.87-.21 1.86t-.24 2.08q4.17 2.65 8.23 5.3 4.05 2.62 8 5.02a575 575 0 0 1-8.56 13.94q-4.37 6.89-8.75 13.9m9.2-128.34q0 1.98-.45 8.12a3476 3476 0 0 1-2.62 34.89q4.8-2.4 9.53-4.7a70 70 0 0 0 8.87-5.17 301 301 0 0 0-7.45-16.77q-3.95-8.25-7.88-16.37"/></g><mask id="mask9_12_17" width="186" height="299" x="77" y="96" maskUnits="userSpaceOnUse" style="mask-type:luminance"><path fill="#fff" d="M262.72 96.74H77V394.5h185.72z"/></mask><g mask="url(#mask9_12_17)"><path fill="#000" d="M180.2 317.12a866 866 0 0 1-11.63 12.3l-11.6 12.1a410 410 0 0 1-7.93-7.73 447 447 0 0 0-7.93-7.72q-.24-.45-.12-1 .13-.55.33-1 1.35-2.46 2.79-4.7 1.46-2.25 2.36-4.7.9-2.91.21-6.27-.21-1.34-1.56-6.14-1.34-4.8-2.57-9.73t-1.67-6.28a121 121 0 0 0-5.92 2.46q-3.03 1.35-5.48 3.35a890 890 0 0 1-8.4-7.6q-4.13-3.8-8.14-7.4 4.7-5.1 9.4-10.39 4.68-5.25 9.6-10.39a783 783 0 0 0-7.37-21.61l-7.62-21.35q-.66.66-1.34 1.44a10 10 0 0 1-1.56 1.47q-3.8-4.04-7.83-7.94-4.02-3.92-7.8-7.96 1.58-2 6.15-6.8 4.58-4.82 10.26-10.42l10.5-10.3q4.8-4.69 6.6-6.49.69-.65.9-.21l7.72 7.72q3.9 3.9 7.71 7.94.45.44.78 1.22.32.78.57 1.68 4.46 13.2 9.15 26.64a2708 2708 0 0 1 9.15 26.62q4.94-1.8 9.72-3.8 4.81-2.03 9.51-3.8a663 663 0 0 0-2.36-11.77q-1.23-5.92-2.55-11.74a58 58 0 0 1-4.03 2.7l-6.7-8.95q-3.36-4.49-6.94-8.74a54 54 0 0 1 3.26-2.67 44 44 0 0 0 3-2.48q.44-.44 2-2.13a59 59 0 0 1 1.82-1.89q6.45-5.35 12.6-10.84t12.4-10.86q1.13-1.11 2.25.21 1.13 1.14 4.24 4.73 3.15 3.57 6.25 7.03a58 58 0 0 1 4.04 4.8q.66.9 1.32 3.82.68 2.91 1.25 5.81l.78 4.02q1.35 6.5 2.9 13.1 1.58 6.6 2.9 13.1 1.8-.45 3.59-.79t3.35-.35q.44 0 .99-.1.56-.1.8.33a905 905 0 0 1 14.09 17.22q-4.25 3.37-8.4 6.7a599 599 0 0 0-8.14 6.74A395 395 0 0 0 236.3 266a277 277 0 0 1 4.24 18.68l7.48 7.94 7.5 7.93q-1.35 1.35-5.26 5.15t-8.49 8.17a587 587 0 0 1-8.5 7.96 48 48 0 0 1-5.68 4.68 44 44 0 0 1-3.82 2.36q-2.22 1.23-3.78-.35-3.59-4.25-7.28-8.27a631 631 0 0 0-7.48-8.05 5 5 0 0 1-.69-1.47q-.21-.78-.42-1.44l-1.02-5.03q-.78-3.9-1.34-7.84-.56-3.92-.78-5.03-1.35-6.7-2.9-13.41a333 333 0 0 0-3.35-13.23q-4.02 1.59-8.17 3.14a149 149 0 0 0-8.13 3.35q.42 1.59 1.65 5.84a325 325 0 0 1 2.57 9.28q1.34 5.03 2.36 9.28a63 63 0 0 1 1.22 6.05q.45 2.46-.68 4.9a46 46 0 0 1-2.45 4.7q-.22.46-1.35 2.37a17 17 0 0 0-1.32 2.55q0 .24-.12.57zm52.76-100.23v.11z"/><path fill="#fff" d="M161.15 296.67a866 866 0 0 1-11.63 12.3l-11.6 12.1a407 407 0 0 1-7.93-7.73 444 444 0 0 0-7.93-7.72q-.24-.45-.12-1 .13-.56.33-1.01 1.35-2.45 2.79-4.7 1.45-2.25 2.36-4.7.9-2.9.2-6.26-.2-1.34-1.55-6.14t-2.57-9.73a120 120 0 0 0-1.68-6.28q-2.9 1.11-5.92 2.45-3.03 1.35-5.47 3.36a890 890 0 0 1-8.4-7.6q-4.13-3.8-8.14-7.4 4.7-5.12 9.39-10.4 4.7-5.26 9.6-10.38a783 783 0 0 0-7.36-21.61l-7.62-21.35q-.66.66-1.34 1.44a10 10 0 0 1-1.56 1.46q-3.8-4.05-7.83-7.93a255 255 0 0 1-7.81-7.96q1.57-2 6.16-6.8a433 433 0 0 1 10.26-10.42l10.5-10.3q4.8-4.7 6.6-6.5.69-.65.9-.2l7.71 7.72q3.91 3.9 7.72 7.93.44.45.78 1.23.33.78.56 1.68 4.46 13.2 9.16 26.64a2726 2726 0 0 1 9.15 26.62q4.93-1.8 9.72-3.8 4.81-2.04 9.5-3.8-1.1-5.84-2.35-11.77-1.23-5.93-2.55-11.74a60 60 0 0 1-4.03 2.7l-6.7-8.96q-3.36-4.48-6.94-8.74.69-.65 3.26-2.66a45 45 0 0 0 3-2.48q.44-.44 2-2.13a59 59 0 0 1 1.81-1.89q6.46-5.36 12.6-10.84 6.15-5.5 12.41-10.86 1.14-1.1 2.24.2 1.14 1.14 4.25 4.73 3.14 3.57 6.25 7.04a58 58 0 0 1 4.04 4.8q.65.9 1.32 3.82.68 2.9 1.25 5.81l.78 4.02q1.35 6.5 2.9 13.1 1.57 6.6 2.9 13.09 1.8-.45 3.59-.78 1.78-.36 3.35-.36.44 0 .99-.1.56-.1.8.34a892 892 0 0 1 14.08 17.22q-4.25 3.36-8.4 6.7a606 606 0 0 0-8.14 6.74 397 397 0 0 0 4.46 18.68 276 276 0 0 1 4.25 18.68l7.48 7.93 7.5 7.94q-1.35 1.35-5.26 5.15t-8.5 8.17a598 598 0 0 1-8.48 7.96 48 48 0 0 1-5.7 4.68 44 44 0 0 1-3.81 2.36q-2.22 1.23-3.78-.36-3.6-4.24-7.29-8.26a616 616 0 0 0-7.48-8.06q-.45-.68-.68-1.46-.2-.78-.43-1.44l-1.01-5.03q-.78-3.92-1.34-7.84t-.78-5.03q-1.35-6.7-2.9-13.42-1.56-6.74-3.35-13.22-4.02 1.58-8.17 3.14a150 150 0 0 0-8.14 3.35q.43 1.59 1.65 5.83 1.26 4.24 2.58 9.29 1.35 5.02 2.35 9.28a63 63 0 0 1 1.23 6.04q.45 2.46-.68 4.91a46 46 0 0 1-2.46 4.7q-.21.46-1.34 2.37a17 17 0 0 0-1.32 2.55q0 .24-.12.56zm52.75-100.24v.12z"/></g><mask id="mask10_12_17" width="243" height="349" x="523" y="54" maskUnits="userSpaceOnUse" style="mask-type:luminance"><path fill="#fff" d="M765.52 54.41H523.94v347.66h241.58z"/></mask><g mask="url(#mask10_12_17)"><path fill="#000" d="M594.55 331.13q-.27.18-.5.02-.2-.15-.44-.19a54 54 0 0 1-15.6-9.61 68 68 0 0 0-5.02-4.47 413 413 0 0 1-12.95-11.4q-.84-.86-.52-2.77l.5-3.11q4.38-18.14 8.87-36.14t8.58-35.97q2.33-9.9 4.8-19.9a191 191 0 0 0 3.84-20.08q-.05-1.23.04-3.29.12-2.07.93-2.66 1.15-1.07 4.71-4.28l7.15-6.42a59 59 0 0 0 4.5-4.3q.84-.85 3.2-3.4t5.33-5.62q2.97-3.09 5.35-5.77 2.39-2.66 3.23-3.52.33-.42 1.77-1.06 1.44-.63 1.72-.8 2.1-.9 5.45-2.08 3.37-1.17 6.75-1.6 3.4-.43 5.17.84 1.53.98 5.54 4.94a582 582 0 0 0 8.02 7.8 98 98 0 0 1 5.29 5.26q1.7 1.47 2.71 3.47 1.05 2 1.7 4.06 1.01 2.65 2.95 8.96 1.92 6.28 4.27 14.5 2.33 8.22 4.7 16.32a455 455 0 0 1 4.03 14.47q1.65 6.38 2.2 9.17a334 334 0 0 1 5.58 28.32 957 957 0 0 0 4.84 28.43q1.11-.77 4.53-3.05 3.45-2.25 6.84-4.5 3.42-2.27 4.25-2.89a393 393 0 0 0 8.35 8.95q4.2 4.35 8.16 8.65-1.2 1.27-4.95 4.84l-8.24 7.86a472 472 0 0 1-8.2 7.7 90 90 0 0 1-11.23 8.97 177 177 0 0 1-16.07 10.05q-1.05.54-2.2.85t-2.05-.33a840 840 0 0 0-16.25-17.31q-1.05-1.14-2.03-4.97a74 74 0 0 1-1.23-5.38 317 317 0 0 1-4.55-23.24q-1.8-11.55-4.08-23.2a1377 1377 0 0 1-9.77 10.42q-1.5 1.73-5.71 3.62a173 173 0 0 1-18.64 7.03q-4.5 1.35-6.58 2.27a9 9 0 0 0-.57 2q-.15 1.08-.59 2.2 4.04 3.62 7.98 7.18 3.96 3.55 7.83 6.88-5.73 6.9-11.73 13.65-5.96 6.75-11.96 13.63m32.49-138a144 144 0 0 1-1.91 8.76q-1.56 6.62-3.45 14.5l-3.42 14.38q-1.5 6.48-2.1 8.58 5.66-1.75 11.19-3.43a80 80 0 0 0 10.57-4.06 350 350 0 0 0-5.17-19.56q-2.84-9.65-5.71-19.17"/><path fill="#fff" d="M577.74 306.03q-.28.18-.5.02-.2-.15-.44-.19a54 54 0 0 1-15.6-9.61q-1.05-1.13-5.02-4.46a439 439 0 0 1-12.95-11.4q-.84-.87-.52-2.77l.5-3.12q4.38-18.14 8.87-36.14t8.58-35.97q2.33-9.9 4.8-19.9a191 191 0 0 0 3.84-20.08 38 38 0 0 1 .04-3.28q.12-2.08.92-2.67l4.72-4.28 7.15-6.42a59 59 0 0 0 4.5-4.3q.83-.85 3.2-3.4t5.32-5.62q2.98-3.09 5.36-5.76a106 106 0 0 1 3.23-3.52q.33-.43 1.77-1.07 1.44-.63 1.72-.8 2.1-.9 5.45-2.08 3.38-1.18 6.75-1.6 3.4-.43 5.17.85 1.53.97 5.54 4.93a582 582 0 0 0 8.02 7.8 98 98 0 0 1 5.29 5.26q1.7 1.47 2.71 3.48a26 26 0 0 1 1.7 4.06q1.01 2.64 2.95 8.95 1.92 6.29 4.27 14.5t4.7 16.32a454 454 0 0 1 4.03 14.48q1.65 6.37 2.2 9.16a335 335 0 0 1 5.58 28.32 960 960 0 0 0 4.84 28.43q1.11-.78 4.53-3.04l6.84-4.51q3.42-2.27 4.25-2.89a397 397 0 0 0 8.35 8.96q4.2 4.35 8.16 8.64-1.2 1.28-4.95 4.84l-8.24 7.87q-4.45 4.27-8.2 7.7a90 90 0 0 1-11.23 8.98 177 177 0 0 1-16.07 10.03q-1.05.54-2.2.85t-2.05-.33a861 861 0 0 0-16.25-17.31q-1.05-1.14-2.03-4.96a75 75 0 0 1-1.23-5.39 317 317 0 0 1-4.55-23.24 601 601 0 0 0-4.08-23.2 1555 1555 0 0 1-9.77 10.42q-1.5 1.74-5.71 3.62a174 174 0 0 1-18.64 7.04q-4.5 1.35-6.58 2.26a9 9 0 0 0-.57 2.01q-.15 1.05-.59 2.2 4.04 3.6 7.98 7.18 3.96 3.54 7.83 6.87a563 563 0 0 1-11.73 13.65q-5.97 6.75-11.96 13.63m32.49-138q-.33 2.16-1.91 8.76-1.56 6.62-3.45 14.5l-3.42 14.39q-1.5 6.47-2.1 8.57l11.19-3.43a80 80 0 0 0 10.57-4.06 350 350 0 0 0-5.17-19.55q-2.84-9.66-5.71-19.18"/></g><mask id="mask11_12_17" width="216" height="352" x="271" y="58" maskUnits="userSpaceOnUse" style="mask-type:luminance"><path fill="#fff" d="M486.19 58.95h-214.4v350.67h214.4z"/></mask><g mask="url(#mask11_12_17)"><path fill="#000" d="M395.37 327.26q-1.37.5-2.83-1.01-3.75-2.7-7.2-5.72l-7.07-6.23a602 602 0 0 0-14.72-12.38q-7.42-6.02-15.06-11.95-6.75-5.5-12.43-11.95-5.7-6.44-11.46-13.04a18 18 0 0 1-4.65-12.63q.18-3.74 1.5-7.49t2.8-7.51a151 151 0 0 1 14.95-26.76 461 461 0 0 0 16.8-25.7q.37-.67 1.37-2.73 1.01-2.05 1.15-2.81.09-.45-.56-.97-.65-.51-.38-.69 1.79-1.41 3.68-2.83a108 108 0 0 1 3.9-2.79q.27-.19-.5-.7-.76-.54-.52-.74 6.88-6 13.99-11.93t14.01-11.9q1.41-.99 2.24-.1.9.67 3.14 3.36 2.26 2.67 4.62 5.36a43 43 0 0 1 2.98 3.57q.68.38 2.47 2.22 1.8 1.82 3.61 3.54 1.82 1.72 2.17 2.27 4.13 4.8 8.02 9.4t7.84 9.07q-6.87 6-13.9 12.09a934 934 0 0 1-14.13 12.04 42 42 0 0 1-3.28-3.14q-2.4-2.45-4.81-5.03l-3.24-3.47a562 562 0 0 0-6.77 10.77q-4.3 6.97-8.8 15.02t-7.36 15.28q-2.82 7.23-2.66 11.79l-.03.11-.02.12a913 913 0 0 1 17.67 14.57q8.75 7.4 17.41 14.76.07-.46.5-1.39.45-.93.73-1.13 6.67-6.28 13.45-12.52 6.79-6.26 13.47-12.54 4.22 4.28 8.4 8.83 4.17 4.54 8.3 9.07a429 429 0 0 1-8.1 14.64 97 97 0 0 1-9.69 13.84 73 73 0 0 1-5.24 5.2q-3.91 3.65-8.75 8-4.8 4.35-8.77 8.16a112 112 0 0 1-5.43 4.98 6.5 6.5 0 0 1-2.8 1.72"/><path fill="#fff" d="M378.87 301.28q-1.38.5-2.84-1.01-3.75-2.7-7.2-5.72l-7.07-6.23a602 602 0 0 0-14.72-12.38q-7.41-6.02-15.05-11.95-6.75-5.5-12.44-11.95T308.1 239a18 18 0 0 1-4.65-12.63q.2-3.74 1.51-7.49t2.79-7.5a151 151 0 0 1 14.95-26.77 461 461 0 0 0 16.8-25.7q.37-.68 1.37-2.73 1.01-2.05 1.15-2.81.09-.45-.56-.97-.65-.51-.38-.69 1.8-1.41 3.68-2.83a108 108 0 0 1 3.9-2.79q.27-.19-.5-.7-.76-.54-.52-.74 6.88-6 13.99-11.93 7.13-5.91 14.01-11.9 1.42-.99 2.24-.1.9.67 3.14 3.36 2.26 2.67 4.63 5.36a43 43 0 0 1 2.97 3.57q.68.37 2.48 2.22 1.78 1.83 3.6 3.54a19 19 0 0 1 2.18 2.27q4.12 4.8 8.02 9.4t7.83 9.07q-6.87 6-13.9 12.09a934 934 0 0 1-14.13 12.04q-.87-.68-3.28-3.14-2.4-2.44-4.81-5.03l-3.23-3.47a562 562 0 0 0-6.77 10.77q-4.3 6.97-8.8 15.02t-7.36 15.28q-2.84 7.23-2.67 11.79l-.02.11-.03.12a913 913 0 0 1 17.67 14.57q8.75 7.4 17.42 14.77.06-.47.49-1.4.45-.93.73-1.13 6.67-6.28 13.45-12.52 6.8-6.25 13.47-12.54a337 337 0 0 1 8.4 8.83q4.17 4.54 8.3 9.07a429 429 0 0 1-8.09 14.65 97 97 0 0 1-9.7 13.84 73 73 0 0 1-5.23 5.2q-3.92 3.63-8.75 8-4.82 4.35-8.78 8.15a113 113 0 0 1-5.43 4.98 6.5 6.5 0 0 1-2.8 1.72"/></g><mask id="mask12_12_17" width="193" height="296" x="380" y="104" maskUnits="userSpaceOnUse" style="mask-type:luminance"><path fill="#fff" d="M572.25 104.3H380.5v294.74h191.75z"/></mask><g mask="url(#mask12_12_17)"><path fill="#000" d="M567.36 373.34q-5.27 5.89-10.34 11.69-5.05 5.8-10.3 11.71-.22.21-.64-.19-.86-.86-4.23-3.8-3.35-2.96-6.63-5.81a180 180 0 0 0-4.31-3.69 20 20 0 0 1-2.13-3.07 54 54 0 0 1-1.88-3.25 169 169 0 0 1-9.58-24.05q-3.9-12.45-5.57-25.3a133 133 0 0 1 .7-37.64 419 419 0 0 1 7.72-37 112 112 0 0 1-17.08 5.05q-2.53.43-5.17.63a60 60 0 0 0-5.14.64q-.63.21-1.37 1.28-.73 1.05-1.15.61a26 26 0 0 1-2.53-2.95q-2.74 2.74-5.59 5.48a369 369 0 0 1-5.78 5.48 1183 1183 0 0 1 3.77 25.74q0 .21.1 0 .12-.21.33 0 3.38 4 6.63 7.91l6.65 7.9q.4.63 0 1.27-.42 1.06-2.55 3.07a139 139 0 0 1-7.57 6.63q-4.42 3.6-8.85 7.28a568 568 0 0 0-8.84 7.48q-.85.64-1.7 1.16-.83.52-1.89.3a3 3 0 0 1-1.15-.72l-.95-.95q-1.06-1.49-4.22-5.08-3.17-3.56-6.11-7.25a48 48 0 0 1-3.78-5.17 82 82 0 0 1-2.12-9.16q-1.26-6.66-2.4-14.57a4894 4894 0 0 1-3.5-24.14 767 767 0 0 0-4.74-27.52q-2.62-13.8-5.57-27.32a234 234 0 0 0-6.53 5.5 265 265 0 0 1-6.54 5.48q-3.37-4.23-6.75-8.22l-6.72-8.03q.83-1.24 3.77-4.84l9.91-12.02q.43-.64 1.8-3.05a19 19 0 0 1 1.79-2.85q6.1-5.08 12.1-10.02 6.01-4.95 11.92-10.01.63-.64 1.46.19 1.05 1.06 4.01 4.65 2.94 3.6 6 7.06a58 58 0 0 1 3.9 4.75q.84 1.26 2.1 5.26 1.29 4.03 2.32 8.03 1.05 4 1.27 5.7 2.1 9.04 3.9 18.02 1.78 8.95 3.47 18.02l1.58-1.99 1.36-1.8q.64-.84 2.86-2.94 2.2-2.13 4.53-4.23 2.3-2.1 2.95-2.74 1.24-3.6 2.31-7.16 1.05-3.58 1.89-7.18 2.54-10.34 4.64-20.66 2.1-10.34 2.32-20.67 5.47-5.69 10.94-11.29 5.5-5.6 10.97-11.29a1049 1049 0 0 1 15.17 14.76q-.21 10.35-2.21 20.7a293 293 0 0 1-4.75 20.45q-.85 3.57-1.9 7.27t-2.74 7.06q-.19.21-.83 1.06-.63.84-.42.83a4044 4044 0 0 0 23.05-7.91q4.12-1.37 5.38-1.58.42-.44.84 0 3.6 4.02 6.85 7.9l6.63 7.92q.84.86.51 2-.3 1.17-.51 2.23a4678 4678 0 0 0-8.73 35.64 181 181 0 0 0-4.96 36.25q-.64 13.73 1.8 27.63 2.42 13.9 7.69 26.79.63 1.27 2.1 4.62 1.48 3.38 3.16 6.64 1.7 3.29 2.73 4.35 1.07.42 1.07 1.03"/><path fill="#fff" d="M549.4 354.06q-5.27 5.89-10.34 11.69a1390 1390 0 0 1-10.3 11.71q-.22.21-.64-.19-.86-.85-4.23-3.8-3.35-2.96-6.63-5.81a176 176 0 0 0-4.31-3.69 21 21 0 0 1-2.13-3.07 54 54 0 0 1-1.88-3.25 169 169 0 0 1-9.58-24.05q-3.9-12.45-5.57-25.3a133 133 0 0 1 .7-37.64 419 419 0 0 1 7.72-37 112 112 0 0 1-17.08 5.05q-2.52.43-5.17.63-2.61.22-5.14.64-.63.21-1.37 1.28-.73 1.05-1.15.61a26 26 0 0 1-2.53-2.95q-2.74 2.75-5.59 5.48a364 364 0 0 1-5.78 5.48 1190 1190 0 0 1 3.78 25.74q0 .21.09 0 .12-.21.33 0 3.38 4 6.63 7.91l6.65 7.9q.4.63 0 1.27-.42 1.06-2.55 3.07a137 137 0 0 1-7.57 6.63q-4.41 3.6-8.84 7.28a568 568 0 0 0-8.85 7.49q-.85.63-1.7 1.15-.83.52-1.89.3a3 3 0 0 1-1.15-.72l-.95-.95q-1.06-1.48-4.22-5.08-3.17-3.56-6.11-7.25a48 48 0 0 1-3.78-5.17 82 82 0 0 1-2.12-9.16q-1.26-6.66-2.4-14.57a4589 4589 0 0 1-3.5-24.14 762 762 0 0 0-4.74-27.52q-2.62-13.8-5.57-27.32a233 233 0 0 0-6.53 5.5 265 265 0 0 1-6.54 5.48q-3.38-4.22-6.75-8.22l-6.72-8.03q.83-1.24 3.78-4.84l9.9-12.02q.43-.64 1.8-3.05 1.35-2.43 1.8-2.85 6.1-5.08 12.1-10.02a812 812 0 0 0 11.9-10.01q.65-.64 1.47.19 1.05 1.06 4.01 4.65 2.94 3.6 6 7.06a58 58 0 0 1 3.91 4.75q.83 1.26 2.1 5.26 1.28 4.03 2.31 8.03a50 50 0 0 1 1.28 5.7q2.1 9.04 3.89 18.02 1.79 8.95 3.47 18.02l1.58-1.99 1.37-1.8q.63-.84 2.85-2.94a224 224 0 0 1 4.53-4.23q2.3-2.1 2.95-2.74 1.25-3.6 2.31-7.16 1.05-3.58 1.89-7.18a525 525 0 0 0 4.65-20.66q2.1-10.34 2.3-20.67 5.47-5.69 10.95-11.29 5.5-5.6 10.98-11.29a1048 1048 0 0 1 15.16 14.77q-.21 10.35-2.21 20.68a293 293 0 0 1-4.74 20.46q-.85 3.57-1.92 7.27-1.04 3.69-2.73 7.06-.19.21-.83 1.06-.63.84-.42.83a4028 4028 0 0 0 23.05-7.91 49 49 0 0 1 5.38-1.58q.42-.44.85 0a330 330 0 0 1 6.84 7.9l6.63 7.92q.84.86.51 2-.3 1.17-.51 2.23a4642 4642 0 0 0-8.73 35.64 181 181 0 0 0-4.96 36.25q-.64 13.73 1.8 27.63 2.42 13.9 7.69 26.78.63 1.29 2.1 4.63 1.48 3.38 3.16 6.64 1.7 3.29 2.74 4.35 1.06.41 1.06 1.04"/><path stroke="#000" d="M413.34 157.58v7.36"/></g><mask id="mask13_12_17" width="193" height="323" x="617" y="61" maskUnits="userSpaceOnUse" style="mask-type:luminance"><path fill="#fff" d="M809.3 61.97H617.56v321.96H809.3z"/></mask><g mask="url(#mask13_12_17)"><path fill="#000" d="M731.46 314.26q-1.68.36-6.84 1.84-5.16 1.49-10.15 2.8-4.98 1.28-6.84 1.34-.88-.18-1.06-.43a395 395 0 0 0-11.63-18.8q-.2-.25-.22-.59a1.3 1.3 0 0 0-.2-.63q-.39-6.1-.2-12.17.22-6.06.29-12.07a424 424 0 0 1 4-42.82 885 885 0 0 0 5.13-42.6 241 241 0 0 0-7.58 3.19 96 96 0 0 1-8 3.07 170 170 0 0 0-5.75-9.71q-3.07-4.8-6.02-9.54 7.15-4.53 14.28-8.98 7.14-4.43 14.48-8.69.33-.4 1.68-.8 1.34-.42 1.58-.6 1.27-.46 4.53-1.74a204 204 0 0 0 7.2-3.02q3.93-1.74 7.3-3.12 3.4-1.4 4.44-1.89 1.5-.6 2.1.9a666 666 0 0 1 11.4 18.96q.28.77.38 2.63l.11 2.78q-.55 13.04-2.2 26-1.6 12.96-3.32 26-1.68 13.74-3.11 27.52-1.42 13.8-1.96 27.78.75-.3 3.56-1.11l5.64-1.6q2.84-.81 3.54-.93a542 542 0 0 0 6 9.56q3.07 4.78 6.03 9.55a958 958 0 0 0-14.27 8.85z"/><path fill="#fff" d="M716.72 290.13q-1.69.36-6.85 1.84-5.14 1.5-10.14 2.79-4.98 1.29-6.84 1.35-.88-.18-1.06-.43a391 391 0 0 0-11.64-18.8q-.2-.25-.2-.59a1.3 1.3 0 0 0-.22-.64 129 129 0 0 1-.19-12.16q.22-6.06.28-12.07a423 423 0 0 1 4.01-42.82A885 885 0 0 0 689 166a242 242 0 0 0-7.57 3.19 96 96 0 0 1-8 3.07q-2.69-4.9-5.75-9.71a775 775 0 0 1-6.02-9.54q7.15-4.53 14.27-8.98 7.15-4.44 14.49-8.69.33-.4 1.68-.8 1.35-.42 1.57-.6 1.29-.46 4.54-1.74 3.27-1.3 7.2-3.02 3.93-1.75 7.3-3.12 3.4-1.4 4.44-1.89 1.5-.6 2.1.9a663 663 0 0 1 11.4 18.96q.27.76.37 2.63l.12 2.78q-.56 13.05-2.2 26-1.6 12.96-3.32 26-1.68 13.74-3.12 27.52-1.42 13.8-1.95 27.78.74-.3 3.56-1.11l5.64-1.61q2.82-.8 3.54-.92 2.91 4.77 5.99 9.56 3.09 4.78 6.04 9.54-7.11 4.33-14.27 8.86-7.18 4.53-14.32 9.07"/></g></svg>