<svg xmlns="http://www.w3.org/2000/svg" width="1920" height="1080"><path fill="#1a2024" d="M1464.4 182.8q11.1 9.7 20.6 21l5.3 5.7 1.8 2 3.6 3.8c4.3 4.5 4.3 4.5 4.3 6.7l1.8.2c3 1.1 3.5 3 5.2 5.8l4.8 6c7.6 9.6 17.2 25.1 17.2 38l4 1v4h-2l3.2 14.4 1 5 1.7 7 .4 2.2c1 4 1 4 3.8 6.9l1.9.5-1 2h-2v5q12.4-6.7 24.7-13.9l3.6-2 8.7-5.1v-7c3.9 1.8 3.9 1.8 5 4l1.8-1q7.7-4.6 15.5-9l12-7.3c15.8-9.7 32.8-15.7 50.2-22q14.3-5.2 28.3-11l3.5-1.4 2.9-1.2a39 39 0 0 1 32 .2 37 37 0 0 1 14.2 14.8l1.3 2.2 2.7 4.9 5.5 9.6 10.1 17.7 4.2 7.2 1.1 2 3 5c11.7 22.6 3.3 56.7.1 80.8l-.3 2.2-.7 5.8c-.7 6.7-.3 11.6 2.1 18l.7 1.9 1.8 4.6h4l2-3h4c-.3 2-.3 2-1 4l-3 1 .4 8.6v2.5c.3 4.6.9 8.5 2.6 12.9l4-1c.8 1.8.8 1.8 1 4-1.9 2.1-1.9 2.1-4 4l-1 2h3l1-2h2c.7 2.8.7 2.8 1 6-1.4 1.9-1.4 1.9-3 3l-2-1v-3h-2l1 5h-2l3 6h5l1-4 1 2h5v5l3.7-1c3.5-1 5.9-1.4 9.3 0 3.8 2.5 5.7 4 7.2 8.3-.3 4.9-2.1 8-5.2 11.7l-2 1-1 3a32 32 0 0 1-20.8-11c-1.2-2-1.2-2-1.2-5l-3 6h-2l-1 4h2v2l-2 1 .6 2.8c.4 2.9.3 4.5-.6 7.2l3 1c-.7 2-.7 2-2 4-2.6.8-2.6.8-5 1-1 3-1 5.8-1 9l-3 1v-2l-2 1 1.5 1.3c1.5 1.7 1.5 1.7 1.5 5.7l-2 .3-2 .7-1 3 2-1v3c1.4 1.7 1.4 1.7 3 3l-3.3 1-6.7 2v10l-4 1 1 5c-4 0-4 0-7-1v3h5c.6 1.8.6 1.8 1 4l-2 3c-4 0-4 0-7-1l2-3-3 1c-2 4.4-2 4.4-1 9l-3 2c-.6 3.1-.6 3.1-.7 6.6l-.2 3.6-.1 2.8 2.2-.4 3-.6 3-.6c5.2-.8 5.2-.8 7.8-.4 1.9 2.2 1.9 2.2 3.6 5.4l1 1.7 2 3.7 4.6 8 2.3 4q5.7 10.1 11.9 20l4.2 6.9 1 1.7 13.8 23.1 1.3 2.1 3.5 6 1.1 1.8q2.6 4.1 4.7 8.6l-5.1 3.2-1.7 1-12 7.1-3 1.8-6 3.4-2.8 1.6-2.6 1.5-1.8 1.4c0 3.4.6 4.3 2.5 7 2.5 3.8 2.5 3.8 2.5 6l-1.9 1a3179 3179 0 0 0-69.2 41l-5.3 3.1-15 9.3A50 50 0 0 1 1666 772l1 2q.3 5.4.2 10.9v8.7c-.2 2.6-.8 4.2-2.2 6.4-2.6 2-4.1 2-7.5 2-3.5-1-3.5-1-5.9-3.6a34 34 0 0 1-2.6-16.1V777l-2.2.5-10 2.4-3.5.9-3.3.8-3.1.7-7.9 1.7v25.3q.2 16.7-.4 33.3l-.2 2.6a141 141 0 0 1-1.4 13.8l-.2 4.2-.1 2.2-.2 4.5c-.2 4-.5 7.5-2.5 11.1-3 2-3 2-6.4 1.9-3.9-1-5.2-1.8-7.6-4.9-1-3-1.1-5.2-1.1-8.4v-3q0-4.5.6-9c2-22.8 1.5-45.2-.3-68l-.2-4.6-2.4-1.2-3.3-1.5-3.2-1.6a28 28 0 0 1-12-11.8l-1-1.7-3.1-5.2-3.5-5.8-2.5-4.2c-1.2 5.8-.7 10.4.4 16.2 2.4 13.6 2.9 27.2 3.2 41v2.7a725 725 0 0 1-.6 52.1l-.1 2.3-.7 14.1-.3 4.5-.3 6.2-.2 3.6c-.4 3.3-.4 3.3-2.4 9.3h-13c-2.3-4.7-2-8-1.7-13l.3-6 .2-3.4c1.3-26.6 1.2-52.7-1.2-79.3l-.1-2q-.7-10-3-19.7c-1.7-7-2.4-13.8-3-21l-.6-6.3q-1-9.7-.9-19.6a86 86 0 0 0-2-18.7l-1.5 1a508 508 0 0 1-53 29.7l-2 1a44 44 0 0 1-31.6 2.9 51 51 0 0 1-21.8-18.9q-3.7-4.7-7.6-9.2l-11.5-14-4.2-5c-13.7-16-17.2-34-20.5-54l-.5-2.8-.4-2.6c-.3-2.1-.3-2.1-1.4-4.1l-.6-8.1v-2.3l-.4-5.6-5-1c-5.7 6-5.7 6-10 13 .2 2.3.2 2.3 1 4-3 2-3 2-5.9 2.8a18 18 0 0 0-8 6.4l-3 3.3-1.5 1.7-8.4 8.7-1.8 1.8-5.7 5.7-4 4-10.5 10.5-10.7 10.7-17.3 17.2-6.4 6.4c-1.8 1.8-1.8 1.8-4.8 3.8a98 98 0 0 0 13.5 24.1c5 6.3 5.5 14.2 5.2 22-1.2 6.5-5 9.6-9.7 13.9l-4.7 5.3-6 6.4c-2.4 2.6-3.3 4-3.6 7.6-1 4.8-3 6.8-6.3 10.1l-3.3 3.5-1.6 1.6q-2.7 2.7-5.2 5.7-3.7 4.4-7.7 8.6a231 231 0 0 0-8.9 10.5q-6.2 7.6-13.1 14.8-3.8 3.9-7.2 8.1a23 23 0 0 1-6.5 5.6l-2 1.2a33 33 0 0 1-21.3 1.5c-8-3-14.4-9.9-20.6-15.5l-2.7-2.5-4.9-4.3-8-6.8-5.4-4.4-1.9-1.6c-33.8-30.5-48.7-100.3-53.1-143.4a100 100 0 0 1 0-11l-18.6 15.4-1.9 1.6c-3.2 2.6-3.2 2.6-5.5 6v7.6l.2 5.9a36 36 0 0 1-3.2 17.5 16 16 0 0 1-10.2 5.4c-3.7-.4-6-1-8.7-3.5-2.4-4.1-1.6-9.3-1.1-13.9l1-2-2 1.8c-11.6 9.5-21 16.9-36.5 16.4q-4.4-.4-8.5-2.2v2l-4-1v-3c-1.8-2-1.8-2-4-3.7l-2.2-1.9-1.8-1.4-2 2q-2.2 2.4-4.8 4.3a31 31 0 0 0-10.1 13.5q-10 21.1-31.8 29.6-3.6.9-7.3.6l-.1 2c-.9 9.9-.9 9.9-2.9 13-2.4 1-2.4 1-5 1-3.7-2.7-4.5-5.2-5.2-9.6l-.6-4c-.3-2.3-.3-2.3-1.2-5.4-2-1.5-2-1.5-4-2l-1.6 1.6c-6.2 5.7-13 11.9-22 11.7-5.7-1-9.6-5.1-13.4-9.3l-1-2c-4.2 1.6-6.4 4.7-9.1 8.1-6 7.4-14.3 17-24.3 18.2-5 .2-8.8.2-12.6-3.3-3-4.5-3.5-7.7-3-13 2.2-10.4 2.2-10.4 4-14h-3v-3h3l12-40h-3l-.9 1.8-2.2 4a17 17 0 0 0-.8 8.1c-.1 3.3-1 6-2.1 9.1l-3 2-2 3-1-3h-2l-2-2-1.2 1.8c-8 12-18.9 24-33.6 27.1q-4.4 0-8.8-.8c-4.5-.5-4.5-.5-8.5 1.4L769 789a32 32 0 0 1-21.6 11.3c-5.1-2-8.5-5.5-12.4-9.3l-1.8-1.8-1.2-1.2-2.1 2.6c-15.3 18.3-15.3 18.3-25.9 23.4l-2 1c-4.2.4-8 .4-11.9-1.1a15 15 0 0 1-5.3-10q0-3.8.2-7.4v-2.8l.4-8.6.3-8.7.2-5.4q.3-7-.9-14c.3-3 .3-3 1-5.8.7-3.6.7-3.6 1-7.2l-1.1 1.4c-2.5 2.1-4.7 2.2-7.9 2.6-2-6.5-2-6.5-1.8-9.6-.3-3.4-2-5-4.5-7.3-1.8-1.4-1.8-1.4-4.6-1l-2.1.9v-3l-2-2.5c-2.2-3-2-5-1.6-8.8 0-3.4 0-5-2-7.8q-3.4-2.9-7-5.2l-5-3.4-2.3-1.7c-3-2.2-5-4.6-7.1-7.6v-2l-6-1 1-3 1 2c0-3.7-1.3-5.8-3-9v6h-2l-1 2h-7q-1.3 5.8-1.6 11.7c-.4 2.3-.4 2.3-2.4 5.3l-2 1c-2.2.8-2.2.8-2.8 3.1l-.2 1.9h-2c-3.5-4-5.3-6.4-5.2-11.8l.1-2.3c.3-2 .3-2-.9-3.9h-2v-2h2v-5l-1 1.6c-10.2 17.2-10.2 17.2-16 22.3a59 59 0 0 0-11.1 15.2c-11.6 20-11.6 20-23.3 23.6-31.7 3-63.7-21.1-88.6-37.7l-5.7.6-7.6 1-2.7.2-2 .2 1.5 13.4.6 4.5A64 64 0 0 0 456 761v7l.5 2.4c1.6 8.2.4 17.2-.2 25.5l-.2 3c-.3 4.8-.6 7.4-3.4 11.3-2.7 1.8-2.7 1.8-6.5 1.6l-3.2-.8q-4.4-13-8-26a16 16 0 0 0-7 6 16 16 0 0 1-4-13l-.7-2c-.5-3.5 1.8-6 3.7-9 4.8 1.9 4.8 1.9 7 3v-20.4c.1-9 .2-17.7-1-26.6l-4 2-3-2 1-5 3-1c1.2-2 1.2-2 2-4h2l-1-6h-3l-1 5-3-1-1 2-5 1-1 3c-3.4-3.6-3-6.2-3-11l-2-2h-2v-2l-4-1 1 4h4v3l-6-1 1.4 2.3c2.6 4.3 3.2 7.7 2.6 12.7-3 3.8-3 3.8-6 5a32 32 0 0 1-7-.8l-2-.2-2 2h-4v3h-2v-3l-4 1-1-4-5-1-1-4-1.8 1c-2.2 1-2.2 1-5.2 2-1.2 2.5-1.2 2.5-2 5l2 1v3h-7l-1 2h-2v-3c-2.2 1-2.2 1-5 3-2.5.8-2.5.8-5 1l-3-2c-2-.5-2-.5-4.2-.6l-3.8-.4-1-5-3.2 2c-3.1 1.9-4 2-7.8 2v4l2 1 1-2h2l1 3-4 2v3h4l-.5 1.8c-.8 3.5-.4 5.7 1 9q2 5.4 2.5 11.2l.2 2c.3 5.5-1 8.5-4.2 13-3 2-3 2-6 2v2.3c0 2.7 0 2.7-.6 4.6-.6 2.2-.6 2.2.5 4.7q1.6 5.5 2 11l.1 2.3.6 7.1.2 2.4q1.4 14.6 1.5 29.4v2.5c0 5.2-1 9.7-2.3 14.7l1 1v12.2c-.1 8.6 0 16.8 1.7 25.3.3 2.5.3 2.5-.7 6.5h-11a22 22 0 0 1-2-11.4l.1-3.7.2-3.9.2-3.8q.3-10.8 1.6-21.4c-.1-3.4-1.3-5-3.1-7.8-3-10.6-2.5-22.3-2.7-33.2l-.2-9.5-.1-6-.1-2.8c-.1-7.4.6-12.5 5.1-18.5-1.2-3.7-2.6-4.3-5.8-6.4-9-6.2-11.6-13.1-13.8-23.5l-1-4.2c-.4-1.9-.4-1.9.6-3.9l.6-5.6.2-3 .2-2.4-5-2v3c-4-1-5.7-1.7-8.4-4.9-1.6-3.1-1.6-3.1-1.3-5.4l.7-1.7-1-2-4 1v3l-6 1v-2l-2 1 1 4h-2v2c-2.7 1.4-5 1-8 1l.4 2.8 1.3 10.6.6 4.5c1.7 13.3 2.3 25.8.2 39a88 88 0 0 0 1.1 36.8c.4 3.3.4 3.3-.9 6.2L264 836h-2l.9 2.6c2 6 3.4 11.4 3.7 17.8v2l.4 6.5c.4 8.5.9 16.7 3 25.1.5 4.4.8 7.7-1.6 11.5a15 15 0 0 1-8.4 2.5c-3.3-.8-4.1-2.1-6.1-5-2.7-4.7-2.2-9-1.7-14.3l.2-2.7q.5-8 1.4-15.7c1.2-12.9.4-27.9-3.4-40.2a47 47 0 0 1 .1-25.5c2.2-10 1.7-20 1.5-30l-.2-10-.2-6.3v-3a60 60 0 0 0-3-16.8c-.6-2.6-.7-4.8-.6-7.5h-2v-6l2-1c.7-2 .7-2 1-4h-2l-1 3-2-3h-2l2 1v3l-4-1c-1-2.8-1-3.9 0-6.7l1-2.3h-2c-.7-1.6-.7-1.6-1-4 1.4-3.2 1.4-3.2 3-6-1.2 1.1-1.2 1.1-2.4 3.6L237 706h-2v-2h-2l1 4h-3v-2h-2l1 4h-4l1-4-2-1v-3l-2 1c-3.1-4.2-4.8-8-6.3-13-.7-2.3-.7-2.3-2.7-5v-2l-1.7.4-6.3 1.6 1-4-5-1 1-5h2l.3-2 .7-2 3-1-4-8h7v-5l-3 4-5-1 1-3h2v-2h-3v2l-5 2 .5-1.8c.7-3.2.5-5.1-.5-8.2v5h-3v-2h-6l-1 3-2 1-2 7c-1 1-1 1-3.4 1.1h-6c-2.6-.1-2.6-.1-4.6-1.1l1-5h3v-3l-7-1v-6l2-1v2h8l-3-2 1-3 3-1 1-5 3 1c-.4-3.3-.6-4.7-3.1-7-1.9-2-1.9-2-1.8-5 .9-3 1.6-4.2 3.9-6-4 .2-4 .2-8 1-2 2.4-2 2.4-3 5h-2c-2.2-7.4-2.2-7.4-1.1-10.5l1.1-1.5-5-1-1 2-4.2.1h-2.4c-2.7-.1-4.2-.7-6.4-2.1-.7-2.6-.7-2.6-1-5h-5v-3l6 1 1-6h4l2 3 5-2v-3h9l-1-2-1.7.6c-2.7.5-4.6 0-7.3-.6-1.1-3.3-.8-5.6 0-9h-2l1-4-4-2 1-2h-2v3c-2.6 1.6-2.6 1.6-6 3-3.4-.8-3.4-.8-6-2l-1-9c5.6-2 5.6-2 9-2l3 2c3 .3 3 .3 4.7-1.5l1.3-1.5-2-.7c-2-1.3-2-1.3-2.7-3.4l-.3-1.9-3 1v-2c-6-1-6-1-12 0l1-4-3.4-.3-3.6-.7c-2-3-2-3-1.6-5.2l.6-1.8c1.8-.7 1.8-.7 4-1a16 16 0 0 1 4 3l1-3 3-2c-.6-5.3-.6-5.3-3-10h2l-.7-1.6c-.3-2.4-.3-2.4 1.4-5.6 2.3-2.8 2.3-2.8 4.6-3.7l1.7-.1-3.3-.4c-3.7-.6-3.7-.6-6.7-1.6l.6-2 .4-2-1-1q.6-5.6 2-11v-2h4v4h4v-3h-2c1-2 1-2 3-3l-1-2c0-3 0-3 1-5l-3.2 1.6c-3.3 1.4-5.4 1.8-8.8.4-2.2-3.3-2.7-4.2-2-8 1.9-2 3.8-3.4 6-5v2l6 2v4l2 1-.6-3.7c-.5-3.6-.2-6 1.6-9.3l2 4 8-3-3-1v-4l-3 3-2-2c.4-2.1.4-2.1 1-4l-3-.4-3-.6c-1.4-2.8-1.2-5-1-8 2-2 2-2 4.6-2.1l2.4.1v-2h3l2 10 2-3h4l2 2c2.6-.3 2.6-.3 5-1l-2-.3-2-.7-1-3-7 2-2-3h3v-3l6 .9c2.2.2 2.2.2 5-.9l-2-1 1-7-5-1c-.7-1.8-.7-1.8-1-4 1.4-1.7 1.4-1.7 3-3 5.9 1.9 5.9 1.9 7 3l2-4 2 1 2-2h-5v-2l-4 1v2h-2a26 26 0 0 1-1.2-8.3c-.5-5.5-1.8-8-5.8-11.7l-.9 2.4C163 433 163 433 161 435l-1 3h-3l.6-1.7c.5-2.9-.3-3.8-1.6-6.3l-1-6 4-1 1 2 1-1-1.3-1.2-1.7-1.7-1.7-1.6C155 418 155 418 155 416l-3-1v-4l2-1c.8-2 .8-2 1.4-4.4 1-3 1.4-4.4 3.8-6.7l1.8-.9c-1.6-3.8-4-6.1-7-9-3.4-3.9-3.9-6.8-3.7-11.8 3.1-13.7 19-26.6 28.6-36.1q3.9-4 7.5-8.3 3-3.6 6.6-6.8h2l.7-1.7c1.7-3 3.8-4.8 6.4-7q7.1-6.4 13.8-13.2l1.6-1.6 6.3-6.5c16.6-17 16.6-17 28.2-18 11.3-.1 18.7 5 26.6 12.7l3.4 3.3 2 2q10.1 9.7 19.5 20.2c4.3 5.4 4.3 5.4 10.5 7.8v7l2-1-.6-3.4-.4-3.6c2-2 2-2 4.5-2.1l2.5.1c2.6 0 3.2-.9 5.2-2.6l1.9-1.6 2-1.7 2-1.7c3.4-2.8 3.4-2.8 5.9-6.4l5-3 4.6-4.1a216 216 0 0 1 10.8-9.3q6-5 11.7-10.3c8.1-7.5 16.2-13.9 27.6-14.4 8 .3 15.8 3 21.3 9.1l2-4h4l-.5 2c-1 5.1-1 5.1.7 10l5.8 5 3.2 3.6 1.7 2 2.1 2.4 2.9 3.3c13.5 15.4 13.5 15.4 16.1 22.4.8 2.5.8 2.5 3 3.3l.5 4.6q.6 6.8 2.5 13.4l1.9-.6c2.1-.4 2.1-.4 4.1.6v5l-2 2h-3l8 34h2v2l2.8.4c3.2.6 3.2.6 6.2 1.6 7-8.5 7-8.5 9-19h3v-2l3-1 2 1 .8-2.2a39 39 0 0 1 4-7.2l1.6-2.4 1.7-2.5 1.7-2.5 4.2-6.2c-1.2-2.5-2-4-4-6v-6c1.7-.7 1.7-.7 4-1a15 15 0 0 1 6 6c5-5.5 9-11.4 13.1-17.6a85 85 0 0 1 52.8-37c10-1.8 20.4-1.9 29.1 3.6l3.5 2q10.2 6 19.7 12.9l8 5.8c15.8 11.1 15.8 11.1 20.4 16 1.5 1.6 1.5 1.6 4.4 2.3l2.2 5q2 4.5 4.6 8.8l3.2 5.4 7 12.8 5-3c1 1 1 1 1 3.6v2.4l-4 1 1.1 2.4 7.6 16.4 1.7 3.7 4.3 9.3 1.6 3.6 1.4 3.2c1 2.5 1 2.5 3.3 3.4l1.4 4 .8 2.4.8 2.6 1.7 5 1.3 4h7l.3-1.9c.7-2.1.7-2.1 3.7-4.1h3l-1 6 2 1 1-3c.6 2.8 1 5.2 1 8a22 22 0 0 0 7.1-15.2l-.1-4.4c0-6.8 2.3-14.7 6-20.4l2-.8c2.8-1.7 3.2-3.4 4.5-6.4 3.5-7.5 8.6-13.1 14.1-19.2q2.8-3.2 5.4-6.5l1.5-1.8a45 45 0 0 0 3.3-6c2.2-4.6 5.1-8.3 8.4-12.1l1.7-2.1 8-9.4 2.3-2.9 2.2-2.5c1.7-2.5 2.2-4.3 2.6-7.3.7-2.2.7-2.2 2-4l2.2-.2c3.9-1.1 5.7-3.6 8.2-6.6l1.4-1.5c2.7-3.3 2.7-3.3 3-7.4l-.8-2.3v-7l4-1 3 5 2.8-2.7a34 34 0 0 1 24-7.9c12.6 2.3 22 11.2 31.5 19.2q5.6 4.4 11.7 8.4l8.6 6 2.2 1.6q7.8 5.4 15.2 11.4c4.1-1.7 7.2-4.6 10.6-7.6l3.7-3.2 2-1.7q4.9-4.2 10-8.2l7.4-6.3c26.8-22.9 26.8-22.9 41.2-22.4 16.4 2 28.1 19.5 37.8 31.6l5 5.9A89 89 0 0 1 1060 345c1.2-3 1.2-3 .5-6.2a25 25 0 0 1 1.5-13.8q6.7-8 14.8-14.8l1.6-1.4 4.4-3.8c2.4-3.2 2.4-4 2.5-7.8.4-6.4 3.7-9.3 8.2-13.6l2.3-2.2 7.3-7 7.3-7 4.5-4.4a169 169 0 0 0 11.4-12q4.4-4.9 9.1-9.5l2-2 6.5-6.4 8.5-8.4 2-2 1.8-1.8 1.5-1.5c1.4-1.4 1.4-1.4 2.3-3.4 4.1 1.6 6.8 4.6 9.7 7.7q4.9 5 10 9.5 8 7.2 15.4 14.9a223 223 0 0 0 14.8 14.3q3.8 3.1 6.8 6.9c2.1 2.4 3.6 3.9 6.3 5.7q.5 3.6.3 7.2v2.3c-.7 27.5-5.8 54.6-11.3 81.5l4-1 1 4-1 1 3-1-1-6c2.7-1.4 5-1.1 8-1l2 1v5l6-1q3.8-11.7 6.6-23.8l.6-2.9a248 248 0 0 0 3-15c2-13 7.6-20.3 17.8-28.3l3-2c7.6-5.2 11-9.5 14.4-17.8 1.8-3.5 3.7-5.6 6.6-8.2l2-1.9q7.1-6.3 14.8-12.1a436 436 0 0 0 28.2-23l2.3-2q8-7.1 15.3-14.7 4-3.8 8.3-7.4 3.8-3.5 7.4-7.3c13.7-13.9 29.1-19.7 47.7-24.1l4.7-1.3c15.8-4 34.5-2.4 47.7 7.6M1210 369l1 2 1-2zm-484 53v2h-2c-2.3 2.8-2.3 2.8-2 6h2l1 3h2l6 1 1 2v-8l-1 3h-3v-2l-2-1-1-6zm5 15 1 3Zm1060 31v2h2v-2zm-1609 2 1 3 3-2zm1612 1-1 3 4-2zm-1620 4h3l1 2 1-4c-2.3-.2-2.3-.2-5 2m-13 1 2 1 1 3 1-3zm1 4 1 2Zm6 13v3h3zm6 0 1 4v-2h2v-2zm-8 4v5l2 1-1-6zm3 7 2 4 1-3zm-9 1 1 3Zm15 1v3l2-3zm-14 2 1 3 1-3zm18 1 1 3 1-3zm-25 3-1 4h2v4l5-1-3-5h-2zm11 1-1 3h2zm-3 5-4 3h6zm5 1 1 4Zm-5 4 1 2 1-2zm-18 1v2l3-1zm5 0 1 2h2v-2zm18 0 1 2Zm-6 4-2 6 7 1v-2h2l1-5-4 1v3l-3 1v-5zm-4 1-2 2h3zm-2 7v8l2-3 3-1-3 7h3c3.3-4 3.3-4 3.8-8.9l-.8-2.1-1 3-5-1v-2zm12 0-2 2h3l1-2zm1590 3v2l3-1zm-1612 2v2l2-1zm4 2c-1 3-1 5 0 8l2-3c2.6-.2 2.6-.2 5 0-.6-2-.6-2-2-4-2.6-.8-2.6-.8-5-1m13 5 1 2Zm-7 1v2l-1.9-.6-2.1-.4-2 2c1.8 2.2 1.8 2.2 4 2l2-.2 2.2-.3 1.8-.5 1-2zm11 2-2 4 4-1-1-3zm5 4 1 3 2-3zm-13 1v5h2l1-3-1-2zm4 1-1 6h2l1-6zm4 1 1 2Zm7 1v3l4 1v-2zm-5 2v6h2l1-6zm-12 2-1 2h2zm7 0v2l2-1zm10 1-1 2 3-1zm6 3-1 2 3-1zm-9 1v2l3-1zm-7 1-1 3 1 2 5-1v-2h-4zm1 6-1 3 3 1-1-4zm5 2 1 2Zm-7 1 1 2Zm8 1 1 4h-2l1 6-2 1c3 .2 3 .2 5-1l-1-4h2l-1-5zm-7 1 1 4 3-2zm14 3 1 2Zm-14 3c.4 4.3.4 4.3 2.6 7.9l1.4 1.1 2-1-1-2-2-4h-2zm6 17 1 3Zm4 0v2l2-1zm2 3c-.8 1.8-.8 1.8-1 4 1.4 1.8 1.4 1.8 3 3l-1-7zm11 0-1 5h4l-2-5zm-25 2-1 5 2-3zm2 1 2 4 1-4zm19 3 1 2 1-2zm-11 2v3l2-3zm29 0 1 3 3-1v-2zm-2 3v3Zm-29 1v2l2-1zm22 0 1 2Zm-3 2-2 2 3 1zm9 2-1 2 2 2 1-2zm-7 6v2h2v-2zm8 1 1 3 1-3zm-11 3-2 2 2 5 3-2-2-5zm7 1 1 2Zm7 2-1 3h5v-2zm-8 1v2l2-1zm-3 2c-1.3 1-1.3 1-1 3.6v2.4l2-1v-4l2-1zm-8 2v3h2l-1-3zm16 1v2h-6l4 4 4-5zm-18 3 1 2 1-2zm-3 7v3l3-2zm34 15-1 3 4 2-2-5zm4 2v3l4-1v-2zm6 0-1 4 1-2 5 1-1-3zm404 0-1 3h2l1-3zm-402 6-1 5h-2v3h-2c.2 2 .2 2 1 4 2 1.3 2 1.3 4 2-.6-4.1-.6-4.1-2-8h2l1-6zm3 4 1 2Zm380 1 1 3Zm-389 1-1 2h2zm8 6v3h8c-2.6-2.6-4.5-2.5-8-3m9 4 1 2 1-2zm147 2 1 2 1-2zm7 0 1 2Zm-149 2v3Zm-7 2 1 2Zm150 0-1 2h2zm-133 1 1 2Zm168 0-2 2v3h4l1 3v-5l2 1 1 5 4-1-1-2-2 1 1-3-5-3-1 2zm-189 2 1 3Zm4 1 1 2Zm15 1 3 3v-3zm126 1 1 2Zm8 0 1 4 1-3zm25-1-2 1 1 3 2-1zm-38 4 2 2v-2zm-122 1-1 3 1 2h-2v2h4l1-7zm126 0 1 2Zm4 0 1 4 2-2zm-110 2-2 2 1 3v-2l4-2zm110 5v3l-3-1-1 3h7l-1-3 2-1v-2c-2-.1-2-.1-4 1m-111 0-1 5 4-3 3 2 2-2c-3-1.8-4.2-2-8-2m95 1v2l-5 1v2l7-2zm-10 1 1 2Zm83 1 1 3Zm-69 1 1 3 1-3zm-97 2v2l-3 1 3 2-1 2 4-1-1-6zm6 0-1 4 4-1zm93 0 1 2Zm2 0-1 3h2zm-16 1-1 4h3v-4zm-89 2-1 3h2zm85 0-1 2 3-1zm-87 3v4h2zm95 0 1 3Zm-15 1v4l3 1-1-5zm4 0v3Zm-16 2-1 2h2zm366 15 2 10c2-3 2.5-4.7 3.1-8.2l.5-2.7.4-2.1c-2.2 0-4.2 1.9-6 3"/><path fill="#e8e8e8" d="M1161 254c2.8 1.3 4.9 2.6 7 4.9l1.8 1.7 1.9 1.9 1.9 2 6 6 6 6.2 3.9 3.8c3 3.1 3 3.1 6.5 5.5.9 37.4-6.8 97.2-28 129l3.4-1.2 4.8-1.6 2.6-.9 22.5-7.7 15-5.1 5.5-2 2.5-.8c3.6-1.3 6-2 9.7-.7 2 1.9 2 1.9 4.2 4.4l2.4 2.7 9 11 5.7 6.2c8.1 8.3 8.1 8.3 9.5 13.8q-.2 5.5-1.8 10.9l-.7 2.8-4.4 16.4c-13.8 49-25.2 99.7-25 150.7v2.4c0 11.4.2 22.5 2.1 33.7l.9 5.6A337 337 0 0 0 1269 755l1 2.3c1 2 1 2 4 2.7a31 31 0 0 1-6.7 9.3q-1.4 1.4-2.7 3l-2.6 2.7-9.7 11.2q-8.5 9.9-17.2 19.4l-7.1 8.4a29 29 0 0 1-8.6-6 210 210 0 0 0-10.7-9.3l-5.7-4.7-1.6-1.3A72 72 0 0 1 1181 766l-1.1-2.3A354 354 0 0 1 1151 673l-1-5q-3-15.6-3.2-31.6v-2.7a394 394 0 0 1 3.2-60.7l.6-4q4.7-30.3 12.1-60.2l.7-2.7 1.2-5.1a37 37 0 0 0 1.4-9l-3.2 1.1c-16.4 5.8-33 10.2-50.5 11-4.8.4-4.8.4-8.9 3l-1.4 1.9c-3.2-1.4-4-2-6-5a27 27 0 0 0-8 5.5l-2.1 2.1-2.3 2.2-2.3 2.2-4.4 4.2c-1.9 1.8-1.9 1.8-5 4.2-2.1 2.9-2.2 3.4-1.9 6.7l1 5 .9 5.6.5 3 2.8 17.5.5 3.4q1.5 9.6 1.3 19.4l1.9.9c7 3.6 12.1 12.3 16.9 18.4l5.2 6 1.5 1.8 3 3.3c3.5 4 3.5 4 3.5 7.3-2.9 6.8-9.2 11.2-14.8 15.7q-5.5 4.5-10.8 9.2-7.2 6.3-14.8 12.3l-9.7 8.2c-13.8 12-13.8 12-18.9 13.9a10 10 0 0 1-7-3.8l-1.5-1.7-1.7-1.9-1.7-1.9a304 304 0 0 1-11.9-14l-4.8-5.8-1.4-1.6-3.7-4.4c-9.9-12.7-11-29-13-44.6a397 397 0 0 0-3.4-21q-2.8-17.2-4.6-34.5-.5-4.5-1.3-8.8l-.7 2.4q-4.1 12.8-9.7 24.9l-1.3 3q-6.2 13.4-15.2 25l-2.3 3.1-2.8 3.6-7.7 10-2 2.8-15.8 21.2c-5.6 7.6-5.6 7.6-8.5 10-6.9 0-11-3.1-15.9-7.6-3-2.6-3-2.6-6.7-3.2a46 46 0 0 1-14-6.6l-5.7-3.3-2.9-1.6-13-7.6-2.6-1.4q-15.4-8.8-31-17l-6.8-3.7-1.8-1-4.9-2.7c-2.7-1.5-2.7-1.5-5.7-1.3-1.6 1.6-1.6 1.6-3 3.7l-1.9 2.5-2 2.7-4 5.5-2 2.8q-8 10.5-16.1 20.8l-1.3 1.7a205 205 0 0 1-13.5 15.5l-2.7 2.9c-2.5 1.9-2.5 1.9-4.5 1.7l-2-.8c-16.2-1.4-28 6.5-40.2 16.5L712 664a42 42 0 0 1-7.6-4.6l-2-1.5-2.2-1.7-2-1.5-4.1-3.1-4.3-3.1c-4-3-6.8-5.2-9-10l-1.4-3.1a907 907 0 0 1-19.8-52.4l-.8-2.4A1979 1979 0 0 1 645 540a53 53 0 0 0-8.8 11.3c-13.7 20.7-37.2 34.3-60.3 43-2.8 2.5-2.6 5.1-2.8 8.8l-.1 1.9 1.8 1.2c14.3 9 14.3 9 17.2 11l6.2 3.7 3 1.9 2.8 1.6 2 1.6c0 9.7-11.5 22.6-16.6 30.6l-13 20.8-3.4 5.6-1.6 2.5-1.4 1.5c-19 0-36.8-13.3-52-23.4a184 184 0 0 0-14-8.5 54 54 0 0 1-6.5-4.3l-2-1.5C494 648 494 648 493 646l-.1-7.5v-2.3q.1-12.6 1.1-25.2l-2.3 2.4q-7.4 7.6-15.5 14.7-3.6 3-7 6.4c-16 15-16 15-25.5 17.3-6.1-1.3-8.8-6.1-12.7-10.8l-6.1-6.6q-6.6-7-12.9-14.4l-2.5-2.6c-3.2-3.9-4-8-5-12.9l-.6-2.9q-2.8-14-4.9-28-3.2-18.9-8.2-37.4l-3.2-13.5-1-4-.6-2.7a43 43 0 0 0-11.7 3.3l-3.2 1.3-3.2 1.4-6.5 2.8-2.8 1.2q-3.2 1.3-6.6 2l.5 1.8a1687 1687 0 0 1 10.9 39.9l.5 2 1.5 5.8.9 3.4c2.8 12 2.5 21.2-4 32l-3.6 5.5c-1.8 2.6-1.8 2.6-3 5.4a46 46 0 0 1-9 11.1l-1.9 2-11.4 11.7c-1.5 1.4-1.5 1.4-2.4 3.4h-2l-.8 1.8a22 22 0 0 1-4.5 5.7l-2 1.9-2 2q-6.8 6.4-12.7 13.6c-3-1.3-5-2.7-7.2-5l-1.7-1.8-1.9-1.9c-5.6-5.7-5.6-5.7-11.5-11.1l-8.7-7.8-2.3-2.2c-1.7-2.2-1.7-2.2-2.2-4.6.7-3.5 2.3-5.8 4.3-8.8 6-9.4 10-17.3 7.6-28.7l-2.6-9.5-2-6.9-.9-3.4-3.8-14.3-.7-2.4c-1.4-5.4-1.4-5.4-1.4-7.6a87 87 0 0 0-20.9 10c-2.1 1-2.1 1-4 .7a13 13 0 0 1-5.3-3.4l-1.7-1.7-1.8-1.7-3.8-3.6-1.9-1.7q-3.7-3.6-7.6-6.9L213 542c.6-3.4 1.7-5.1 4.1-7.6l2-2 2-2.1 4-4.2 2-2 5.4-6.1 7.5-8 2-2.1 4-4c3.8-4 3.8-4 5.6-8.8q-1.3-6.2-3.6-12.1l-1.5-4.5-1.7-4.7-.9-2.6-8-22.3-5.7-16.1a205 205 0 0 0-5.3-14.5q-2.2-5.6-3.9-11.3l-5 4c-4.2-1.6-6.9-4.7-10-7.8l-1.5-1.6-3-3.1-9.9-9.7-3.5-3.4-1.8-1.7c-1.7-1.6-1.7-1.6-4.3-4.7.4-4 2.3-5.6 5.1-8.2q4.2-4 8-8.3 7-8 14.7-15.4l5-5q7.3-7.5 15.2-14.3 6.7-6.1 13-12.7l3-3 7-7.1c3.2 1.5 5.3 3 7.8 5.6l2 2 3.7 4.2q4.4 5.2 9.5 9.6c13.8 11.5 18 25 22.8 41.6q2.6 8.6 5.7 17l2.2 6.3 1.1 3.3 7.4 21.4 13.8 40c4.6-.6 8.5-1.9 12.8-3.7l1.8-.8 6-2.5 5.9-2.5 5.4-2.3a39 39 0 0 1 8.1-2.2 340 340 0 0 0-6-32l-1.7-7-.7-3.1q-.8-3.9-.6-7.9l-1.6 1.1-2.2 1.5-2.2 1.4c-2 1-2 1-5 0l-3.3-4.4q-5.8-8.2-12-16l-1.8-2.3-1.7-2.3-1.7-2-4-4.8C323 362 323 362 323 360c1.2-2.3 2.6-3.6 4.6-5.3l2.2-1.8 2.2-1.8 3.8-3.1 1.6-1.3c1.7-1.7 1.7-1.7 3.5-4a47 47 0 0 1 7.2-6.9q5.7-4.4 10.9-9.2a216 216 0 0 1 10.3-8.8q7.1-6 14-12.3 7-6.6 14.7-12.4c3.5 1.5 5.5 3.4 8 6.2l2.4 2.8 10.1 11.8q4.5 5.4 9.5 10.4c7.8 8.7 8.9 19.7 10.9 30.8l4 19.5.8 3.4 3.8 16.3.7 3 1.3 5.3c1 3.9 1.8 7.4 1.5 11.5l1.6-.4 7.4-1.6 2.4-.6c3-.5 4.7-.4 7.6.6a86 86 0 0 1 10.5 12l6 7.6 4 5.3 6.2 7.2c2.3 2.9 2.3 2.9 2.3 4.8-1.5 3.2-4.2 5.1-7 7.3l-1.7 1.5-5.3 4.3-2.8 2.3q-8 6.4-16.2 12.7 2.3 14.4 6.2 28.5a364 364 0 0 1 5.6 25.1c4 23.2 4 23.2 19.2 40.4 2-2 1.4-6.1 1.6-9l.3-5.2.2-2.9a2461 2461 0 0 1 3.2-46.5l.1-2.1 1.7-21.1c2.3-27.2 2.3-27.2 2.8-54.4v-7.6l-.1-5.2c-.3-11.9 1.1-19.2 9.4-28l1.4-1.6q3.2-3.3 6-7l2.3-2.7a262 262 0 0 0 17.2-24l3.3-5.2 5-7.8a60 60 0 0 1 25.6-25.7l1.9-1c13.6-6.6 13.6-6.6 21.1-6a51 51 0 0 1 12.6 7.2l10.4 7.3c29.2 20.2 41 42.9 55.2 75.1q3.6 8.3 7.7 16.2 5.9 11.8 11 24l5.7 12q2.3 5.2 4.3 10.5l3.2 7.9a1211 1211 0 0 1 28.7 79c3 9 6 18 9.2 26.8l13.4-11.9 1.7-1.5 3.9-3.6-7-7a34 34 0 0 1-12.4-25.5c-.2-13.9 2.7-26.3 6.4-39.5l1.2-4.5c6.1-23.2 17.1-45.4 26.6-67.4l4.3-10 2.5-5.8a76 76 0 0 0 5.2-16l.7-3.7.5-2.6h-2c2-4.7 5.5-7.4 9.2-10.7l1.8-2.3-.6-2.4c-.4-2.6-.4-2.6 1.7-5.7l3.1-3.3 3.4-3.8 1.7-1.9q3.9-4.4 7.3-9a348 348 0 0 1 11-13.5 360 360 0 0 0 13.5-17c1.9-2.4 1.9-2.4 2.9-3.4 2.8-.3 4.5-.3 7 1.1l1.8 1.6 2 1.8 2.2 2q10.5 8.9 22 16.5 14.5 10 28 21.3l10.5 8.5 2 1.6 4.5 3.6q3.9-4.7 6.9-10c4.7-7.5 11.3-12.6 18.1-18l5.6-4.6 2.6-2.1 9.1-7.7q8-6.7 16.2-13 3.5-2.7 6.5-5.6c3.1 0 4.2 1.2 6.5 3.3l2.7 3 1.5 1.7q5.6 6.4 11 13.2l5 5.9c22.2 24.1 25.2 67.5 31.1 98.7 3.2 17.2 3.2 17.2 7.2 34.2l1.4-1.8a158 158 0 0 1 18.7-19.6c6.8-6.3 10.4-11 12.8-20l.7-2.7 2.4-8.9.7-2.8q5-19.2 9-38.6l.4-2.2 2.5-12.3 1.3-6.5a63 63 0 0 0 1.7-19c-.8-9.4-.5-17.3 5.5-24.8 7-8.2 15.1-15.6 23.3-22.7q6-5.2 11-11.3 3.4-3.9 7-7.3l2.7-2.6z"/><path fill="#e8e8e8" d="m1434 201.8 3-.1c7.8.8 12.3 6.2 17.4 11.5l2.2 2.2a260 260 0 0 1 11.7 12.7l8 8.7c14.7 15.7 23 29.8 27.7 51q1.4 5.7 3 11.3 2.4 9 4.3 18.3l2 9.4 2.7 12.4a1967 1967 0 0 1 16.6 81.4q6.5 31.3 9 63.2.6 8 1.7 16 2.4 19.5 4.3 39l.4 3.2c2.2 22 2.2 22 3 32l1.8-1a770 770 0 0 1 23-13.3q7.3-4 14.2-8.7c3.8 1.5 5.6 3.6 8 6.8l2 2.6 2 2.6 4 5c1.8-1.8 1.3-4.4 1.4-6.8q.5-8 2-15.8l1.5-10.8.3-2 1.8-14.6c3-24.7 3-24.7 5.2-36.6q1.3-7.5 2.2-15 2.3-18 5-36l1.9-12.7.4-3 5.3-36.7-2 .8c-35.1 14.2-35.1 14.2-40 14.2l-1-1.9-5-9-2-3.4q-5-9-10.3-17.8l-1-1.8-5.2-8.2-1.8-3-1.7-2.7c-1-2.2-1-2.2 0-5.2l6.7-3.9 4.4-2.4 2.4-1.3 13-7.6 5.6-3.3 3-1.8 24.1-14 5.4-3.2a117 117 0 0 1 26.6-12.3q6.2-2 12.3-4.7l12.2-5 2.2-.9 7-2.8 4.8-1.9 8.7-3.5 6.3-2.7c2.9-.9 4.4-.7 7.3.3 1.5 1.6 1.5 1.6 2.9 3.8l1.5 2.4 9.8 17.6a177 177 0 0 0 10 16.8c8.7 12.3 8 23.8 6.8 38.4l-.2 2.2a618 618 0 0 1-9.4 75.7q-.8 4-1.3 8.1l-2.4 16.1c-8.2 52.6-16 105.6-19.5 158.7L1712 620l3.3-1c26.8-8 26.8-8 31.7-6q2.6 3.5 4.7 7.2l2.8 4.8 1.6 2.8 6.6 11 3.7 6.1 2.5 4 3.5 5.9 2.1 3.4c1.5 2.8 1.5 2.8 1.5 5.8q-3.8 2.5-7.7 4.6l-5.3 3-3 1.6-14.6 8.9-10.8 6.5-9.4 5.8-9.6 5.8-3.6 2.2a81 81 0 0 1-28 10.6l-7.4 1.9-8.6 2.1-3.1.8-10.4 2.5-3.4.8a49 49 0 0 1-17.1 1.9c-1.8-1.4-1.8-1.4-3-3.5l-1.4-2.5-1.6-3-2-3.7-3.5-6.1q-6-10.6-12.6-21l-2.3-3.5-3-5a20 20 0 0 1-2.7-11.5v-25.7l.1-16.5-2.6 2.2q-8.4 7.3-17.2 14.1-5.7 4.4-11.3 9.2A174 174 0 0 1 1543 666l-5.2 3.2q-14.7 8.6-30 15.9l-4.8 2.6a16 16 0 0 1-10 1.3c-2.6-2-2.6-2-5-4.9l-1.2-1.5-3.8-4.6-2.1-2.6-4-4.9-6.2-7.8-2.3-2.8-5.3-6.2c-13.6-15.7-15-32.3-18-52.3l-.3-2.7c-3.7-25.7-6.3-51.6-9.1-77.5l-.8-7.5-.2-2.2q-.6-5.2-1.7-10.5l-1.5 1.5q-6 6.2-12.5 11.7-3 2.8-5.9 5.9a64 64 0 0 1-26.2 14.5l-3.3 1.1q-19.5 6.8-39.7 11.5-7.6 1.8-14.9 4.8c-1.7 3-2 5-1.8 8.4 1 3.5 2.8 5 5.5 7.6l1.4 1.4 4.5 4.4 6 5.8 2.8 2.8a151 151 0 0 1 8.2 9q3 3.4 6.4 6.6c-1.6 4.1-4.6 6.9-7.6 10l-1.8 1.8-5.7 5.8-2 2-10.4 10.4-10.6 10.8-8.3 8.3-4 4-5.4 5.6-1.7 1.7c-1.5 1.5-1.5 1.5-4.5 3.6-9.4-.3-18.3-8-25.8-13.3l-1.8-1.3-4.4-3.4v-2l-1.7-.7a22 22 0 0 1-7.3-6.3q-.9-4.9-.6-9.9v-15.8q.1-26.8 4.6-53.3l.6-3.9q5-28.5 12.5-56.6l3.5-14.2q3.3-14.5 7-29l1-3.4.7-3c2.5-10.2 3.2-19.7-2.3-28.9q-3.4-4.4-7.2-8.4c-3-3.2-4.4-5.3-4.8-9.6.5-2.4.5-2.4 1.4-5l1-2.9 1.2-3.1q1-3.3 2.2-6.5l1.1-3.3q3.5-10.8 6.4-21.6l2.2-7.7a616 616 0 0 0 7.7-28.7l.8-3.2a165 165 0 0 0 3-16c.8-5.6 1.6-9.5 5.9-13.4l5.1-3.6 4.8-3.7 5-3.9 10.8-8.5 4.7-3.7c10-7.8 19.2-16.6 28-25.6l5.3-4.7q6.6-5.8 12.7-12.2c5.2-5.4 9.9-9.8 17.2-12.3l3.7-1.2c20-6.3 20-6.3 29.8-6.5"/><path fill="#1a2024" d="M902 399h2l4 4.7 2.4 3 1.3 1.6q3.4 4.3 7 8.4 6 7 11.3 14.3c4.6-2.5 8.3-5.8 12.3-9.2q8-7.3 16.7-13.8l2 1c.6 2 .6 2 1 4.5l.6 3 .7 3.3 1.3 6.9.7 3.7 2.8 13.8q4.1 19.6 7.7 39.5l.5 2.5q2.5 12.8 3.7 25.8-9.9-6.5-19-13.7l-3-2.3-2.2-1.8c-1.9-1.5-1.9-1.5-4.8-1.2-2 2-2 2-3.9 4.9l-1.1 1.6-4 5.5-4.7 6.5-3.3 4.6-11.4 15.4-9.8 13.3-1.6 2.2a16 16 0 0 0-2.2 6 56 56 0 0 1-11.5-5l-3.1-1.7-3.3-1.9-3.4-1.9-6.7-3.8-9.4-5.3-23.2-13.2-14.7-8.2c-1.7-1-1.7-1-2.7-2-1.9-35 13.3-76 29-107l2-2 1.4 1 6.6 4.7 2.3 1.6A251 251 0 0 0 887 418l7-8.4 2-2.4 1.8-2.3 1.8-2.1c1.5-1.8 1.5-1.8 2.4-3.8"/><path fill="#e4e6e6" d="M808.3 644c3.6 1.3 6 3.4 8.6 6l1.6 1.4a69 69 0 0 1 21.9 46 47 47 0 0 1-11.5 32.2c-6.4 6-14.4 12-23.5 11.9-4.7-1-7.4-3.8-10.4-7.5a95 95 0 0 1-14-57c2-6.3 7.2-10.2 12.2-14.3l1.8-1.7v-2l-2-1c.5-4 2.4-5.6 5.4-8.1l2.4-2c4.7-4 4.7-4 7.5-3.8"/><path fill="#e5e7e8" d="M959 637c5.3 4.6 7.3 10.7 8.4 17.5.2 3.7 0 6-1.9 9.2-9 8.3-9 8.3-14.5 8.3l-.3-1.8A48 48 0 0 0 944 652l-2-1 1.8 9.6.6 2.8 2.5 13.2.5 2 1 5.4q.8 4 .6 8l6.7-5.3 1.9-1.4 1.8-1.5 1.9-1.4 4.5-3.7c3.9-3 7.4-3.3 12.2-2.7 5.1 2.8 7.5 6.4 9.4 11.8a45 45 0 0 1-3.3 31 47 47 0 0 1-28.5 21.7c-3.6.3-5.3-.3-8.1-2.6-10-11.5-14.1-28.7-16.8-43.3l-2.3-10.3c-1.5-6-2-12-2.4-18.3h-2c-.5-3.7-.7-5.8 1.2-9 3.7-4.4 7.6-7.5 12.4-10.5q5.2-3.4 10.1-7c4.1-2.7 6.4-4.2 11.3-2.5"/><path fill="#e2e4e6" d="M895 644c5.2 6 4.6 12.2 4.2 19.7q-1 10.3-3.2 20.3l-.4 2q-3.4 15.4-8 30.3-3.2 10.2-5.6 20.7l5.2-6.1 1.4-1.8 3-3.4 2.9-3.3c2.6-3 2.6-3 3.8-6.6l-.4-1.9-.4-1.9-1.3-4.5c-.2-2.5-.2-2.5 1.2-4.6 10.7-9.9 10.7-9.9 15.6-9.9l2 9h3l-.2 3.5c0 4.6 1.2 8.3 2.8 12.6l.8 2c1.6 4 3.2 7 6 10 2.6 2.9 2.6 2.9 2.6 5.3-1.3 3.4-2.9 4.7-5.7 6.8l-2.6 2.1c-3 1.9-5.2 2.4-8.7 2.7-5.8-7-9.4-14-11-23q-4.9 4.8-9.2 10.1l-2.4 3-4.7 5.7c-13 16.2-13 16.2-20.7 20.2h-3c-.5-6.8 1.5-12.4 3.6-18.8 13.8-40.7 13.8-40.7 15.4-83.2-1.9-2.3-1.9-2.3-5-2.2-3 0-3 0-6 1.2l-.2 2.3a12 12 0 0 1-4.8 6.7h-2q4.1 5.3 9 10a35 35 0 0 1-14 12c-5-.2-7.7-3.1-11.1-6.4-4.2-4-4.2-4-8.9-7.6.5-4 2.4-5.6 5.4-8.1l2.4-2c2.2-1.9 2.2-1.9 5.2-3.9l3.5 1c2.2.5 2.2.5 4.5 0 2.9-2.2 5.3-4.7 8-7.2 4.9-4.7 11-7.7 17-10.8l2.2-1.2a14 14 0 0 1 8.8-.8"/><path fill="#e3e5e7" d="M750 656a12 12 0 0 1 4.6 9.2v7.8c-.8 25-9.4 50.2-16.6 74l2.1-2.1 5.9-5.7c5.6-5 5.6-5 8.2-11.8q-.9-3.3-2.2-6.4c-.1-3.1-.1-3.1 1-6 3.7-4 8-7.7 13-10l3 1 2 7 2 1 .3 3.7c1 9.7 4.2 19 11.4 25.7 1.3 1.6 1.3 1.6 1.3 3.5-1.4 3-3.3 4.6-5.7 6.8l-2.6 2.4c-3 2.1-5 2.8-8.7 2.9-5.5-3.2-7.8-10.7-10-16.3-1-2.9-1-2.9-3-5.7l-4.8 5.6-1.5 1.8-8.9 11c-12.3 16.2-12.3 16.2-20.8 19.6h-3a95 95 0 0 1 4.3-19.4l1.9-6.4 1-3.2q5.8-20.1 10.2-40.5l1.2-4.8a62 62 0 0 0 1.6-16v-2.3c0-4.3-.2-7.5-2.2-11.4-4.1-.2-4.1-.2-8 1l-1.3 2.2q-3 4.7-6.7 8.8l8 6c-1.5 6-5.7 9.3-10.6 13-3 1.3-4.3 1-7.4 0-2-1.4-2-1.4-3.9-3.2l-2-1.9-2.1-1.9-4-3.4-3-2.6c1-6 6-9.4 10.5-13 2.5-1 2.5-1 5.8-.3 3.8.7 3.8.7 6.7-1.7l3-3c7.8-7 19-16.4 30-15"/><path fill="#1c2225" d="M1402 328c2.4 3.6 3 7 4 11l.5 2.5 1.7 8 1.3 5.5 2.4 11 2.9 13q3.5 15.3 6.6 30.9l.5 2.6.4 2.4.4 2q.4 3.5.3 7.1c-38 11.9-38 11.9-55 14q4-16.5 9.2-32.7l1.4-4.6 2.3-7 6.8-21.8 1-3.5 5.6-17.8 1-3.7 2.1-6.8 1-3 .8-2.7a43 43 0 0 1 2.8-6.4"/><path fill="#1d2225" d="M589 410c3 1.5 3.4 3.7 4.8 6.7l1.6 3.6 1 2 4.3 9.6 1 2 6.2 13q4.1 8.2 7.7 16.7l3 6.8 1.3 3.2 1.3 2.9c.9 2.7 1 3.9-.2 6.5-6.3 6-15.4 9.3-23.1 13l-10 5.2c-1.9.8-1.9.8-4.9.8q-.2-12.6 1.2-25l1-10.7.2-2.1q2.7-27 3.6-54.2"/><path fill="#1f2427" d="M798 671c5.6 1.3 7.4 3.7 11 8l2.5.4c2.5.6 2.5.6 4.2 2.9q2.3 4.8 4.3 9.7l1.3 2.9c4 10.4 4.1 21.5.7 32.1a12 12 0 0 1-9-3.5 86 86 0 0 1-15-48.4v-2.3z"/><path fill="#e2e5e6" d="M959 637c5.4 4.3 7.4 10.9 8.4 17.5.2 3.7 0 6-1.9 9.2-9 8.3-9 8.3-14.5 8.3l-.3-1.8A44 44 0 0 0 944 652l-3-2v-3l-3-1 6-4 2.5-1.6 2.6-1.7 2.4-1.6c3.1-1.4 4.4-1.3 7.5-.1"/><path fill="#212527" d="M963.6 690.3c4.3 3 6.7 7.7 8.4 12.7l.2 7.8v2c0 4.8-.7 8.7-2.2 13.2-2.1.4-2.1.4-5 0a47 47 0 0 1-14-29c2.9-4 7.4-7.3 12.6-6.7"/><path fill="#182022" d="M446 814.6c3 .4 3 .4 4.9 1.7 1.1 1.7 1.1 1.7 1.1 4.7l3 1v3l-4-1v2l.2 9.3v6.3l.1 3c-.3 2.4-.3 2.4-1.7 4.2-1.6 1.2-1.6 1.2-4 1.4-3.3-1.5-4.5-3.4-5.9-6.6-1.4-5.2-1-10.3-.7-15.6l.1-2.7c.3-3.2.7-6 2-8.9 1.9-1.4 1.9-1.4 4.9-1.8"/><path fill="#26272a" d="m746 714 2 3 2-1v2h2l1.6 4.3.8 2.3c.7 2.8.7 3.8-.4 6.4l-5.2 5.9-3 3-1.4 1.5-6.4 7.6c-1.4-2.9-.5-4.3.4-7.4l.9-3.3 1-3.4 2-6.7.9-3.2z"/><path fill="#172122" d="M709 336c7.9.9 7.9.9 9 2 .8 6.5-1.4 10.7-5 16-1.5 1.8-1.5 1.8-3 3-2.7.2-2.7.2-5 0a23 23 0 0 1-1-14l3-1c1.2-3 1.2-3 2-6"/><path fill="#182023" d="M96 316a24 24 0 0 1-6 18.5c-2.5 1.8-4 1.8-7 1.5a29 29 0 0 1-1-13c3.7-6 7-7.3 14-7"/><path fill="#172022" d="M174 298c1.6 4.9.1 8.5-2 13a57 57 0 0 1-6 7l-5-1c-2-10.1-2-10.1.2-14.4 4-4.2 7-5.4 12.8-4.6"/><path fill="#171f20" d="m285 758 4 2v5h-2l-.3 1.8c-1.8 9-1.8 9-4.7 12.2-3.2.8-3.2.8-6 1-2.5-3.8-2.4-5.5-2-10a19 19 0 0 1 3-7c3.7-1 3.7-1 7-1z"/><path fill="#182022" d="M217 691q1 4.5 1 9c-1.8 2.5-3.1 2.8-6 3.4l-6 .6v-2l-3-1 1-3h2l.1-2.3c.9-2.7.9-2.7 3.7-4.6 3.3-1.1 4-1.1 7.2-.1"/><path fill="#171f21" d="m224 710 10 2v-2h2l-1.2 4.8-.8 2.7c-1.2 3-2.3 3.9-5 5.5-2.2.7-2.2.7-4 1v-3h-2v-2h-3l1-5 2-1z"/><path fill="#161f22" d="m136 600 4 2-1 3 1 4-1 2h2c1.2 3.5 1 6.4 1 10-3 1-3.9 1-7 0 .9-6.7.9-6.7 2-9l-5 2 1-9 3-1z"/><path fill="#15201f" d="M188 676h3l-4 12-6 1c-2.7-3.8-3.7-6.4-3-11 3.1-3.7 5.6-3 10-2"/><path fill="#152121" d="m189 702 7 1v2l3 1c-.6 3.2-1.6 5.2-3.6 7.8l-1.3 1.8-1.1 1.4-5-1v-6.4l-.1-3.7c.1-2.9.1-2.9 1.1-3.9"/><path fill="#142023" d="M93 449h6c1.8 1.8 1.7 4.6 2 7l.6 3.4.4 2.6h-3l-1 2-5-1c-1-3.3-1-5.9-.6-9.2l.3-2.8z"/><path fill="#182022" d="M161 627c2 2.2 2 2.2 3 5-.8 2.8-.8 2.8-2 5-6.4 1.3-6.4 1.3-9 0-1.6-3.2-.8-5.6 0-9 2.9-1.4 4.8-1.4 8-1"/><path fill="#191f22" d="M332 730c2.3-.2 2.3-.2 5 0l3 3 4 1v11h-6a24 24 0 0 1-1-7l-2-2a9 9 0 0 1-3-6"/><path fill="#dbdedf" d="M897 719c1.9.3 1.9.3 4 1 1.8 2.6 1.8 2.6 3 5l-2 1v-2a88 88 0 0 0-11 13c-1.1-3.7-1.1-3.7 0-6h2v-2l-4 1c1.4-3 3-5.3 5.1-7.7l1.7-2z"/><path fill="#292b2d" d="M942 651c3 1 4 1.9 5.5 4.7l1.3 3.2 1.3 3.3c.9 2.8.9 2.8-.1 5.8l-5 4-1.5-8.8-.4-2.5-.4-2.5-.4-2.2c-.3-2-.3-2-.3-5"/><path fill="#16201e" d="M135 630v2h-2l-2 6 4 1a7 7 0 0 1 .4 5.8L133 650c-3.3-2.6-3.5-5-4-9l-1-2c-.2-3.5-.2-3.5 0-7 3-2 3-2 7-2"/><path fill="#161f21" d="M131 365v5.3l.1 2.9a25 25 0 0 1-1.1 6.8l-5-1c-1.2-2.4-1-3.7-.8-6.4l.3-2.4c1-4 2.5-5.2 6.5-5.2"/><path fill="#152020" d="m1784 529 8 1a17 17 0 0 1-1 12l-3-1v-2l-4-1c-1.1-6.7-1.1-6.7 0-9"/><path fill="#191e22" d="M201 663c2 .8 2 .8 4 2l1 3h-2l1 5-3.4-.1c-3.6-.3-3.6-.3-5.6 2.1h-3v-6l2.9-.7c3.2-1 3.2-1 4.5-3.4z"/><path fill="#171f20" d="M1787 496c3 1 3 1 4 3l2 .5 2 .5 1 2 3 1v3l-6 1v-3l-9-2-1-3c1.8-1.6 1.8-1.6 4-3"/><path fill="#13221a" d="M122 529h6l1 7c-1 1-1 1-3.6 1H123v2l-5-1 .9-1.7z"/><path fill="#15201e" d="m276 749 4 1h7l-1 5-10 2c-2-3-2-3-1.7-5.1.7-1.9.7-1.9 1.7-2.9"/><path fill="#162020" d="m142 587 1.6.6c3.3.6 6.1 0 9.4-.6l-2 7 3 3-1 3-3-3v-1l-6-2v-4h-2z"/><path fill="#12221c" d="M143 415h4v2l3 1-2 5h-4v2l-7-1v-2h4l.4-3c.6-3 .6-3 1.6-4"/><path fill="#14211b" d="m142 681 5 2c.3 5.6.3 5.6-2 9l-7-1v-2h2l-.1-2.9c.1-3.1.1-3.1 2.1-5.1"/><path fill="#191f23" d="M200 259c2 .7 2 .7 4 2 .6 2 .6 2 .8 4.5l.2 2.4c0 2.1 0 2.1-1 4.1-2.4-1-3.8-1.7-5.3-3.7-1-3-.4-5.3.3-8.3z"/><path fill="#14221d" d="M381 736h4v4l3 1v3h2v3h-2l-1 3h-2l1-5-2.5-1.1-2.5-1.9c-.3-3.2-.3-3.2 0-6"/><path fill="#15201d" d="M47 428c2 .7 2 .7 4 2a10 10 0 0 1 0 8l-3 1c-3-2-3-2-3.9-5-.1-3-.1-3 1.3-4.9z"/><path fill="#12221e" d="m344 289 4 1a30 30 0 0 1-4 12h-4l.9-4.2.5-2.4q.8-3.4 2.6-6.4"/><path fill="#12221d" d="m665 277 4 1c-.6 4.1-1.8 7.4-4 11-2.2.9-2.2.9-4 1 1.5-10.5 1.5-10.5 4-13"/><path fill="#152120" d="M116 593c2.6.4 2.6.4 5 1 .2 4 0 6.6-2 10l-5-2v-7z"/><path fill="#162020" d="m701 361 6 1c.8 3 1.2 4.5 0 7.3l-1 1.7c-2.5-1.2-4-2-6-4 .4-3.1.4-3.1 1-6"/><path fill="#171f1f" d="M520 247c2 .3 2 .3 4 1 1.3 3.9 1 7 1 11-1.9-.3-1.9-.3-4-1-2.4-3.7-2.2-5.7-2-10z"/><path fill="#15201e" d="M1782 519a9 9 0 0 1 3 3v4a19 19 0 0 1-10-2v-5c2.7-1.4 4.1-.8 7 0M125 410c3.5.5 3.5.5 5 2q-.3 4-1 8c-4.9-.9-4.9-.9-6-2-.2-3-.2-3 0-6z"/><path fill="#12221c" d="m159 650 5 1 1 8h-7l-1-1c.7-6.7.7-6.7 2-8"/><path fill="#172120" d="m1774.6 397.9 2.4.1 2 5c-1.2 1.6-1.2 1.6-3 3-2.7-.3-2.7-.3-5-1-.6-2.4-.6-2.4-1-5 2-2 2-2 4.6-2.1"/><path fill="#14231f" d="M278 241h3c2 4.1 2.2 7.5 2 12-1.9-.3-1.9-.3-4-1-2.4-3.7-2.2-5.7-2-10z"/><path fill="#132021" d="M1363 644h17v4l-17-1z"/><path fill="#13241c" d="m125 507 5 1v6c-2.4 1.4-3.5 2-6.2 1.6l-1.8-.6c1.9-6.9 1.9-6.9 3-8"/><path fill="#152020" d="m117 462 5 1c.6 2.9.6 2.9 1 6-2 2-2 2-4.6 2.1l-2.4-.1c-.8-3-1.2-4.5 0-7.3z"/><path fill="#192022" d="m149 636 6 3v4c-2.4 1.4-3.5 2-6.2 1.6l-1.8-.6c-.7-2.3-.7-2.3-1-5 1.4-1.8 1.4-1.8 3-3"/><path fill="#17211f" d="M750 329v6c-2.6 1.5-3.9 2-7 2-1-3-1.1-5 0-8 2.7-1.3 4.2-.7 7 0"/><path fill="#171f1f" d="m129 485 5 4-1 4c-5.7 1-5.7 1-8 1 .6-5.5.6-5.5 2.6-7.9z"/><path fill="#151f22" d="M369 777c2.6.4 2.6.4 5 1 .6 2.4.6 2.4 1 5l-2 2c-2.6-.4-2.6-.4-5-1-.6-2.4-.6-2.4-1-5z"/><path fill="#112417" d="m747 355 1 4c-3.8 2.6-5.6 1.8-10 1v-4c3-1.5 5.7-1 9-1"/><path fill="#1a1d23" d="M136 530c2.4.8 2.4.8 5 2 1 2 1 2 1 4-1.2 1.8-1.2 1.8-3 3-2.2-.3-2.2-.3-4-1-.6-2.9-.6-2.9-1-6z"/><path fill="#161f21" d="M756 351c2 .7 2 .7 4 2 .8 2.6.8 2.6 1 5l-5 2-3-4c1.9-3.9 1.9-3.9 3-5"/><path fill="#13211e" d="M191 657c4 3.3 4 3.3 4.3 6.8l-.3 2.2h-3v2h-2v-2l-3-1v-2h2z"/><path fill="#13211c" d="m128 616 5 4c-.7 2-.7 2-2 4-2.1.8-2.1.8-4 1-2-3-2-3-1.7-5.6l.7-2.4z"/><path fill="#14221e" d="m146 627 5 3c-.6 2.9-.9 3.9-3 6h-3c-2-3-2-3-1.7-5 .7-2 .7-2 2.7-4"/><path fill="#17221f" d="m171 673 5 4c-.7 2-.7 2-2 4-2.1.8-2.1.8-4 1-2-3-2-3-1.7-5 .7-2 .7-2 2.7-4"/><path fill="#10241b" d="m778.2 322.4 1.8.6-1 6-5 1c-1-1-1-1-1.2-3.4l.2-2.6c3-2 3-2 5.2-1.6"/><path fill="#15201e" d="m283 730 2 1v2h-3l1 5-5 2c-2.1-4.6-2.1-4.6-1-8l4 1v-2z"/><path fill="#10231b" d="M147 457c2.6-.2 2.6-.2 5 0 .6 1.8.6 1.8 1 4l-2 3-5-1-1-3z"/><path fill="#1a1e21" d="M218 702c2 2 2 2 2 4h3v3h-3l-2 3h-3c-.1-5.7-.1-5.7 1-8h2z"/><path fill="#14201d" d="M177 707a23 23 0 0 1 8 3l-1 4-4-.8-2.2-.5-1.8-.7-1-3z"/><path fill="#132221" d="m347 744 5 1 1 6c-3 1-3 1-5.2 0l-1.8-1v-5z"/><path fill="#14221f" d="M344 778c2 .3 2 .3 4 1l1 3-2 3c-3.1.2-3.1.2-6 0v-3l3-1z"/><path fill="#262728" d="M1602 620h1l.2 4.9v2.7l-.2 2.4-3 2v-4l-4-2z"/><path fill="#15201d" d="m155 677 3 1c-1.9 4.8-1.9 4.8-3 7h2l-1 3h-2l-2-9z"/><path fill="#363639" d="M497 560c2 2 2 2 2.3 3.9v4.2c-.3 1.9-.3 1.9-2.3 3.9a10 10 0 0 1-4-7l3-1c.7-2 .7-2 1-4"/><path fill="#12231d" d="M1374 696v4c-3.4.8-5.7 1.1-9 0l1-3c2.7-1.4 5-1 8-1"/><path fill="#15201f" d="m169 635 1.8.5c2.3.6 2.3.6 5.2.5-.8 3.4-.8 3.4-2 7l-3 1 1-4-4-1z"/><path fill="#172021" d="M175 623h3c-.6 3-1.3 4.4-3 7h3l-2 4v-2l-5-1z"/><path fill="#d3d8d8" d="m960 683 2 1-2.9 2.1c-3.1 2.6-4 5-5.1 8.9l-2 1v-3l-3-1z"/><path fill="#242728" d="M836 674h2v3l2 .9c2 1.1 2 1.1 3 3.1l-6 2-1-4-.7-2.2-.3-1.8z"/><path fill="#333535" d="M942 651c4 2 4 2 5.3 4.6l.7 2.4-2 2-2-1-1 3z"/><path fill="#15201d" d="m502 348 4 2v3l-5 2-2-1 1-5z"/><path fill="#17211f" d="M1552 296c1.9.3 1.9.3 4 1 1.3 2 1.3 2 2 4l-4 2c-1.6-1.2-1.6-1.2-3-3 .3-2.2.3-2.2 1-4"/><path fill="#2e3032" d="m1605 560 3 1v6l-2 2-4-5 1-2h2z"/><path fill="#292a2c" d="m974 504 5 1 1 7-7-5z"/><path fill="#d4d7da" d="m250 499 2 1a16 16 0 0 1-6 8l-4-1z"/><path fill="#15211e" d="m300 770 4 1 1 4-5 1-1-5z"/><path fill="#14201f" d="M389 748h2c2 3.4 2.2 6 2 10l-3 1z"/><path fill="#2f3132" d="m884 728 5 1-2.9 4-1.6 2.2C883 737 883 737 881 738c1.9-7.7 1.9-7.7 3-10"/><path fill="#292d2e" d="m959 685-3.9 3.5-2.2 2C951 692 951 692 949 692v-4c2.9-2.8 6.1-5 10-3"/><path fill="#3d4040" d="M985 544h1l.6 6.9.4 3.8v3.3l-2 2c-1-1-1-1-1.1-4.6q.1-5.8 1.1-11.4"/><path fill="#17201f" d="m291 796 5 1-1 4h-4l-1-4z"/><path fill="#2e3032" d="m756 736 2 1 1 5h-7c1.2-2.5 2-4 4-6"/><path fill="#181f23" d="m159 589-1 8-3 1c-1-1-1-1-1.2-3.4.2-2.6.2-2.6 1.6-4.4 1.6-1.2 1.6-1.2 3.6-1.2"/><path fill="#0f2616" d="m725 350 4 1-1 1.8c-1.2 2.3-1.2 2.3-1 5.2h-4c.9-6.9.9-6.9 2-8"/><path fill="#14211e" d="m239 735 4 2-1 4-4 1v-6z"/><path fill="#181f1e" d="m218 724 3 1c.8 2 .8 2 1 4-1 1-1 1-3.6 1H216c.9-4.9.9-4.9 2-6"/><path fill="#17201e" d="m193 695 5 1 1 3-4 2-3-3z"/><path fill="#d3d6d9" d="m727 665 2 1-1 2 1 3-2 1-2 3-.4-1.9c-.5-2.3-.5-2.3-2.6-4.1z"/><path fill="#162021" d="M160 618h2l1 4-4 1v3l-4-1 1-3h4z"/><path fill="#171e22" d="m1769 546 3 1-1 5-5-1 1-4z"/><path fill="#182023" d="m1542 299 3 1c-.2 1.9-.2 1.9-1 4-2 1.3-2 1.3-4 2l-1-3c1.4-2.2 1.4-2.2 3-4"/><path fill="#122319" d="M112 475h4l-1 6h-4v-5z"/><path fill="#d0d1d3" d="M882 325c7.6 4.1 7.6 4.1 10 7h-8z"/><path fill="#0e2716" d="m200 259 3 1-2 1v9c-1.6-1.6-1.6-1.6-3-4 .4-5.4.4-5.4 2-7"/><path fill="#13221a" d="M610 725h3v2h4v3l-7-1-1-3z"/><path fill="#122120" d="M157 452v5l-3 1-2-1v-4c2-1 2-1 5-1"/><path fill="#14221a" d="m113 367 5 1v3l-5 1-1-4z"/><path fill="#16201e" d="m1598 263 5 1-1 4-5-1z"/><path fill="#14211a" d="m285 743 5 1v4h2v2h-3v-2h-2z"/><path fill="#1a1e25" d="m1362 690-1 3h-9c2-4 6-3 10-3"/><path fill="#15211c" d="m118 555 4 1-1 5-4-1z"/><path fill="#102321" d="m113 489 3 1-1 5-4-1v-4z"/><path fill="#0c2717" d="m117 462 5 1-2 1.2c-2.4 2.2-2.6 3.6-3 6.8l-2-1c.9-6.9.9-6.9 2-8"/><path fill="#152020" d="m35 385 5 1v3l-5 1-1-4z"/><path fill="#191f21" d="M1378 668v2c-3.4.8-5.7 1.1-9 0v-2c3.3-1.1 5.6-.8 9 0"/><path fill="#13221a" d="M180 666h3l1 6-4-1-1-4z"/><path fill="#1a1d28" d="M157 654h6l-2 4h-4z"/><path fill="#13221a" d="m112 620 3 1-2 5-4-2 1-3z"/><path fill="#16201c" d="M164 446h3v5h-2l-1 3c-1-3-1-5 0-8"/><path fill="#333536" d="m739 739 3 4c-1.4 3.2-2 4-5 6z"/><path fill="#22262a" d="m711 672 1 3-3.3 1-6.7 2v-2c6-4 6-4 9-4"/><path fill="#16201f" d="M105 529h4c-.6 3.3-1.5 4.8-4 7-1-3.1-1-4 0-7"/><path fill="#132225" d="m1790 491-3 4-4-1 1-3c2.5-1.2 3.4-.8 6 0"/><path fill="#10241b" d="M477 376h3l1 6-5-1z"/><path fill="#cfd3d6" d="m1604 316 2 1-9 7-3-2 4.9-3 2.7-1.8z"/><path fill="#d3dada" d="m1317 280 2 1c-2.5 4.8-2.5 4.8-5.2 5.8l-1.8.2v-3c2.5-2.2 2.5-2.2 5-4"/><path fill="#162020" d="M665 787c1.5 1.2 1.5 1.2 3 3 .2 2.7.2 2.7 0 5h-3l-1-7z"/><path fill="#313437" d="M466 636c0 3 0 3-2.2 5.6-2.5 2.2-3.6 3-6.8 3.4z"/><path fill="#15211c" d="M34 493h4l-1 5-4-1z"/><path fill="#0e2516" d="m348 793 4 1-1 5-3-1z"/><path fill="#16221e" d="M129 746h4l-1 5h-3l-1-3z"/><path fill="#15211b" d="M374 721h3l-1 7h-2l-1-6z"/><path fill="#dbe1e0" d="m1097 504 7 1-2 4c-2-.8-2-.8-4-2z"/><path fill="#c0c2c3" d="m223 334 2 2-8 7-2-1z"/><path fill="#10251e" d="m618 711 4 1-1 4-4-2z"/><path fill="#282a2c" d="m798 671 6 2-1 3h-3l-2-2z"/><path fill="#b8babe" d="M585 448h2v10c-2.4-2.4-2.6-3.7-3-7z"/><path fill="#10241b" d="M1793 447h4l-1 4h-4z"/><path fill="#1a1d22" d="m146 417 4 1-2 5h-2z"/><path fill="#0e2617" d="m706 327 3 1-1 6h-3z"/><path fill="#12241f" d="m535 318 1 4-6 5c1.3-3.5 2.7-6.1 5-9"/><path fill="#0c2618" d="M230 742c-.2 1.9-.2 1.9-1 4-2.6 1.3-2.6 1.3-5 2v-3c3.3-3 3.3-3 6-3"/><path fill="#0c2811" d="m1777 542 3 1-1 5h-2l-1-5z"/><path fill="#0e2615" d="M1806 532c-.8 2-.8 2-2 4l-3 1v-4c2-1 2-1 5-1"/><path fill="#15201f" d="m1805 521 5 1-2 4-3-2z"/><path fill="#142020" d="m120 490 4 1-1 4h-3l-1-3z"/><path fill="#162121" d="m1785 484 4 1-2 4-3-1z"/><path fill="#d1d3d4" d="m486 456 4 1-5 5-3-1z"/><path fill="#d0d2d6" d="m805 355 1 2h2l-1 4-4-2z"/><path fill="#323736" d="M1402 328c2 3 2 3 2 5-1.4 1.6-1.4 1.6-3 3h-2c1.9-6.9 1.9-6.9 3-8"/><path fill="#122319" d="M495 327h4v4l-4 1z"/><path fill="#102318" d="m341 854 4 2-1 3-4-2z"/><path fill="#16201c" d="M346 771h5v4h-3v-2h-2z"/><path fill="#2f3034" d="m749 702 1 2h2c-.3 1.9-.3 1.9-1 4l-3 2z"/><path fill="#12221c" d="m115 626 4 1-1 3h-4z"/><path fill="#262c2f" d="M1238 554c2 3 2 3 1.8 5.1l-.8 1.9-3 1c.9-6.9.9-6.9 2-8"/><path fill="#dbdcde" d="M1238 537h2l-1 9c-1.7-2.6-2.4-4-3-7h2z"/><path fill="#14211b" d="M141 534v3l-2 2c-2.1-.4-2.1-.4-4-1v-2z"/><path fill="#16201f" d="M1790 517h4l-1 4-4-1z"/><path fill="#142419" d="m98 484 4 1-1 3h-4z"/><path fill="#525456" d="M1421 414h1l1 10-3-1z"/><path fill="#d9dcdf" d="M363 395c1 3.4 1 6.5 1 10l-2 1c-1.2-7.6-1.2-7.6 1-11"/><path fill="#15211d" d="m475 296 4 1v4h-3z"/><path fill="#16201f" d="m1578 275 4 1-1 3h-4z"/><path fill="#11231a" d="m1570 245 3 1-1 4h-3z"/><path fill="#0d2615" d="m634 792 4 1v3l-5-1z"/><path fill="#0e2717" d="m570 772 4 1-1 3-4-1z"/><path fill="#18211f" d="m549 748 4 1-1 3h-4z"/><path fill="#16211b" d="m245 748 5 1v2l-4 1z"/><path fill="#12231b" d="m216 743 3 1-1 4-3-1z"/><path fill="#10251a" d="m162 702 5 1-1 3-4-1z"/><path fill="#14211b" d="m135 653 3 1-3 5h-2z"/><path fill="#15211d" d="M128 560h4l-1 4-4-1z"/><path fill="#15201e" d="M104 551h4v3l-4 1z"/><path fill="#15201f" d="m134 448 3 1-1 4-3-1z"/><path fill="#161f20" d="m139 447 4 1-1 3-4-1z"/><path fill="#11231c" d="m139 405 4 1-1 3-4-1z"/><path fill="#171f1f" d="m1594 266 3 1v3l-4 1z"/><path fill="#142020" d="m1585 253 4 1v3h-4l-1-3z"/><path fill="#12221d" d="m184 827 4 2-1 3-3-1z"/><path fill="#16231d" d="m224 813 4 1-2 3h-3z"/><path fill="#12231a" d="m511 780 4 1v2l-4 1z"/><path fill="#16221f" d="M642 751h4v4l-4-1z"/><path fill="#15201e" d="m268 745 5 1v2l-4 1z"/><path fill="#0f2516" d="m992 735 3 1-1 4h-2l-1-4z"/><path fill="#0b2713" d="m621 733 4 1v2l-4 1z"/><path fill="#102124" d="M1383 689h8v2h-8z"/><path fill="#0f2516" d="m139 672 4 1v3h-4z"/><path fill="#181e21" d="M1381 653h7l-1 3-6-1z"/><path fill="#1a1c25" d="M118 635h3v4h-4z"/><path fill="#15201e" d="m96 615 4 1v3h-4z"/><path fill="#122319" d="m89 574 3 1-1 5h-2z"/><path fill="#082c0e" d="M1768 566h4l-1 4h-3z"/><path fill="#102417" d="m1771 552 6 2v1h-7z"/><path fill="#16201d" d="m73 551 3 1v3l-5-1z"/><path fill="#16201f" d="M139 507h3l-1 4h-4l2-1z"/><path fill="#092a15" d="M1783 436h3l-1 4h-3z"/><path fill="#0b2715" d="M1788 389v3l-5 2 1-4c2-1 2-1 4-1"/><path fill="#12231a" d="M483 359h3v4h-4z"/><path fill="#0f241b" d="m103 333 3 1-1 3h-4z"/><path fill="#15201d" d="m168 804 3 1v3h-4z"/><path fill="#162120" d="m630 800 3 1-1 3-4-1z"/><path fill="#13241a" d="M626 781h4l-2 4-3-1z"/><path fill="#162122" d="M211 759h3v4l-4-1z"/><path fill="#122318" d="M1526 728h4v3l-4 1z"/><path fill="#0a2b10" d="M1350 679h4l-1 4-3-1z"/><path fill="#162020" d="M1752 575c-4.7 3-4.7 3-7 3l1-3c2.6-1 3.5-1.3 6 0"/><path fill="#0e2614" d="M79 510h3v2h3v2l-5-1z"/><path fill="#1a1d27" d="M1803 509v4h-4v-3c2-1 2-1 4-1"/><path fill="#11231a" d="m66 508-1 4h-4v-3c3-1 3-1 5-1"/><path fill="#132121" d="M115 506h4l-1 4-3-1z"/><path fill="#16221e" d="m149 504 1 3-5 1v-3z"/><path fill="#152020" d="M139 480h3v4l-4-1z"/><path fill="#0e2518" d="M1833 440h4v3l-3 1-2-3z"/><path fill="#152220" d="M1799 418h3l-1 5-2 1z"/><path fill="#062919" d="m766 346 4 1-1 3h-3z"/><path fill="#15211c" d="m47 304 4 1v3l-4-1z"/><path fill="#122319" d="m126 285 3 1v4l-4-2z"/><path fill="#16201e" d="M1336 196h3v4l-4-1z"/><path fill="#13221c" d="M232 853h2l1 4h-3z"/><path fill="#0c2818" d="M382 819h3l-1 4-3-1z"/><path fill="#161f20" d="m488 781 4 1-1 3-3-1z"/><path fill="#17211f" d="m362 767 2 1-1 3-4-1z"/><path fill="#162120" d="m219 765 3 1v3h-4z"/><path fill="#0e2718" d="M480 744h2l-1 4h-3z"/><path fill="#10251e" d="M456 739h3l1 3-4 1z"/><path fill="#10261b" d="m625 712 4 1-1 3-3-1z"/><path fill="#102419" d="M1782 578h2c1 3 1 3 0 6h-2z"/><path fill="#14201e" d="M1843 566h4l-1 4-3-1z"/><path fill="#0f2719" d="m11 537 3 1v3l-4-1z"/><path fill="#13221d" d="m117 523 6 1-1 2h-5z"/><path fill="#14211f" d="m162 457 3 1-1 4-2-1z"/><path fill="#16201e" d="m85 400 3 1-1 3h-3z"/><path fill="#0c251c" d="m69 338-1 4h-3v-3c2-1 2-1 4-1"/><path fill="#122519" d="m1228 331 3 1-1 3-4-2z"/><path fill="#0d2711" d="m181 315 3 1-1 3h-3z"/><path fill="#152222" d="m651 304 3 2-1 3h-2l-1-4z"/><path fill="#181f20" d="m1283 252 3 1v3h-4z"/><path fill="#15211d" d="m409 247 3 1v3l-4-1z"/><path fill="#16201c" d="m309 828 4 1v2l-3 1z"/><path fill="#171f21" d="M634 821h3l1 3h-4z"/><path fill="#052c0d" d="m399 796 3 1-1 3-3-1z"/><path fill="#15201d" d="M401 759h3v4h-3z"/><path fill="#15201f" d="M162 718h4l-1 3h-4z"/><path fill="#171e22" d="m1354 668 4 1-1 3-3-1z"/><path fill="#072c0b" d="M102 663h4l-2 4-2-1z"/><path fill="#162121" d="m153 585 5 1v2h-4z"/><path fill="#181e23" d="M1765 557h3l-1 4h-2l-1-3z"/><path fill="#14211c" d="M128 546v2l-6 1v-2q2.8-1 6-1"/><path fill="#13211f" d="m1786 515 2 1-1 4h-2z"/><path fill="#12231a" d="M745 379h2l-1 4h-3z"/><path fill="#16201e" d="m145 320 3 1-2 3-3-1z"/><path fill="#122519" d="m162 291 3 1-1 3-3-1z"/><path fill="#0c2711" d="M1597 195h3l-1 4h-2l-1-3z"/><path fill="#16221e" d="m848 820 4 1v2l-3 1z"/><path fill="#052c0c" d="m352 807 4 1v2h-4z"/><path fill="#0d271a" d="m587 795 3 1v3h-3z"/><path fill="#052b0e" d="m508 758 4 1-1 3-3-2z"/><path fill="#142418" d="m1541 744 2 1-3 1v2l-3 1c1.8-3.9 1.8-3.9 4-5"/><path fill="#13211e" d="M364 739h3v3h-4z"/><path fill="#0b261a" d="M98 651h2v3h2v2l-4-2z"/><path fill="#181f1e" d="m166 625 3 3-1 2-3-2z"/><path fill="#0f231e" d="M1803 458h2l1 3-1 2h-2z"/><path fill="#1a1c25" d="M162 434h3v4l-3-1z"/><path fill="#052b0f" d="M78 408h4v3l-4-1z"/><path fill="#0f2619" d="M1215 356h2v4h-3z"/><path fill="#191f22" d="m1778 348 4 1-1 2-4-1z"/><path fill="#12241b" d="M1588 276h3v3h-4z"/><path fill="#181e21" d="M230 268h2v4h-3zm623-20h3v4l-3-1z"/><path fill="#11231c" d="M232 227h2l1 4h-3l-1-3z"/><path fill="#15201d" d="M536 223h3l-1 4h-2zm16-8h3v4l-3-1z"/><path fill="#16221e" d="m226 899 3 1v3l-3-1z"/><path fill="#192021" d="m628 867 4 1v2l-4-1z"/><path fill="#182020" d="M443 858h2l-1 4h-2z"/><path fill="#172120" d="M445 853h4l-1 3-3-1z"/><path fill="#0d2819" d="m354 843 3 1v2h-4z"/><path fill="#181f20" d="m845 826 3 1-3 3z"/><path fill="#181e22" d="m872 794 3 1v3l-3-1z"/><path fill="#052b14" d="m106 790 3 1v3l-3-1z"/><path fill="#14231d" d="m785 787 3 1-3 3z"/><path fill="#182020" d="m209 772 3 1-1 3h-2z"/><path fill="#192021" d="m420 736 2 1v3h-3z"/><path fill="#0d2616" d="M359 735h2v4l-3-1z"/><path fill="#0b2811" d="M147 720h2l-2 4h-2z"/><path fill="#181e25" d="m193 654 4 1v2h-5z"/><path fill="#042b10" d="M75 638h2v4l-3-1z"/><path fill="#102319" d="M1775 548h2l-1 4h-2z"/><path fill="#0f261a" d="M1841 533h4l-1 3-3-1z"/><path fill="#0f2419" d="m89 519 3 1v3l-3-1z"/><path fill="#0e2515" d="M107 503h2l1 4-4-2z"/><path fill="#0a2816" d="M115 502h3v3l-4-1z"/><path fill="#12241e" d="M1823 419h2l-1 4h-2z"/><path fill="#0b2714" d="M732 398h2l-1 4h-2z"/><path fill="#191f23" d="m1230 360 3 1v3h-3z"/><path fill="#0a2812" d="m124 359 3 1-1 3h-2z"/><path fill="#14211e" d="m177 330 4 1v3h-2v-2h-2z"/><path fill="#15221d" d="m467 329 3 3h-4z"/><path fill="#181f20" d="m480 320 3 1-1 3h-2z"/><path fill="#152020" d="M773 308h3l-1 3h-3z"/><path fill="#112417" d="m191 305 4 1v2l-4-1z"/><path fill="#13221b" d="M789 300h3v4h-2z"/><path fill="#191e21" d="m513 292 3 3h-4z"/><path fill="#12241e" d="m310 209 3 1v3l-3-1z"/><path fill="#052b0f" d="m181 191 4 1-1 2h-3z"/><path fill="#0c2711" d="M259 173h4l-1 3-3-1z"/><path fill="#15211c" d="m305 845 2 1-1 3h-2z"/><path fill="#191e1f" d="M756 811h3v3h-3z"/><path fill="#161f20" d="m277 792 1 3-3 1v-3z"/><path fill="#0b2810" d="m288 774 3 1-1 2h-3z"/><path fill="#052c0f" d="m345 758 4 2-2 2z"/><path fill="#15231c" d="M1089 753h2l-1 4h-2z"/><path fill="#16221e" d="M1092 748h3v3h-3z"/><path fill="#14201c" d="m183 731 2 2-4 2z"/><path fill="#0d2712" d="m1099 716 2 1v3l-3-1z"/><path fill="#16201f" d="M205 712h2l-1 4-2-1z"/><path fill="#181f1f" d="m206 688 4 1-1 2-3-1z"/><path fill="#1a1d24" d="M125 683h2l-2 4-2-2z"/><path fill="#16201e" d="m164 676 3 1-1 3-2-1z"/><path fill="#122319" d="M122 674h2v3l-3 1z"/><path fill="#172019" d="m1379 669 5 1v1h-5z"/><path fill="#0e2713" d="m141 646 3 2v2l-4-2z"/><path fill="#12231b" d="m112 598 1 3-3 1v-3z"/><path fill="#112317" d="m98 589 3 2v2l-4-2z"/><path fill="#16201e" d="M136 584h4v2l-3 1z"/><path fill="#171f20" d="M123 580h3l-1 3-3-1z"/><path fill="#0e2518" d="M104 545h3v3h-3z"/><path fill="#16201e" d="m90 504 2 1-1 3h-2z"/><path fill="#0a2710" d="M102 472h3v3h-3z"/><path fill="#10231c" d="M1797 454h3v3h-3z"/><path fill="#0e2516" d="M146 453h2v3l-3 1z"/><path fill="#181e21" d="m1797 413 4 1v2l-4-1z"/><path fill="#10231c" d="M140 400h2v4l-3-1z"/><path fill="#161f1f" d="m1828 393 1 4h-3z"/><path fill="#181e21" d="m1811 380 3 1-1 3-2-1z"/><path fill="#162020" d="m141 379 2 1v3l-3-1z"/><path fill="#13221a" d="m1235 347 2 4h-3z"/><path fill="#0c2712" d="m160 345 3 1-1 3-2-1z"/><path fill="#082c0f" d="m727 324 3 2v2l-4-2z"/><path fill="#042b11" d="M765 318h2l-1 4-2-1z"/><path fill="#171f1f" d="m84 309 2 1v3l-3-1z"/><path fill="#072b0e" d="m711 304 2 1v3l-3-1z"/><path fill="#0e2515" d="M332 298h2l1 3-3 1z"/><path fill="#052d09" d="M151 287h3v3h-3z"/><path fill="#181e21" d="M472 275h3l-1 3-3-1z"/><path fill="#171f1f" d="M600 268h3v3h-3z"/><path fill="#171f20" d="M803 212h3v3h-3z"/><path fill="#16201e" d="m899 193 2 1v3l-3-1z"/><path fill="#072916" d="M502 179h3v3h-3z"/><path fill="#191e22" d="M598 160h2l-1 4-2-1z"/><path fill="#1a1e22" d="m227 844 2 1-1 3-2-1z"/><path fill="#172121" d="M707 813h2v3h-3z"/><path fill="#17211f" d="M629 812h2v3h-3z"/><path fill="#122418" d="m233 769 2 1-1 3-2-1z"/><path fill="#062e0d" d="M170 750h2l-2 4-1-3z"/><path fill="#112519" d="M248 741h2l-1 3-3-1z"/><path fill="#181e22" d="m578 730 2 1-1 3-2-1z"/><path fill="#14211d" d="M375 729h2v4h-2z"/><path fill="#14201c" d="M236 728h2v4h-2z"/><path fill="#0c2813" d="m160 701 1 3-3 1z"/><path fill="#1b1d1f" d="m141 699 3 1-4 2z"/><path fill="#141f22" d="M176 697h4v2h-4z"/><path fill="#142020" d="m157 690 3 1-1 2-3-1z"/><path fill="#1a1d24" d="M122 681h2l-1 4-2-3z"/><path fill="#142122" d="M153 667h4v2h-4z"/><path fill="#152020" d="m138 664 1 3-3 1z"/><path fill="#072a12" d="M148 656h2v4h-2z"/><path fill="#072918" d="M78 651h3l-1 3h-2z"/><path fill="#181e21" d="m117 644 1 3-3 1z"/><path fill="#172026" d="M177 638h2v3h-3z"/><path fill="#072b0d" d="M95 632h3l-1 3h-2z"/><path fill="#14211e" d="M125 626h2v4h-2z"/><path fill="#181f1e" d="M162 623c2 2 2 2 2 4l-3-1z"/><path fill="#072a0e" d="m93 623 3 1-4 2z"/><path fill="#0b2516" d="m77 614 2 1-1 3-2-1z"/><path fill="#09271b" d="m119 609 3 2v2l-3-1z"/><path fill="#14211e" d="m158 598 2 3-1 2h-2z"/><path fill="#14211b" d="M131 591h2l-1 4-2-2z"/><path fill="#11231a" d="M103 589h2v4h-2z"/><path fill="#052b0e" d="M100 580h2v4h-2z"/><path fill="#15201d" d="M113 577h2l-1 3-3-1z"/><path fill="#192021" d="m68 575 2 1-1 3-2-1z"/><path fill="#171f20" d="M139 575h2v4h-2z"/><path fill="#13231a" d="M82 569h2v4h-2z"/><path fill="#112418" d="m126 558 1 3-3 1z"/><path fill="#1d1a27" d="M139 541h3v3l-3-1z"/><path fill="#12221d" d="m85 525 1 3-3 1z"/><path fill="#0c2616" d="m117 514 3 1-4 2z"/><path fill="#10261b" d="M91 483h2v4h-2z"/><path fill="#13221a" d="m1806 449 2 2-1 2h-2z"/><path fill="#072915" d="M83 438h2v4h-2z"/><path fill="#0a2911" d="m102 430 3 1v2h-3z"/><path fill="#062b10" d="M119 424h2v4h-2z"/><path fill="#122319" d="M98 426h2v4h-2z"/><path fill="#112417" d="m125 401 2 1-1 3-2-1z"/><path fill="#052c0c" d="M58 367h2v3h-3z"/><path fill="#062718" d="M135 354h2v4h-2z"/><path fill="#0f241b" d="M684 329h2v4h-2z"/><path fill="#12231a" d="M162 329h2v4h-2z"/><path fill="#171e22" d="M160 320h3v3l-3-1z"/><path fill="#16221e" d="m307 317 3 1-1 2-3-1z"/><path fill="#0e2614" d="m325 312 2 1-3 3c0-3 0-3 1-4"/><path fill="#11231c" d="M722 310h2v3h-3z"/><path fill="#072915" d="m675 311 3 1-1 2-3-1z"/><path fill="#181e21" d="m747 290 2 1-1 3-2-1z"/><path fill="#192021" d="M289 288h2v4h-2z"/><path fill="#181f20" d="M277 172h2v4h-2z"/><path fill="#181e21" d="m355 154 3 1v2h-3z"/><path fill="#0b2812" d="M311 788h2v3l-3-1z"/><path fill="#0a2a13" d="M334 785h2v3l-3-1z"/><path fill="#0b2a10" d="M244 764h3l-1 3-2-1z"/><path fill="#112319" d="M294 738h2l-1 4z"/><path fill="#162119" d="M283 739h3v2l-4-1z"/><path fill="#14211e" d="M277 728h3l-1 3-2-1z"/><path fill="#052d09" d="m126 727 3 1-1 2h-2z"/><path fill="#16201e" d="m377 725 3 2-1 2-2-1z"/><path fill="#142316" d="M180 720h3v2l-4-1z"/><path fill="#1c1d24" d="m412 709 1 2 2 1h-4z"/><path fill="#0f251b" d="M1362 687h3v2l-4-1z"/><path fill="#1c1b26" d="M194 683h3v2l-4-1z"/><path fill="#14231d" d="m1348 675 4 1-4 1z"/><path fill="#171e23" d="M118 669h2l-1 3h-2z"/><path fill="#14211f" d="M197 661h2v5c-2-3-2-3-2-5"/><path fill="#0d211a" d="M1380 658h3v2l-4-1z"/><path fill="#1c1b26" d="m114 642 2 1v2h-3z"/><path fill="#161f20" d="m114 633 3 1-3 2z"/><path fill="#12201e" d="M75 612h2l-1 3h-2z"/><path fill="#072915" d="m74 605 2 1-1 3-2-3z"/><path fill="#13221c" d="M128 596h3l-1 3-2-1z"/><path fill="#072819" d="M55 594h2l-1 4z"/><path fill="#13221c" d="M151 568h2v3l-3-1z"/><path fill="#11231b" d="M136 566h2l-1 4z"/><path fill="#122319" d="m123 563 3 1-1 2h-2z"/><path fill="#192021" d="M83 547h2l-1 3h-2z"/><path fill="#14211b" d="m95 531 1 4h-2z"/><path fill="#181e21" d="M143 530h2l-1 4-2-1z"/><path fill="#171f20" d="m105 525 3 1v2l-3-1z"/><path fill="#0a2717" d="m77 481 2 1-1 2-3-1z"/><path fill="#102615" d="M127 469h2l-1 4z"/><path fill="#161e1f" d="m57 463 2 1-1 3-2-3z"/><path fill="#14211e" d="M168 459h2l1 4h-2z"/><path fill="#0e251c" d="M137 453h3l-1 3-2-1z"/><path fill="#13211e" d="M155 448h2l-1 3h-2z"/><path fill="#15211d" d="M118 444h2l-1 3h-2z"/><path fill="#0e2813" d="M152 400h4v2l-4-1z"/><path fill="#102417" d="M735 392h2l-1 4z"/><path fill="#072c0a" d="M742 368h3l-1 3-2-1z"/><path fill="#092a0e" d="m487 367 3 1-1 2h-2z"/><path fill="#1b1c21" d="m773 341 3 1-1 2h-2z"/><path fill="#0b2a12" d="m473 334 2 1-4 2v-2z"/><path fill="#1a1d25" d="M782 314h2l-1 3h-2z"/><path fill="#191e21" d="m507 314 3 1-1 2h-2z"/><path fill="#102616" d="m316 315 3 1-1 2h-2z"/><path fill="#14211b" d="M198 315h2l-1 4z"/><path fill="#171f1f" d="M480 304h2l-1 3h-2z"/><path fill="#191e21" d="m347 284 3 1-1 2h-2zm229-10h3l-1 3-2-1z"/><path fill="#092c16" d="M428 802h2v3h-2z"/><path fill="#122417" d="M270 793h2v3h-2z"/><path fill="#092b11" d="M293 790h2v3h-2z"/><path fill="#07291a" d="M175 763h2v3h-2z"/><path fill="#171f1f" d="M267 761h3v2h-3z"/><path fill="#14241b" d="M454 745h2v3h-2z"/><path fill="#102323" d="M233 725h2v3h-2z"/><path fill="#0a2717" d="M205 727h2v3h-2z"/><path fill="#16221e" d="M228 724h2v3h-2z"/><path fill="#0b2a10" d="M198 721h3v2h-3z"/><path fill="#072b0f" d="M124 700h3v2h-3z"/><path fill="#092d13" d="M103 697h2v3h-2z"/><path fill="#122415" d="M636 693h2v3h-2z"/><path fill="#171f1f" d="M197 686h2v3h-2z"/><path fill="#171e24" d="M121 661h2l-1 3-2-2z"/><path fill="#171f20" d="M81 660h2v3h-2z"/><path fill="#072a12" d="M116 652h3v2h-3z"/><path fill="#082e0f" d="M60 640h2v3h-2z"/><path fill="#1a1d25" d="M163 617h2v3h-2z"/><path fill="#102418" d="M108 616h2v3h-2z"/><path fill="#132317" d="M149 616h3v2h-3z"/><path fill="#122319" d="M110 610h3v2h-3z"/><path fill="#15211d" d="M105 607h2v3h-2z"/><path fill="#052c0b" d="M119 584h3v2h-3z"/><path fill="#132026" d="M121 569h3v2h-3z"/><path fill="#0a2a0f" d="m103 567 3 1-4 1z"/><path fill="#15211c" d="M69 554h2v3h-2z"/><path fill="#082a0d" d="M118 545h3v2h-3z"/><path fill="#092b1b" d="M63 530h2v3h-2z"/><path fill="#072b0c" d="M96 510h2v3h-2z"/><path fill="#1a1d23" d="M96 501h3v2h-3z"/><path fill="#191e20" d="M149 483h2v3h-2z"/><path fill="#0e2518" d="M146 475h2v3h-2z"/><path fill="#102716" d="M129 465h3v2h-3z"/><path fill="#072c0c" d="M88 465h2v3h-2z"/><path fill="#092a16" d="M153 442h3v2h-3z"/><path fill="#14211e" d="M129 428h2v3h-2z"/><path fill="#1a1d23" d="m118 402 2 1-1 2h-2zm11-16h2v3h-2z"/><path fill="#052c0d" d="m98 384 2 1-1 3z"/><path fill="#052c0e" d="M152 356h2v3h-2z"/><path fill="#1a1d25" d="M739 345h3v2h-3z"/><path fill="#12221e" d="M498 343h3v2h-3z"/><path fill="#191d22" d="M715 331h2v3h-2z"/><path fill="#1b1c24" d="m750 320 2 1v2l-3-1z"/><path fill="#082c10" d="M464 321h2v3h-2z"/><path fill="#122319" d="m481 308 3 1-2 2z"/><path fill="#052d09" d="M495 306h3v2h-3z"/><path fill="#062e0a" d="M310 303h3v2h-3z"/><path fill="#052d09" d="M334 268h2v3h-2z"/><path fill="#052a18" d="M696 250h2v3h-2z"/><path fill="#0c2a0e" d="M231 775h2v2l-3-1z"/><path fill="#191f24" d="m327 732 2 1v2h-2z"/><path fill="#052a14" d="m147 730 3 1-3 1z"/><path fill="#13221d" d="m237 710 2 1v2h-2z"/><path fill="#192024" d="m220 682 1 3h-2z"/><path fill="#12221f" d="m130 653 2 1v2h-2z"/><path fill="#1c1b25" d="m81 643 3 1-3 1z"/><path fill="#072b10" d="m87 596 2 1v2h-2z"/><path fill="#13221c" d="m154 569 2 1v2h-2z"/><path fill="#15201d" d="m140 570 3 1-3 1z"/><path fill="#0c2912" d="m90 557 3 1-3 1z"/><path fill="#09290f" d="M1786 510h2l1 3h-2z"/><path fill="#0d251d" d="m105 505 2 2h-3z"/><path fill="#191e22" d="m128 499 3 1-3 1z"/><path fill="#0a2b12" d="m138 464 3 1-3 1z"/><path fill="#0a270f" d="M141 439h3v2l-3-1z"/><path fill="#072c0b" d="M150 437h2l-1 3z"/><path fill="#171f1f" d="M123 433h3v2l-3-1z"/><path fill="#14211e" d="m725 427 2 2-3 1z"/><path fill="#072c0b" d="m724 367 3 1-3 1z"/><path fill="#072a13" d="m139 360 3 1-3 1z"/><path fill="#122319" d="M726 305h2v2l-3-1z"/><path fill="#072a12" d="M274 809h2v2h-2z"/><path fill="#072c0b" d="M297 806h2v2h-2z"/><path fill="#072b0f" d="M369 768h2v2h-2z"/><path fill="#062c16" d="M187 748h2v2h-2z"/><path fill="#0a290d" d="M264 736h2v2h-2z"/><path fill="#12221d" d="M381 728h2v2h-2z"/><path fill="#182020" d="M219 700h2v2h-2z"/><path fill="#181f27" d="M209 686h2v2h-2z"/><path fill="#132317" d="m203 684 2 1-2 2z"/><path fill="#152023" d="M195 659h2v2h-2z"/><path fill="#13221d" d="M140 627h2v2h-2zm13-9h2v2h-2z"/><path fill="#062c0e" d="M118 590h2v2h-2z"/><path fill="#1b1c24" d="M115 581h2v2h-2z"/><path fill="#132224" d="m1759 577 1 2-3-1z"/><path fill="#082c0c" d="M130 575h2v2h-2z"/><path fill="#162020" d="M155 573h2v2h-2z"/><path fill="#12231a" d="M97 570h2v2h-2z"/><path fill="#0a2814" d="M132 506h2v2h-2z"/><path fill="#062e0c" d="M106 484h2v2h-2z"/><path fill="#152020" d="M151 479h2v2h-2z"/><path fill="#122319" d="M124 475h2v2h-2z"/><path fill="#191d25" d="M168 464h2v2h-2z"/><path fill="#082c0f" d="M98 439h2v2h-2z"/><path fill="#052d0b" d="M710 378h2v2h-2z"/><path fill="#1c1c26" d="M757 331h2v2h-2z"/><path fill="#122319" d="M472 310h2v2h-2z"/><path fill="#052c0d" d="M753 306h2v2h-2z"/><path fill="#171f23" d="M769 305h2v2h-2z"/><path fill="#052d09" d="M782 290h2v2h-2z"/><path fill="#052c0d" d="M324 289h2v2h-2z"/><path fill="#08300b" d="M805 286h2v2h-2z"/><path fill="#062a19" d="m192 763 1 2-2-1z"/><path fill="#162120" d="m336 739 1 2-2-1z"/><path fill="#16221e" d="m347 734 2 1-2 1z"/><path fill="#161f21" d="m272 733 2 2h-2z"/><path fill="#052d09" d="m168 734 2 1-2 1z"/><path fill="#16201b" d="m240 731 1 2-2-1z"/><path fill="#0c2818" d="m397 729 1 2-2-1z"/><path fill="#132319" d="M370 726h2l-1 2z"/><path fill="#11231a" d="m235 718 2 1-2 1z"/><path fill="#122317" d="m219 712 1 2-2-1z"/><path fill="#0c2715" d="m146 697 2 1-2 1z"/><path fill="#14231d" d="m621 688 2 1-2 1z"/><path fill="#102517" d="m196 678 2 1-2 1z"/><path fill="#0d2713" d="m125 677 2 1-2 1z"/><path fill="#191e23" d="m200 660 2 2h-2z"/><path fill="#14211f" d="m167 631 2 1-2 1z"/><path fill="#0e2518" d="M144 596h2l-1 2z"/><path fill="#0d2513" d="m134 590 2 2h-2z"/><path fill="#112416" d="m138 520 2 2h-2z"/><path fill="#0f2515" d="m142 504 2 2h-2z"/><path fill="#14221c" d="m162 463 2 1-2 1z"/><path fill="#052d09" d="m126 440 2 1-2 1z"/><path fill="#14211d" d="m735 418 2 2h-2z"/><path fill="#052d09" d="m730 386 2 2h-2z"/><path fill="#072a14" d="m490 356 3 1Z"/><path fill="#162120" d="m296 304 1 2-2-1z"/><path fill="#052a15" d="m180 276 1 2-2-1z"/><path fill="#0b2a11"/><path fill="#12231d" d="m382 731 2 1Z"/><path fill="#072b0d"/><path fill="#1c1e22"/><path fill="#0d271f"/><path fill="#10251c" d="m413 715 2 1Z"/><path fill="#14221d" d="m235 715 2 1Z"/><path fill="#052e07"/><path fill="#15211f"/><path fill="#14221d" d="m235 707 2 1Z"/><path fill="#052b12"/><path fill="#072a15" d="m627 689 2 1Z"/><path fill="#15241b"/><path fill="#13241f" d="m213 687 2 1Z"/><path fill="#052b12" d="m188 671 2 1Z"/><path fill="#13221d" d="m188 656 2 1Z"/><path fill="#182026" d="m191 653 2 1Z"/><path fill="#172220"/><path fill="#0e251c"/><path fill="#171f22"/><path fill="#0a2816"/><path fill="#0f251a" d="m146 569 2 1Z"/><path fill="#062b0a"/><path fill="#13221b" d="m139 527 2 1Z"/><path fill="#12221d"/><path fill="#082b0a"/><path fill="#092915"/><path fill="#0e2711" d="m146 482 2 1Z"/><path fill="#181f20" d="m162 455 2 1Z"/><path fill="#181f22"/><path fill="#082915"/><path fill="#102417"/><path fill="#052d09"/><path fill="#122513"/><path fill="#0d2914"/><path fill="#182122"/><path fill="#082a11"/><path fill="#132322"/><path fill="#12231b"/><path fill="#15211d"/><path fill="#102321"/><path fill="#1a1d25"/><path fill="#15211f"/><path fill="#14221d"/><path fill="#072c09"/><path fill="#122415"/><path fill="#192024"/><path fill="#181e23"/><path fill="#1c1c27"/><path fill="#0f2519"/><path fill="#102419"/><path fill="#192024"/><path fill="#172021"/><path fill="#15211d"/><path fill="#14221f"/><path fill="#192022"/><path fill="#122513"/><path fill="#14221b"/></svg>