<svg xmlns="http://www.w3.org/2000/svg" width="1440" height="1031" viewBox="0 0 1440 1031" fill="none">
  <g filter="url(#filter0_f_995_1524)">
    <path d="M1177 610C1177 628.83 1185.22 646.89 1199.85 660.205C1214.47 673.52 1234.31 681 1255 681C1275.69 681 1295.53 673.52 1310.15 660.205C1324.78 646.89 1333 628.83 1333 610L1177 610Z" fill="#D9D9D9" fill-opacity="0.5"/>
    <path d="M576 350C576 428.504 591.487 503.793 619.055 559.304C646.623 614.814 684.013 646 723 646C761.987 646 799.377 614.814 826.945 559.304C854.513 503.793 870 428.504 870 350L576 350Z" fill="#FFFCE0" fill-opacity="0.75"/>
    <path d="M54 402.5C54 427.828 63.1134 452.119 79.3353 470.029C95.5572 487.938 117.559 498 140.5 498C163.441 498 185.443 487.938 201.665 470.029C217.887 452.119 227 427.828 227 402.5L54 402.5Z" fill="#D9D9D9" fill-opacity="0.5"/>
  </g>
  <defs>
    <filter id="filter0_f_995_1524" x="-296" y="0" width="1979" height="1031" filterUnits="userSpaceOnUse" color-interpolation-filters="sRGB">
      <feFlood flood-opacity="0" result="BackgroundImageFix"/>
      <feBlend mode="normal" in="SourceGraphic" in2="BackgroundImageFix" result="shape"/>
      <feGaussianBlur stdDeviation="175" result="effect1_foregroundBlur_995_1524"/>
    </filter>
  </defs>
</svg>