<svg width="277" height="123" viewBox="0 0 277 123" fill="none" xmlns="http://www.w3.org/2000/svg">
<g filter="url(#filter0_n_193_199899)">
<path d="M31.0233 5.633L30.6089 9.61148L31.0233 5.633ZM34.0233 5.94546L33.6089 9.92394L34.0233 5.94546ZM43.0233 5.44103L41.8536 1.61587L43.0233 5.44103ZM44.5233 4.98236L43.3536 1.15719L44.5233 4.98236ZM52.0233 4.06047L52.0193 0.0604763L52.0233 4.06047ZM55.0233 5.12967L52.6994 8.38534L55.0233 5.12967ZM58.0233 7.27109L60.3472 4.01542L58.0233 7.27109ZM61.0233 7.537L59.1322 4.01228L61.0233 7.537ZM62.5233 6.7322L64.4144 10.2569L62.5233 6.7322ZM64.0233 5.9274L62.1322 2.40268L64.0233 5.9274ZM67.0233 5.77453L68.6177 2.10603L67.0233 5.77453ZM70.0233 7.07839L68.4289 10.7469L70.0233 7.07839ZM73.0233 7.28534L71.8857 3.45052L73.0233 7.28534ZM76.0233 6.39538L77.1609 10.2302L76.0233 6.39538ZM79.0233 6.53126L77.5788 10.2613L79.0233 6.53126ZM82.0233 7.693L83.4678 3.96291L82.0233 7.693ZM85.0233 7.47104L86.9108 10.9977L85.0233 7.47104ZM88.0233 5.8654L86.1358 2.33875L88.0233 5.8654ZM91.0233 5.46651L92.0634 1.6041L91.0233 5.46651ZM94.0233 6.27437L92.9832 10.1368L94.0233 6.27437ZM97.0233 7.00543L97.8756 3.09729V3.09729L97.0233 7.00543ZM98.5233 7.33257L97.671 11.2407L98.5233 7.33257ZM100.023 7.65971L99.171 11.5678V11.5678L100.023 7.65971ZM103.023 7.25087L101.261 3.65983L103.023 7.25087ZM104.523 6.51489L102.761 2.92385V2.92385L104.523 6.51489ZM106.023 5.77892L107.785 9.36996L106.023 5.77892ZM109.023 5.6687L107.483 9.36035L109.023 5.6687ZM112.023 6.92021L113.563 3.22856L112.023 6.92021ZM115.023 6.77193L113.189 3.21729L115.023 6.77193ZM118.023 5.22387L119.858 8.77851L118.023 5.22387ZM121.023 5.03463L119.57 8.76142L121.023 5.03463ZM127.023 7.22184L125.914 11.065L127.023 7.22184ZM130.023 8.08753L131.132 4.24434L130.023 8.08753ZM139.023 7.8545L140.859 11.4084L139.023 7.8545ZM140.523 7.07972L138.688 3.52581L140.523 7.07972ZM145.023 5.22592L145.818 9.14609L145.023 5.22592ZM148.023 4.61742L147.228 0.697247L148.023 4.61742ZM160.023 7.39135L162.378 4.15822L160.023 7.39135ZM163.023 8.45124L162.936 4.4522L163.023 8.45124ZM172.023 8.14621L172.207 12.142L172.023 8.14621ZM175.023 7.517L173.624 3.76989L175.023 7.517ZM182.523 6.8963L181.19 10.6677L182.523 6.8963ZM184.023 7.42643L185.356 3.65504L184.023 7.42643ZM187.023 7.09589L185.033 3.62644L187.023 7.09589ZM190.023 5.37454L192.014 8.84399L190.023 5.37454ZM193.023 4.55265L192.92 8.55131L193.023 4.55265ZM196.023 4.63021L195.92 8.62887L196.023 4.63021ZM199.023 4.55302L198.715 0.564918L199.023 4.55302ZM202.023 4.32106L202.332 8.30916L202.023 4.32106ZM205.023 4.138L204.845 0.141994L205.023 4.138ZM208.023 4.00382L207.845 0.00781822L208.023 4.00382ZM214.023 7.51838L216.514 4.38869V4.38869L214.023 7.51838ZM217.023 8.37853L216.155 4.47401L217.023 8.37853ZM223.023 7.22255L222.613 3.24368L223.023 7.22255ZM229.023 6.83858L228.809 10.8328L229.023 6.83858ZM230.523 6.91893L230.309 10.9132L230.523 6.91893ZM232.023 6.99928L232.237 3.00501L232.023 6.99928ZM235.023 7.02426L234.876 3.02698L235.023 7.02426ZM244.023 6.29135L244.523 10.26L244.023 6.29135ZM247.023 5.57198L245.69 1.80083L247.023 5.57198ZM253.106 4.34306L252.213 8.24212L253.106 4.34306ZM256.271 5.06783L255.378 8.96689L256.271 5.06783ZM258.858 6.79449L262.078 4.42182L258.858 6.79449ZM260.869 9.52304L264.089 7.15037L260.869 9.52304ZM262.848 11.8049L260.106 14.7171L262.848 11.8049ZM263.823 12.7225L266.565 9.81027L263.823 12.7225ZM264.797 13.64L262.055 16.5522L264.797 13.64ZM266.285 15.7797L269.973 14.2308L266.285 15.7797ZM266.798 17.0018L263.11 18.5506L266.798 17.0018ZM267.311 18.2239L263.623 19.7727L267.311 18.2239ZM269.131 20.7606L266.294 23.58L269.131 20.7606ZM270.437 22.0753L273.275 19.2558L270.437 22.0753ZM271.744 23.3899L268.906 26.2093L271.744 23.3899ZM271.552 32.2046L268.15 30.1007L271.552 32.2046ZM270.625 33.7046L274.027 35.8085L270.625 33.7046ZM269.697 35.2046L266.295 33.1007L269.697 35.2046ZM269.415 38.2046L265.741 39.7859L269.415 38.2046ZM270.061 39.7046L266.386 41.2859L270.061 39.7046ZM270.706 41.2046L274.38 39.6233L270.706 41.2046ZM270.869 44.2046L274.677 45.4293L270.869 44.2046ZM270.387 45.7046L266.579 44.4799L270.387 45.7046ZM269.905 47.2046L266.097 45.9799L269.905 47.2046ZM270.193 50.2046L266.635 52.0331L270.193 50.2046ZM271.735 53.2046L275.293 51.376L271.735 53.2046ZM272.203 56.2046L268.282 55.4134L272.203 56.2046ZM271.598 59.2046L275.519 59.9958L271.598 59.2046ZM271.191 62.2046L275.181 62.4822L271.191 62.2046ZM270.982 65.2046L266.992 64.927L270.982 65.2046ZM270.314 68.2046L274.059 69.6112L270.314 68.2046ZM269.188 71.2046L265.443 69.798L269.188 71.2046ZM268.682 74.2046L264.685 74.3583L268.682 74.2046ZM268.797 77.2046L272.794 77.0509L268.797 77.2046ZM269.551 80.2046L265.922 81.888L269.551 80.2046ZM270.942 83.2046L274.571 81.5212L270.942 83.2046ZM271.554 86.2046L267.561 85.9808L271.554 86.2046ZM271.386 89.2046L275.38 89.4284L271.386 89.2046ZM271.761 92.2046L267.936 93.3748L271.761 92.2046ZM272.679 95.2046L276.504 94.0344L272.679 95.2046ZM272.139 98.1287L275.413 100.426L272.139 98.1287ZM271.139 99.5527L274.414 101.85L271.139 99.5527ZM270.14 100.977L266.866 98.6795L270.14 100.977ZM268.815 103.826L264.916 102.935L268.815 103.826ZM268.164 106.677L272.063 107.568L268.164 106.677ZM267.089 109.521L263.551 107.655L267.089 109.521ZM265.592 112.359L269.13 114.225L265.592 112.359ZM261.599 114.16L262.067 118.133L261.599 114.16ZM259.977 114.351L259.51 110.379L259.977 114.351ZM256.951 115.115L255.439 111.412L256.951 115.115ZM254.143 116.262L255.655 119.965L254.143 116.262ZM251.239 116.634L251.772 112.669L251.239 116.634ZM248.239 116.231L247.707 120.195L248.239 116.231ZM245.239 116.694L243.619 113.037L245.239 116.694ZM242.239 118.023L240.619 114.366L242.239 118.023ZM239.239 117.684L241.464 114.36L239.239 117.684ZM236.239 115.675L234.014 118.999L236.239 115.675ZM233.239 114.926L232.571 110.982L233.239 114.926ZM231.739 115.18L232.408 119.124L231.739 115.18ZM230.239 115.434L230.908 119.378L230.239 115.434ZM227.239 115.721L227.327 119.72L227.239 115.721ZM225.739 115.754L225.651 111.755L225.739 115.754ZM224.239 115.787L224.327 119.787L224.239 115.787ZM221.239 115.991L221.69 119.965L221.239 115.991ZM219.739 116.161L220.19 120.135L219.739 116.161ZM218.239 116.331L217.788 112.356L218.239 116.331ZM215.239 116.224L214.513 120.157L215.239 116.224ZM212.239 115.67L212.966 111.736L212.239 115.67ZM209.239 115.946L210.624 119.699L209.239 115.946ZM206.239 117.053L204.854 113.3L206.239 117.053ZM203.239 116.929L201.591 120.573L203.239 116.929ZM200.239 115.572L198.591 119.217L200.239 115.572ZM197.239 114.846L197.111 118.844L197.239 114.846ZM194.239 114.75L194.368 110.752L194.239 114.75ZM191.239 114.831L191.582 118.816L191.239 114.831ZM189.739 114.96L189.396 110.974L189.739 114.96ZM188.239 115.089L187.896 111.103L188.239 115.089ZM185.239 115.026L184.732 118.994L185.239 115.026ZM182.239 114.643L182.746 110.675L182.239 114.643ZM179.239 114.558L178.954 110.568L179.239 114.558ZM176.239 114.772L176.524 118.762L176.239 114.772ZM173.239 115.038L173.659 119.016L173.239 115.038ZM170.239 115.354L169.819 111.376L170.239 115.354ZM167.239 115.413L167.504 111.422L167.239 115.413ZM164.239 115.214L163.974 119.205L164.239 115.214ZM161.239 115.639L162.561 119.414L161.239 115.639ZM158.239 116.69L156.917 112.914L158.239 116.69ZM155.239 117.478L154.548 113.538L155.239 117.478ZM152.239 118.004L152.931 121.944L152.239 118.004ZM149.239 118.3L149.326 122.299L149.239 118.3ZM147.739 118.333L147.826 122.332L147.739 118.333ZM146.239 118.365L146.152 114.366L146.239 118.365ZM143.239 118.227L142.785 122.201L143.239 118.227ZM140.239 117.884L140.693 113.91L140.239 117.884ZM137.239 117.134L138.679 113.402L137.239 117.134ZM134.239 115.977L132.799 119.709L134.239 115.977ZM131.239 116.021L132.772 119.715L131.239 116.021ZM128.239 117.266L129.772 120.96L128.239 117.266ZM125.239 117.407L124.018 121.216L125.239 117.407ZM123.739 116.926L124.96 113.117L123.739 116.926ZM122.239 116.445L121.018 120.254L122.239 116.445ZM119.239 116.362L120.265 120.229L119.239 116.362ZM116.239 117.158L115.213 113.292L116.239 117.158ZM113.239 116.686L115.246 113.226L113.239 116.686ZM110.239 114.946L108.232 118.406L110.239 114.946ZM105.739 114.976L104.589 111.145L105.739 114.976ZM104.239 115.426L105.389 119.257L104.239 115.426ZM101.239 115.711L100.801 119.687L101.239 115.711ZM99.7391 115.546L100.177 111.57L99.7391 115.546ZM98.2391 115.38L98.6775 111.404L98.2391 115.38ZM95.2391 115.397L94.7561 111.427L95.2391 115.397ZM93.7391 115.58L94.2221 119.551L93.7391 115.58ZM92.2391 115.762L91.7561 111.792L92.2391 115.762ZM89.2391 115.635L90.0494 111.717L89.2391 115.635ZM87.7391 115.324L86.9288 119.241L87.7391 115.324ZM86.2391 115.014L87.0494 111.097L86.2391 115.014ZM83.2391 115.699L81.0276 112.366L83.2391 115.699ZM80.2391 117.689L82.4506 121.023L80.2391 117.689ZM77.2391 118.169L78.5387 114.386L77.2391 118.169ZM74.2391 117.139L72.9395 120.922L74.2391 117.139ZM71.2391 116.077L69.8696 119.835L71.2391 116.077ZM68.2391 114.984L69.6086 111.225L68.2391 114.984ZM65.2391 115.154L63.5139 111.545L65.2391 115.154ZM62.2391 116.588L63.9644 120.197L62.2391 116.588ZM59.2391 117.138L58.7952 121.113L59.2391 117.138ZM57.7391 116.97L58.183 112.995L57.7391 116.97ZM56.2391 116.803L55.7952 120.778L56.2391 116.803ZM53.2391 116.012L54.7753 112.318L53.2391 116.012ZM50.2391 114.764L51.7753 111.07L50.2391 114.764ZM47.2391 115.255L49.6251 118.465L47.2391 115.255ZM44.2391 117.484L41.8531 114.274L44.2391 117.484ZM41.2391 117.922L39.5929 121.567L41.2391 117.922ZM38.2391 116.567L36.5929 120.212L38.2391 116.567ZM35.2391 115.797L35.4856 111.805L35.2391 115.797ZM32.2391 115.612L31.9926 119.604L32.2391 115.612ZM29.2391 115.636L29.5489 119.624L29.2391 115.636ZM27.7391 115.752L27.4294 111.764L27.7391 115.752ZM26.2391 115.869L26.5489 119.857L26.2391 115.869ZM23.3188 115.669L22.4509 119.574L23.3188 115.669ZM21.8985 115.354L21.0306 119.258L21.8985 115.354ZM20.4782 115.038L21.3462 111.133L20.4782 115.038ZM17.7542 114.164L19.3298 110.487L17.7542 114.164ZM16.4504 113.605L14.8749 117.282L16.4504 113.605ZM15.1467 113.046L13.5711 116.723L15.1467 113.046ZM13.0087 111.355L9.78812 113.727L13.0087 111.355ZM11.3402 109.09L14.5608 106.718L11.3402 109.09ZM9.35566 106.91L12.0484 103.952L9.35566 106.91ZM5.77359 102.242L1.78824 102.584L5.77359 102.242ZM5.23545 96.1623L1.25402 96.5473L5.23545 96.1623ZM4.70689 81.1623L0.712743 80.946L4.70689 81.1623ZM5.45841 78.1623L9.11038 79.7942L5.45841 78.1623ZM6.12869 76.6623L2.47672 75.0304L6.12869 76.6623ZM6.79898 75.1623L3.14701 73.5304L6.79898 75.1623ZM6.80308 72.1623L3.14739 73.7859L6.80308 72.1623ZM5.47072 69.1623L9.12641 67.5387L5.47072 69.1623ZM4.6525 66.1623L0.672895 66.5657L4.6525 66.1623ZM5.08598 60.1623L8.52643 62.2027V62.2027L5.08598 60.1623ZM6.86518 57.1623L3.42473 55.1219V55.1219L6.86518 57.1623ZM7.43367 54.1623L3.52229 54.9996L7.43367 54.1623ZM6.24612 48.1623L2.29007 48.7537L6.24612 48.1623ZM5.79766 45.1623L9.75371 44.5709L5.79766 45.1623ZM6.19952 42.1623L9.89088 43.703L6.19952 42.1623ZM6.36655 33.1623L2.62775 34.584L6.36655 33.1623ZM4.19549 27.1623L0.426805 28.5028L4.19549 27.1623ZM5.51503 22.8177L2.16346 20.6343L5.51503 22.8177ZM9.8608 13.1259L6.38719 11.1424L9.8608 13.1259ZM19.1406 6.10336L18.206 9.99264L19.1406 6.10336ZM22.0624 6.80549L21.1278 10.6948L22.0624 6.80549ZM26.5233 5.89463L27.0751 9.85639L28.5751 9.64745L28.0233 5.6857L27.4715 1.72395L25.9715 1.93288L26.5233 5.89463ZM28.0233 5.6857L28.5751 9.64745C29.2563 9.55258 29.9319 9.54096 30.6089 9.61148L31.0233 5.633L31.4377 1.65452C30.1148 1.51673 28.7903 1.54025 27.4715 1.72395L28.0233 5.6857ZM31.0233 5.633L30.6089 9.61148L32.1089 9.76771L32.5233 5.78923L32.9377 1.81075L31.4377 1.65452L31.0233 5.633ZM32.5233 5.78923L32.1089 9.76771L33.6089 9.92394L34.0233 5.94546L34.4377 1.96698L32.9377 1.81075L32.5233 5.78923ZM34.0233 5.94546L33.6089 9.92394C34.7904 10.047 35.9738 10.0888 37.1579 10.0489L37.0233 6.05119L36.8887 2.05346C36.0728 2.08092 35.2562 2.05224 34.4377 1.96698L34.0233 5.94546ZM37.0233 6.05119L37.1579 10.0489L38.6579 9.99843L38.5233 6.0007L38.3887 2.00296L36.8887 2.05346L37.0233 6.05119ZM38.5233 6.0007L38.6579 9.99843L40.1579 9.94793L40.0233 5.9502L39.8887 1.95246L38.3887 2.00296L38.5233 6.0007ZM40.0233 5.9502L40.1579 9.94793C41.5245 9.90193 42.8722 9.67006 44.193 9.2662L43.0233 5.44103L41.8536 1.61587C41.1744 1.82356 40.5221 1.93114 39.8887 1.95246L40.0233 5.9502ZM43.0233 5.44103L44.193 9.2662L45.693 8.80753L44.5233 4.98236L43.3536 1.15719L41.8536 1.61587L43.0233 5.44103ZM44.5233 4.98236L45.693 8.80753L47.193 8.34885L46.0233 4.52369L44.8536 0.698524L43.3536 1.15719L44.5233 4.98236ZM46.0233 4.52369L47.193 8.34885C47.8325 8.15328 48.4401 8.06409 49.0273 8.0635L49.0233 4.0635L49.0193 0.0635056C47.6065 0.0649319 46.2141 0.282532 44.8536 0.698524L46.0233 4.52369ZM49.0233 4.0635L49.0273 8.0635L50.5273 8.06199L50.5233 4.06199L50.5193 0.0619912L49.0193 0.0635056L49.0233 4.0635ZM50.5233 4.06199L50.5273 8.06199L52.0273 8.06047L52.0233 4.06047L52.0193 0.0604763L50.5193 0.0619912L50.5233 4.06199ZM52.0233 4.06047L52.0273 8.06047C52.0408 8.06046 52.086 8.06119 52.1805 8.09487C52.2815 8.13088 52.4548 8.21077 52.6994 8.38534L55.0233 5.12967L57.3472 1.874C55.8256 0.787824 54.0287 0.0584478 52.0193 0.0604763L52.0233 4.06047ZM55.0233 5.12967L52.6994 8.38534L54.1994 9.45605L56.5233 6.20038L58.8472 2.94471L57.3472 1.874L55.0233 5.12967ZM56.5233 6.20038L54.1994 9.45605L55.6994 10.5268L58.0233 7.27109L60.3472 4.01542L58.8472 2.94471L56.5233 6.20038ZM58.0233 7.27109L55.6994 10.5268C56.6502 11.2055 57.8168 11.7373 59.1701 11.8573C60.5454 11.9792 61.8196 11.6491 62.9144 11.0617L61.0233 7.537L59.1322 4.01228C59.227 3.96141 59.5012 3.85529 59.8765 3.88854C60.2298 3.91986 60.3964 4.05051 60.3472 4.01542L58.0233 7.27109ZM61.0233 7.537L62.9144 11.0617L64.4144 10.2569L62.5233 6.7322L60.6322 3.20748L59.1322 4.01228L61.0233 7.537ZM62.5233 6.7322L64.4144 10.2569L65.9144 9.45212L64.0233 5.9274L62.1322 2.40268L60.6322 3.20748L62.5233 6.7322ZM64.0233 5.9274L65.9144 9.45212C65.9632 9.42593 65.8914 9.47322 65.7269 9.4816C65.6509 9.48547 65.5796 9.47947 65.5197 9.46798C65.4911 9.4625 65.4686 9.45642 65.4527 9.45144C65.4369 9.44649 65.4289 9.44301 65.4289 9.44303L67.0233 5.77453L68.6177 2.10603C66.443 1.16084 64.1597 1.31483 62.1322 2.40268L64.0233 5.9274ZM67.0233 5.77453L65.4289 9.44303L66.9289 10.095L68.5233 6.42646L70.1177 2.75796L68.6177 2.10603L67.0233 5.77453ZM68.5233 6.42646L66.9289 10.095L68.4289 10.7469L70.0233 7.07839L71.6177 3.40989L70.1177 2.75796L68.5233 6.42646ZM70.0233 7.07839L68.4289 10.7469C70.2492 11.538 72.2156 11.6972 74.1609 11.1202L73.0233 7.28534L71.8857 3.45052C71.8515 3.46067 71.8306 3.46383 71.8209 3.46494C71.8115 3.46601 71.805 3.46602 71.7986 3.46557C71.7917 3.4651 71.7363 3.46142 71.6177 3.40989L70.0233 7.07839ZM73.0233 7.28534L74.1609 11.1202L75.6609 10.6752L74.5233 6.84036L73.3857 3.00554L71.8857 3.45052L73.0233 7.28534ZM74.5233 6.84036L75.6609 10.6752L77.1609 10.2302L76.0233 6.39538L74.8857 2.56056L73.3857 3.00554L74.5233 6.84036ZM76.0233 6.39538L77.1609 10.2302C77.287 10.1928 77.3792 10.1841 77.5788 10.2613L79.0233 6.53126L80.4678 2.80117C78.6674 2.10398 76.7596 2.00465 74.8857 2.56056L76.0233 6.39538ZM79.0233 6.53126L77.5788 10.2613L79.0788 10.8422L80.5233 7.11213L81.9678 3.38204L80.4678 2.80117L79.0233 6.53126ZM80.5233 7.11213L79.0788 10.8422L80.5788 11.4231L82.0233 7.693L83.4678 3.96291L81.9678 3.38204L80.5233 7.11213ZM82.0233 7.693L80.5788 11.4231C82.7355 12.2582 84.9504 12.0469 86.9108 10.9977L85.0233 7.47104L83.1358 3.94439C83.0639 3.98288 83.1022 3.94816 83.2282 3.93884C83.2862 3.93455 83.3429 3.93739 83.3923 3.94513C83.4158 3.94882 83.4345 3.95312 83.4479 3.95676C83.4613 3.96038 83.468 3.96298 83.4678 3.96291L82.0233 7.693ZM85.0233 7.47104L86.9108 10.9977L88.4108 10.1949L86.5233 6.66822L84.6358 3.14157L83.1358 3.94439L85.0233 7.47104ZM86.5233 6.66822L88.4108 10.1949L89.9108 9.39206L88.0233 5.8654L86.1358 2.33875L84.6358 3.14157L86.5233 6.66822ZM88.0233 5.8654L89.9108 9.39206C89.9769 9.35669 90.02 9.34022 90.0408 9.33329C90.0608 9.32659 90.0632 9.32769 90.0505 9.32937C90.0374 9.33112 90.0196 9.33196 90.0013 9.33071C89.9832 9.32948 89.9761 9.32701 89.9832 9.32892L91.0233 5.46651L92.0634 1.6041C89.9829 1.04386 87.9403 1.37297 86.1358 2.33875L88.0233 5.8654ZM91.0233 5.46651L89.9832 9.32892L91.4832 9.73285L92.5233 5.87044L93.5634 2.00803L92.0634 1.6041L91.0233 5.46651ZM92.5233 5.87044L91.4832 9.73285L92.9832 10.1368L94.0233 6.27437L95.0634 2.41196L93.5634 2.00803L92.5233 5.87044ZM94.0233 6.27437L92.9832 10.1368C94.0447 10.4226 95.1073 10.6816 96.171 10.9136L97.0233 7.00543L97.8756 3.09729C96.9393 2.89309 96.0019 2.66469 95.0634 2.41196L94.0233 6.27437ZM97.0233 7.00543L96.171 10.9136L97.671 11.2407L98.5233 7.33257L99.3756 3.42443L97.8756 3.09729L97.0233 7.00543ZM98.5233 7.33257L97.671 11.2407L99.171 11.5678L100.023 7.65971L100.876 3.75157L99.3756 3.42443L98.5233 7.33257ZM100.023 7.65971L99.171 11.5678C101.133 11.9957 103.051 11.6929 104.785 10.8419L103.023 7.25087L101.261 3.65983C100.996 3.79018 100.914 3.75989 100.876 3.75157L100.023 7.65971ZM103.023 7.25087L104.785 10.8419L106.285 10.1059L104.523 6.51489L102.761 2.92385L101.261 3.65983L103.023 7.25087ZM104.523 6.51489L106.285 10.1059L107.785 9.36996L106.023 5.77892L104.261 2.18788L102.761 2.92385L104.523 6.51489ZM106.023 5.77892L107.785 9.36996C107.816 9.35499 107.818 9.35732 107.793 9.36383C107.767 9.37063 107.725 9.37867 107.67 9.38068C107.615 9.38269 107.565 9.37799 107.526 9.37047C107.487 9.36314 107.472 9.35573 107.483 9.36035L109.023 5.6687L110.563 1.97705C108.466 1.10209 106.263 1.20579 104.261 2.18788L106.023 5.77892ZM109.023 5.6687L107.483 9.36035L108.983 9.9861L110.523 6.29445L112.063 2.6028L110.563 1.97705L109.023 5.6687ZM110.523 6.29445L108.983 9.9861L110.483 10.6119L112.023 6.92021L113.563 3.22856L112.063 2.6028L110.523 6.29445ZM112.023 6.92021L110.483 10.6119C112.62 11.5034 114.855 11.3601 116.858 10.3266L115.023 6.77193L113.189 3.21729C113.134 3.2458 113.188 3.2077 113.326 3.20089C113.389 3.19778 113.448 3.20257 113.497 3.21155C113.544 3.22033 113.568 3.23035 113.563 3.22856L112.023 6.92021ZM115.023 6.77193L116.858 10.3266L118.358 9.55254L116.523 5.9979L114.689 2.44326L113.189 3.21729L115.023 6.77193ZM116.523 5.9979L118.358 9.55254L119.858 8.77851L118.023 5.22387L116.189 1.66923L114.689 2.44326L116.523 5.9979ZM118.023 5.22387L119.858 8.77851C119.895 8.75904 119.904 8.7586 119.886 8.76396C119.866 8.76964 119.828 8.77829 119.775 8.78161C119.722 8.78495 119.671 8.78183 119.628 8.77481C119.586 8.76793 119.566 8.75966 119.57 8.76142L121.023 5.03463L122.476 1.30783C120.349 0.478537 118.153 0.655716 116.189 1.66923L118.023 5.22387ZM121.023 5.03463L119.57 8.76142L121.07 9.34621L122.523 5.61942L123.976 1.89262L122.476 1.30783L121.023 5.03463ZM122.523 5.61942L121.07 9.34621L122.57 9.931L124.023 6.20421L125.476 2.47741L123.976 1.89262L122.523 5.61942ZM124.023 6.20421L122.57 9.931C123.68 10.3635 124.794 10.7419 125.914 11.065L127.023 7.22184L128.132 3.37865C127.252 3.12469 126.367 2.82465 125.476 2.47741L124.023 6.20421ZM127.023 7.22184L125.914 11.065L127.414 11.4979L128.523 7.65469L129.632 3.8115L128.132 3.37865L127.023 7.22184ZM128.523 7.65469L127.414 11.4979L128.914 11.9307L130.023 8.08753L131.132 4.24434L129.632 3.8115L128.523 7.65469ZM130.023 8.08753L128.914 11.9307C130.238 12.3126 131.586 12.5222 132.951 12.5469L133.023 8.5476L133.096 4.54826C132.461 4.53673 131.809 4.43959 131.132 4.24434L130.023 8.08753ZM133.023 8.5476L132.951 12.5469L134.451 12.5742L134.523 8.57483L134.596 4.57549L133.096 4.54826L133.023 8.5476ZM134.523 8.57483L134.451 12.5742L135.951 12.6014L136.023 8.60206L136.096 4.60272L134.596 4.57549L134.523 8.57483ZM136.023 8.60206L135.951 12.6014C137.693 12.633 139.345 12.1906 140.859 11.4084L139.023 7.8545L137.188 4.30059C136.702 4.55143 136.353 4.60739 136.096 4.60272L136.023 8.60206ZM139.023 7.8545L140.859 11.4084L142.359 10.6336L140.523 7.07972L138.688 3.52581L137.188 4.30059L139.023 7.8545ZM140.523 7.07972L142.359 10.6336L143.859 9.85886L142.023 6.30494L140.188 2.75103L138.688 3.52581L140.523 7.07972ZM142.023 6.30494L143.859 9.85886C144.564 9.49463 145.216 9.26835 145.818 9.14609L145.023 5.22592L144.228 1.30574C142.831 1.58914 141.482 2.08223 140.188 2.75103L142.023 6.30494ZM145.023 5.22592L145.818 9.14609L147.318 8.84184L146.523 4.92167L145.728 1.0015L144.228 1.30574L145.023 5.22592ZM146.523 4.92167L147.318 8.84184L148.818 8.53759L148.023 4.61742L147.228 0.697247L145.728 1.0015L146.523 4.92167ZM148.023 4.61742L148.818 8.53759C149.605 8.37813 150.383 8.28675 151.156 8.26099L151.023 4.26321L150.89 0.265424C149.663 0.306289 148.442 0.451051 147.228 0.697247L148.023 4.61742ZM151.023 4.26321L151.156 8.26099L152.656 8.21102L152.523 4.21324L152.39 0.215459L150.89 0.265424L151.023 4.26321ZM152.523 4.21324L152.656 8.21102L154.156 8.16106L154.023 4.16328L153.89 0.165494L152.39 0.215459L152.523 4.21324ZM154.023 4.16328L154.156 8.16106C154.137 8.16171 154.147 8.15545 154.21 8.17726C154.281 8.20199 154.434 8.26885 154.668 8.43912L157.023 5.20599L159.378 1.97286C157.832 0.846359 155.976 0.0960197 153.89 0.165494L154.023 4.16328ZM157.023 5.20599L154.668 8.43912L156.168 9.5318L158.523 6.29867L160.878 3.06554L159.378 1.97286L157.023 5.20599ZM158.523 6.29867L156.168 9.5318L157.668 10.6245L160.023 7.39135L162.378 4.15822L160.878 3.06554L158.523 6.29867ZM160.023 7.39135L157.668 10.6245C159.205 11.7442 161.044 12.4955 163.111 12.4503L163.023 8.45124L162.936 4.4522C162.936 4.4522 162.936 4.4522 162.936 4.4522C162.936 4.4522 162.936 4.4522 162.936 4.4522C162.936 4.4522 162.936 4.45219 162.935 4.45216C162.935 4.45211 162.932 4.4519 162.927 4.45112C162.919 4.44966 162.895 4.44509 162.856 4.43112C162.776 4.40286 162.616 4.33139 162.378 4.15822L160.023 7.39135ZM163.023 8.45124L163.111 12.4503L164.611 12.4175L164.523 8.41846L164.436 4.41942L162.936 4.4522L163.023 8.45124ZM164.523 8.41846L164.611 12.4175L166.111 12.3847L166.023 8.38568L165.936 4.38663L164.436 4.41942L164.523 8.41846ZM166.023 8.38568L166.111 12.3847C167.143 12.3622 168.175 12.3272 169.207 12.2798L169.023 8.284L168.84 4.28821C167.872 4.33267 166.904 4.36548 165.936 4.38663L166.023 8.38568ZM169.023 8.284L169.207 12.2798L170.707 12.2109L170.523 8.21511L170.34 4.21932L168.84 4.28821L169.023 8.284ZM170.523 8.21511L170.707 12.2109L172.207 12.142L172.023 8.14621L171.84 4.15042L170.34 4.21932L170.523 8.21511ZM172.023 8.14621L172.207 12.142C173.649 12.0757 175.059 11.7736 176.423 11.2641L175.023 7.517L173.624 3.76989C172.988 4.00744 172.397 4.12482 171.84 4.15042L172.023 8.14621ZM175.023 7.517L176.423 11.2641L177.923 10.7038L176.523 6.95667L175.124 3.20957L173.624 3.76989L175.023 7.517ZM176.523 6.95667L177.923 10.7038L179.423 10.1435L178.023 6.39635L176.624 2.64925L175.124 3.20957L176.523 6.95667ZM178.023 6.39635L179.423 10.1435C179.517 10.1082 179.558 10.1085 179.564 10.1084C179.568 10.1084 179.604 10.1071 179.69 10.1376L181.023 6.36616L182.356 2.59477C180.464 1.92619 178.497 1.9494 176.624 2.64925L178.023 6.39635ZM181.023 6.36616L179.69 10.1376L181.19 10.6677L182.523 6.8963L183.856 3.1249L182.356 2.59477L181.023 6.36616ZM182.523 6.8963L181.19 10.6677L182.69 11.1978L184.023 7.42643L185.356 3.65504L183.856 3.1249L182.523 6.8963ZM184.023 7.42643L182.69 11.1978C184.893 11.9763 187.102 11.6621 189.014 10.5653L187.023 7.09589L185.033 3.62644C184.94 3.67929 184.964 3.64626 185.085 3.63292C185.142 3.62669 185.201 3.6271 185.256 3.63383C185.311 3.64047 185.345 3.65125 185.356 3.65504L184.023 7.42643ZM187.023 7.09589L189.014 10.5653L190.514 9.70466L188.523 6.23522L186.533 2.76577L185.033 3.62644L187.023 7.09589ZM188.523 6.23522L190.514 9.70466L192.014 8.84399L190.023 5.37454L188.033 1.90509L186.533 2.76577L188.523 6.23522ZM190.023 5.37454L192.014 8.84399C192.477 8.5786 192.759 8.54716 192.92 8.55131L193.023 4.55265L193.127 0.553986C191.287 0.506429 189.57 1.02292 188.033 1.90509L190.023 5.37454ZM193.023 4.55265L192.92 8.55131L194.42 8.59009L194.523 4.59143L194.627 0.592766L193.127 0.553986L193.023 4.55265ZM194.523 4.59143L194.42 8.59009L195.92 8.62887L196.023 4.63021L196.127 0.631547L194.627 0.592766L194.523 4.59143ZM196.023 4.63021L195.92 8.62887C197.058 8.65829 198.195 8.62899 199.332 8.54111L199.023 4.55302L198.715 0.564918C197.852 0.631673 196.989 0.653841 196.127 0.631547L196.023 4.63021ZM199.023 4.55302L199.332 8.54111L200.832 8.42514L200.523 4.43704L200.215 0.448942L198.715 0.564918L199.023 4.55302ZM200.523 4.43704L200.832 8.42514L202.332 8.30916L202.023 4.32106L201.715 0.332966L200.215 0.448942L200.523 4.43704ZM202.023 4.32106L202.332 8.30916C203.289 8.23517 204.245 8.17679 205.202 8.13401L205.023 4.138L204.845 0.141994C203.801 0.188658 202.758 0.252318 201.715 0.332966L202.023 4.32106ZM205.023 4.138L205.202 8.13401L206.702 8.06692L206.523 4.07091L206.345 0.0749063L204.845 0.141994L205.023 4.138ZM206.523 4.07091L206.702 8.06692L208.202 7.99983L208.023 4.00382L207.845 0.00781822L206.345 0.0749063L206.523 4.07091ZM208.023 4.00382L208.202 7.99983C208.126 8.00321 208.088 7.98586 208.117 7.99656C208.157 8.01175 208.297 8.07317 208.532 8.26031L211.023 5.13062L213.514 2.00093C211.973 0.774438 210.053 -0.0909576 207.845 0.00781822L208.023 4.00382ZM211.023 5.13062L208.532 8.26031L210.032 9.45419L212.523 6.3245L215.014 3.19481L213.514 2.00093L211.023 5.13062ZM212.523 6.3245L210.032 9.45419L211.532 10.6481L214.023 7.51838L216.514 4.38869L215.014 3.19481L212.523 6.3245ZM214.023 7.51838L211.532 10.6481C213.221 11.9924 215.426 12.8317 217.892 12.2831L217.023 8.37853L216.155 4.47401C216.224 4.45859 216.309 4.449 216.402 4.45198C216.494 4.45496 216.571 4.46966 216.626 4.48529C216.732 4.51585 216.694 4.53194 216.514 4.38869L214.023 7.51838ZM217.023 8.37853L217.892 12.2831L219.392 11.9493L218.523 8.0448L217.655 4.14027L216.155 4.47401L217.023 8.37853ZM218.523 8.0448L219.392 11.9493L220.892 11.6156L220.023 7.71106L219.155 3.80654L217.655 4.14027L218.523 8.0448ZM220.023 7.71106L220.892 11.6156C221.744 11.4261 222.591 11.2884 223.434 11.2014L223.023 7.22255L222.613 3.24368C221.456 3.36305 220.303 3.55105 219.155 3.80654L220.023 7.71106ZM223.023 7.22255L223.434 11.2014L224.934 11.0467L224.523 7.06778L224.113 3.0889L222.613 3.24368L223.023 7.22255ZM224.523 7.06778L224.934 11.0467L226.434 10.8919L226.023 6.913L225.613 2.93413L224.113 3.0889L224.523 7.06778ZM226.023 6.913L226.434 10.8919C227.227 10.81 228.018 10.7905 228.809 10.8328L229.023 6.83858L229.237 2.8443C228.028 2.77954 226.819 2.80962 225.613 2.93413L226.023 6.913ZM229.023 6.83858L228.809 10.8328L230.309 10.9132L230.523 6.91893L230.737 2.92465L229.237 2.8443L229.023 6.83858ZM230.523 6.91893L230.309 10.9132L231.809 10.9936L232.023 6.99928L232.237 3.00501L230.737 2.92465L230.523 6.91893ZM232.023 6.99928L231.809 10.9936C232.93 11.0536 234.05 11.0629 235.171 11.0215L235.023 7.02426L234.876 3.02698C233.996 3.05944 233.117 3.05213 232.237 3.00501L232.023 6.99928ZM235.023 7.02426L235.171 11.0215L236.671 10.9662L236.523 6.96889L236.376 2.97161L234.876 3.02698L235.023 7.02426ZM236.523 6.96889L236.671 10.9662L238.171 10.9108L238.023 6.91351L237.876 2.91624L236.376 2.97161L236.523 6.96889ZM238.023 6.91351L238.171 10.9108C239.29 10.8695 240.407 10.7784 241.523 10.6379L241.023 6.66921L240.523 2.70057C239.64 2.8119 238.757 2.8837 237.876 2.91624L238.023 6.91351ZM241.023 6.66921L241.523 10.6379L243.023 10.4489L242.523 6.48028L242.023 2.51163L240.523 2.70057L241.023 6.66921ZM242.523 6.48028L243.023 10.4489L244.523 10.26L244.023 6.29135L243.523 2.3227L242.023 2.51163L242.523 6.48028ZM244.023 6.29135L244.523 10.26C245.822 10.0964 247.101 9.78727 248.357 9.34313L247.023 5.57198L245.69 1.80083C244.946 2.06394 244.225 2.23436 243.523 2.3227L244.023 6.29135ZM247.023 5.57198L248.357 9.34313L249.857 8.8127L248.523 5.04154L247.19 1.27039L245.69 1.80083L247.023 5.57198ZM248.523 5.04154L249.857 8.8127L251.357 8.28226L250.023 4.51111L248.69 0.739955L247.19 1.27039L248.523 5.04154ZM250.023 4.51111L251.357 8.28226C251.627 8.18687 251.881 8.16619 252.213 8.24212L253.106 4.34306L253.999 0.443992C252.22 0.0367422 250.42 0.128096 248.69 0.739955L250.023 4.51111ZM253.106 4.34306L252.213 8.24212L253.795 8.60451L254.688 4.70544L255.581 0.806377L253.999 0.443992L253.106 4.34306ZM254.688 4.70544L253.795 8.60451L255.378 8.96689L256.271 5.06783L257.163 1.16876L255.581 0.806377L254.688 4.70544ZM256.271 5.06783L255.378 8.96689C255.453 8.98406 255.479 9.00148 255.488 9.00794C255.5 9.01588 255.554 9.05277 255.638 9.16716L258.858 6.79449L262.078 4.42182C260.867 2.77816 259.196 1.63414 257.163 1.16876L256.271 5.06783ZM258.858 6.79449L255.638 9.16716L256.643 10.5314L259.863 8.15876L263.084 5.78609L262.078 4.42182L258.858 6.79449ZM259.863 8.15876L256.643 10.5314L257.648 11.8957L260.869 9.52304L264.089 7.15037L263.084 5.78609L259.863 8.15876ZM260.869 9.52304L257.648 11.8957C258.425 12.9506 259.242 13.9036 260.106 14.7171L262.848 11.8049L265.59 8.89269C265.155 8.48276 264.652 7.9145 264.089 7.15037L260.869 9.52304ZM262.848 11.8049L260.106 14.7171L261.081 15.6347L263.823 12.7225L266.565 9.81027L265.59 8.89269L262.848 11.8049ZM263.823 12.7225L261.081 15.6347L262.055 16.5522L264.797 13.64L267.539 10.7278L266.565 9.81027L263.823 12.7225ZM264.797 13.64L262.055 16.5522C262.302 16.7845 262.473 17.0346 262.597 17.3285L266.285 15.7797L269.973 14.2308C269.412 12.8954 268.592 11.719 267.539 10.7278L264.797 13.64ZM266.285 15.7797L262.597 17.3285L263.11 18.5506L266.798 17.0018L270.486 15.4529L269.973 14.2308L266.285 15.7797ZM266.798 17.0018L263.11 18.5506L263.623 19.7727L267.311 18.2239L270.999 16.675L270.486 15.4529L266.798 17.0018ZM267.311 18.2239L263.623 19.7727C264.227 21.2101 265.194 22.4736 266.294 23.58L269.131 20.7606L271.968 17.9412C271.326 17.2947 271.08 16.867 270.999 16.675L267.311 18.2239ZM269.131 20.7606L266.294 23.58L267.6 24.8947L270.437 22.0753L273.275 19.2558L271.968 17.9412L269.131 20.7606ZM270.437 22.0753L267.6 24.8947L268.906 26.2093L271.744 23.3899L274.581 20.5705L273.275 19.2558L270.437 22.0753ZM271.744 23.3899L268.906 26.2093C269.052 26.3556 269.035 26.3849 268.991 26.2794C268.969 26.2261 268.946 26.1525 268.933 26.064C268.92 25.9753 268.919 25.8935 268.925 25.8264L272.907 26.2046L276.89 26.5828C277.122 24.1311 276.079 22.0776 274.581 20.5705L271.744 23.3899ZM272.907 26.2046L268.925 25.8264L268.783 27.3264L272.765 27.7046L276.747 28.0828L276.89 26.5828L272.907 26.2046ZM272.765 27.7046L268.783 27.3264L268.64 28.8264L272.622 29.2046L276.605 29.5828L276.747 28.0828L272.765 27.7046ZM272.622 29.2046L268.64 28.8264C268.613 29.118 268.5 29.5348 268.15 30.1007L271.552 32.2046L274.954 34.3085C275.841 32.8744 276.442 31.2912 276.605 29.5828L272.622 29.2046ZM271.552 32.2046L268.15 30.1007L267.223 31.6007L270.625 33.7046L274.027 35.8085L274.954 34.3085L271.552 32.2046ZM270.625 33.7046L267.223 31.6007L266.295 33.1007L269.697 35.2046L273.099 37.3085L274.027 35.8085L270.625 33.7046ZM269.697 35.2046L266.295 33.1007C265.055 35.1067 264.748 37.4782 265.741 39.7859L269.415 38.2046L273.089 36.6233C273.099 36.6458 273.12 36.7032 273.135 36.7912C273.15 36.8807 273.155 36.9795 273.145 37.079C273.125 37.289 273.059 37.3735 273.099 37.3085L269.697 35.2046ZM269.415 38.2046L265.741 39.7859L266.386 41.2859L270.061 39.7046L273.735 38.1233L273.089 36.6233L269.415 38.2046ZM270.061 39.7046L266.386 41.2859L267.032 42.7859L270.706 41.2046L274.38 39.6233L273.735 38.1233L270.061 39.7046ZM270.706 41.2046L267.032 42.7859C267.056 42.8412 267.066 42.8777 267.071 42.8969C267.073 42.9067 267.075 42.9132 267.075 42.9167C267.076 42.9202 267.076 42.9218 267.076 42.9218C267.076 42.9218 267.076 42.9215 267.076 42.9213C267.076 42.921 267.076 42.9221 267.075 42.9249C267.075 42.9295 267.072 42.9471 267.061 42.9799L270.869 44.2046L274.677 45.4293C275.307 43.4725 275.178 41.4763 274.38 39.6233L270.706 41.2046ZM270.869 44.2046L267.061 42.9799L266.579 44.4799L270.387 45.7046L274.195 46.9293L274.677 45.4293L270.869 44.2046ZM270.387 45.7046L266.579 44.4799L266.097 45.9799L269.905 47.2046L273.712 48.4293L274.195 46.9293L270.387 45.7046ZM269.905 47.2046L266.097 45.9799C265.426 48.0667 265.674 50.1625 266.635 52.0331L270.193 50.2046L273.751 48.376C273.723 48.3223 273.714 48.293 273.712 48.2874C273.71 48.2826 273.715 48.2951 273.717 48.3216C273.72 48.3486 273.719 48.3771 273.716 48.4026C273.714 48.4277 273.71 48.4376 273.712 48.4293L269.905 47.2046ZM270.193 50.2046L266.635 52.0331L267.406 53.5331L270.964 51.7046L274.522 49.876L273.751 48.376L270.193 50.2046ZM270.964 51.7046L267.406 53.5331L268.177 55.0331L271.735 53.2046L275.293 51.376L274.522 49.876L270.964 51.7046ZM271.735 53.2046L268.177 55.0331C268.261 55.1948 268.28 55.288 268.285 55.3215C268.29 55.3502 268.29 55.3735 268.282 55.4134L272.203 56.2046L276.124 56.9958C276.524 55.0146 276.176 53.0952 275.293 51.376L271.735 53.2046ZM272.203 56.2046L268.282 55.4134L267.98 56.9134L271.901 57.7046L275.822 58.4958L276.124 56.9958L272.203 56.2046ZM271.901 57.7046L267.98 56.9134L267.677 58.4134L271.598 59.2046L275.519 59.9958L275.822 58.4958L271.901 57.7046ZM271.598 59.2046L267.677 58.4134C267.442 59.5799 267.282 60.7514 267.201 61.927L271.191 62.2046L275.181 62.4822C275.239 61.6578 275.351 60.8293 275.519 59.9958L271.598 59.2046ZM271.191 62.2046L267.201 61.927L267.096 63.427L271.087 63.7046L275.077 63.9822L275.181 62.4822L271.191 62.2046ZM271.087 63.7046L267.096 63.427L266.992 64.927L270.982 65.2046L274.973 65.4822L275.077 63.9822L271.087 63.7046ZM270.982 65.2046L266.992 64.927C266.951 65.5162 266.818 66.1366 266.57 66.798L270.314 68.2046L274.059 69.6112C274.562 68.2725 274.874 66.893 274.973 65.4822L270.982 65.2046ZM270.314 68.2046L266.57 66.798L266.006 68.298L269.751 69.7046L273.495 71.1112L274.059 69.6112L270.314 68.2046ZM269.751 69.7046L266.006 68.298L265.443 69.798L269.188 71.2046L272.932 72.6112L273.495 71.1112L269.751 69.7046ZM269.188 71.2046L265.443 69.798C264.893 71.2621 264.624 72.7914 264.685 74.3583L268.682 74.2046L272.679 74.0509C272.662 73.6178 272.731 73.1471 272.932 72.6112L269.188 71.2046ZM268.682 74.2046L264.685 74.3583L264.742 75.8583L268.739 75.7046L272.736 75.5509L272.679 74.0509L268.682 74.2046ZM268.739 75.7046L264.742 75.8583L264.8 77.3583L268.797 77.2046L272.794 77.0509L272.736 75.5509L268.739 75.7046ZM268.797 77.2046L264.8 77.3583C264.861 78.939 265.258 80.4565 265.922 81.888L269.551 80.2046L273.179 78.5212C272.915 77.9527 272.81 77.4702 272.794 77.0509L268.797 77.2046ZM269.551 80.2046L265.922 81.888L266.618 83.388L270.247 81.7046L273.875 80.0212L273.179 78.5212L269.551 80.2046ZM270.247 81.7046L266.618 83.388L267.314 84.888L270.942 83.2046L274.571 81.5212L273.875 80.0212L270.247 81.7046ZM270.942 83.2046L267.314 84.888C267.53 85.3531 267.576 85.7011 267.561 85.9808L271.554 86.2046L275.548 86.4284C275.644 84.7081 275.283 83.0561 274.571 81.5212L270.942 83.2046ZM271.554 86.2046L267.561 85.9808L267.476 87.4808L271.47 87.7046L275.464 87.9284L275.548 86.4284L271.554 86.2046ZM271.47 87.7046L267.476 87.4808L267.392 88.9808L271.386 89.2046L275.38 89.4284L275.464 87.9284L271.47 87.7046ZM271.386 89.2046L267.392 88.9808C267.309 90.4723 267.498 91.9439 267.936 93.3748L271.761 92.2046L275.586 91.0344C275.412 90.4653 275.351 89.9368 275.38 89.4284L271.386 89.2046ZM271.761 92.2046L267.936 93.3748L268.395 94.8748L272.22 93.7046L276.045 92.5344L275.586 91.0344L271.761 92.2046ZM272.22 93.7046L268.395 94.8748L268.854 96.3748L272.679 95.2046L276.504 94.0344L276.045 92.5344L272.22 93.7046ZM272.679 95.2046L268.854 96.3748C268.844 96.344 268.83 96.2853 268.825 96.2043C268.82 96.1223 268.825 96.0381 268.84 95.959C268.87 95.7935 268.923 95.7476 268.864 95.8314L272.139 98.1287L275.413 100.426C276.699 98.5931 277.213 96.3528 276.504 94.0344L272.679 95.2046ZM272.139 98.1287L268.864 95.8314L267.865 97.2554L271.139 99.5527L274.414 101.85L275.413 100.426L272.139 98.1287ZM271.139 99.5527L267.865 97.2554L266.866 98.6795L270.14 100.977L273.415 103.274L274.414 101.85L271.139 99.5527ZM270.14 100.977L266.866 98.6795C265.958 99.9738 265.268 101.394 264.916 102.935L268.815 103.826L272.715 104.718C272.797 104.358 272.991 103.879 273.415 103.274L270.14 100.977ZM268.815 103.826L264.916 102.935L264.59 104.36L268.489 105.251L272.389 106.143L272.715 104.718L268.815 103.826ZM268.489 105.251L264.59 104.36L264.264 105.785L268.164 106.677L272.063 107.568L272.389 106.143L268.489 105.251ZM268.164 106.677L264.264 105.785C264.132 106.365 263.903 106.987 263.551 107.655L267.089 109.521L270.627 111.387C271.273 110.163 271.761 108.889 272.063 107.568L268.164 106.677ZM267.089 109.521L263.551 107.655L262.803 109.074L266.341 110.94L269.879 112.806L270.627 111.387L267.089 109.521ZM266.341 110.94L262.803 109.074L262.054 110.493L265.592 112.359L269.13 114.225L269.879 112.806L266.341 110.94ZM265.592 112.359L262.054 110.493C262.073 110.457 262.169 110.305 262.378 110.163C262.474 110.097 262.566 110.054 262.641 110.027C262.714 110.002 262.756 109.997 262.754 109.997L263.222 113.969L263.689 117.942C266.05 117.664 268.004 116.361 269.13 114.225L265.592 112.359ZM263.222 113.969L262.754 109.997L261.132 110.188L261.599 114.16L262.067 118.133L263.689 117.942L263.222 113.969ZM261.599 114.16L261.132 110.188L259.51 110.379L259.977 114.351L260.445 118.324L262.067 118.133L261.599 114.16ZM259.977 114.351L259.51 110.379C258.097 110.545 256.734 110.883 255.439 111.412L256.951 115.115L258.463 118.819C259.04 118.583 259.695 118.412 260.445 118.324L259.977 114.351ZM256.951 115.115L255.439 111.412L254.035 111.985L255.547 115.689L257.059 119.392L258.463 118.819L256.951 115.115ZM255.547 115.689L254.035 111.985L252.631 112.559L254.143 116.262L255.655 119.965L257.059 119.392L255.547 115.689ZM254.143 116.262L252.631 112.559C252.341 112.677 252.077 112.71 251.772 112.669L251.239 116.634L250.707 120.598C252.401 120.826 254.074 120.611 255.655 119.965L254.143 116.262ZM251.239 116.634L251.772 112.669L250.272 112.468L249.739 116.432L249.207 120.397L250.707 120.598L251.239 116.634ZM249.739 116.432L250.272 112.468L248.772 112.266L248.239 116.231L247.707 120.195L249.207 120.397L249.739 116.432ZM248.239 116.231L248.772 112.266C246.978 112.026 245.235 112.321 243.619 113.037L245.239 116.694L246.86 120.351C247.243 120.181 247.5 120.167 247.707 120.195L248.239 116.231ZM245.239 116.694L243.619 113.037L242.119 113.702L243.739 117.359L245.36 121.016L246.86 120.351L245.239 116.694ZM243.739 117.359L242.119 113.702L240.619 114.366L242.239 118.023L243.86 121.68L245.36 121.016L243.739 117.359ZM242.239 118.023L240.619 114.366C240.654 114.351 240.729 114.323 240.838 114.305C240.949 114.286 241.07 114.283 241.189 114.296C241.437 114.324 241.536 114.408 241.464 114.36L239.239 117.684L237.014 121.008C239.018 122.349 241.463 122.742 243.86 121.68L242.239 118.023ZM239.239 117.684L241.464 114.36L239.964 113.356L237.739 116.68L235.514 120.004L237.014 121.008L239.239 117.684ZM237.739 116.68L239.964 113.356L238.464 112.351L236.239 115.675L234.014 118.999L235.514 120.004L237.739 116.68ZM236.239 115.675L238.464 112.351C236.783 111.226 234.763 110.61 232.571 110.982L233.239 114.926L233.908 118.869C233.887 118.873 233.86 118.875 233.828 118.874C233.797 118.873 233.776 118.868 233.769 118.867C233.754 118.863 233.834 118.879 234.014 118.999L236.239 115.675ZM233.239 114.926L232.571 110.982L231.071 111.236L231.739 115.18L232.408 119.124L233.908 118.869L233.239 114.926ZM231.739 115.18L231.071 111.236L229.571 111.49L230.239 115.434L230.908 119.378L232.408 119.124L231.739 115.18ZM230.239 115.434L229.571 111.49C228.76 111.628 227.954 111.705 227.151 111.722L227.239 115.721L227.327 119.72C228.524 119.694 229.718 119.579 230.908 119.378L230.239 115.434ZM227.239 115.721L227.151 111.722L225.651 111.755L225.739 115.754L225.827 119.753L227.327 119.72L227.239 115.721ZM225.739 115.754L225.651 111.755L224.151 111.788L224.239 115.787L224.327 119.787L225.827 119.753L225.739 115.754ZM224.239 115.787L224.151 111.788C223.029 111.813 221.908 111.889 220.788 112.016L221.239 115.991L221.69 119.965C222.57 119.865 223.449 119.806 224.327 119.787L224.239 115.787ZM221.239 115.991L220.788 112.016L219.288 112.186L219.739 116.161L220.19 120.135L221.69 119.965L221.239 115.991ZM219.739 116.161L219.288 112.186L217.788 112.356L218.239 116.331L218.69 120.305L220.19 120.135L219.739 116.161ZM218.239 116.331L217.788 112.356C217.185 112.425 216.582 112.404 215.966 112.29L215.239 116.224L214.513 120.157C215.897 120.413 217.293 120.464 218.69 120.305L218.239 116.331ZM215.239 116.224L215.966 112.29L214.466 112.013L213.739 115.947L213.013 119.88L214.513 120.157L215.239 116.224ZM213.739 115.947L214.466 112.013L212.966 111.736L212.239 115.67L211.513 119.603L213.013 119.88L213.739 115.947ZM212.239 115.67L212.966 111.736C211.224 111.414 209.495 111.588 207.854 112.193L209.239 115.946L210.624 119.699C210.983 119.566 211.255 119.555 211.513 119.603L212.239 115.67ZM209.239 115.946L207.854 112.193L206.354 112.747L207.739 116.5L209.124 120.252L210.624 119.699L209.239 115.946ZM207.739 116.5L206.354 112.747L204.854 113.3L206.239 117.053L207.624 120.806L209.124 120.252L207.739 116.5ZM206.239 117.053L204.854 113.3C204.831 113.309 204.828 113.308 204.843 113.305C204.849 113.304 204.859 113.303 204.87 113.303C204.881 113.302 204.893 113.302 204.905 113.302C204.917 113.303 204.927 113.304 204.935 113.305C204.943 113.306 204.947 113.307 204.948 113.307C204.949 113.307 204.929 113.303 204.887 113.284L203.239 116.929L201.591 120.573C203.517 121.444 205.606 121.55 207.624 120.806L206.239 117.053ZM203.239 116.929L204.887 113.284L203.387 112.606L201.739 116.25L200.091 119.895L201.591 120.573L203.239 116.929ZM201.739 116.25L203.387 112.606L201.887 111.928L200.239 115.572L198.591 119.217L200.091 119.895L201.739 116.25ZM200.239 115.572L201.887 111.928C200.455 111.28 198.941 110.899 197.368 110.848L197.239 114.846L197.111 118.844C197.537 118.858 198.023 118.96 198.591 119.217L200.239 115.572ZM197.239 114.846L197.368 110.848L195.868 110.8L195.739 114.798L195.611 118.796L197.111 118.844L197.239 114.846ZM195.739 114.798L195.868 110.8L194.368 110.752L194.239 114.75L194.111 118.748L195.611 118.796L195.739 114.798ZM194.239 114.75L194.368 110.752C193.21 110.715 192.053 110.746 190.896 110.845L191.239 114.831L191.582 118.816C192.426 118.743 193.268 118.721 194.111 118.748L194.239 114.75ZM191.239 114.831L190.896 110.845L189.396 110.974L189.739 114.96L190.082 118.945L191.582 118.816L191.239 114.831ZM189.739 114.96L189.396 110.974L187.896 111.103L188.239 115.089L188.582 119.074L190.082 118.945L189.739 114.96ZM188.239 115.089L187.896 111.103C187.181 111.165 186.466 111.15 185.746 111.058L185.239 115.026L184.732 118.994C186.013 119.157 187.298 119.184 188.582 119.074L188.239 115.089ZM185.239 115.026L185.746 111.058L184.246 110.867L183.739 114.834L183.232 118.802L184.732 118.994L185.239 115.026ZM183.739 114.834L184.246 110.867L182.746 110.675L182.239 114.643L181.732 118.61L183.232 118.802L183.739 114.834ZM182.239 114.643L182.746 110.675C181.485 110.514 180.22 110.478 178.954 110.568L179.239 114.558L179.524 118.548C180.259 118.495 180.993 118.516 181.732 118.61L182.239 114.643ZM179.239 114.558L178.954 110.568L177.454 110.675L177.739 114.665L178.024 118.655L179.524 118.548L179.239 114.558ZM177.739 114.665L177.454 110.675L175.954 110.783L176.239 114.772L176.524 118.762L178.024 118.655L177.739 114.665ZM176.239 114.772L175.954 110.783C174.909 110.857 173.864 110.95 172.819 111.06L173.239 115.038L173.659 119.016C174.614 118.915 175.569 118.831 176.524 118.762L176.239 114.772ZM173.239 115.038L172.819 111.06L171.319 111.218L171.739 115.196L172.159 119.174L173.659 119.016L173.239 115.038ZM171.739 115.196L171.319 111.218L169.819 111.376L170.239 115.354L170.659 119.332L172.159 119.174L171.739 115.196ZM170.239 115.354L169.819 111.376C169.046 111.458 168.275 111.473 167.504 111.422L167.239 115.413L166.974 119.404C168.203 119.486 169.432 119.462 170.659 119.332L170.239 115.354ZM167.239 115.413L167.504 111.422L166.004 111.322L165.739 115.313L165.474 119.305L166.974 119.404L167.239 115.413ZM165.739 115.313L166.004 111.322L164.504 111.222L164.239 115.214L163.974 119.205L165.474 119.305L165.739 115.313ZM164.239 115.214L164.504 111.222C162.936 111.118 161.397 111.346 159.917 111.864L161.239 115.639L162.561 119.414C163.081 119.232 163.543 119.176 163.974 119.205L164.239 115.214ZM161.239 115.639L159.917 111.864L158.417 112.389L159.739 116.164L161.061 119.94L162.561 119.414L161.239 115.639ZM159.739 116.164L158.417 112.389L156.917 112.914L158.239 116.69L159.561 120.465L161.061 119.94L159.739 116.164ZM158.239 116.69L156.917 112.914C156.114 113.196 155.324 113.402 154.548 113.538L155.239 117.478L155.931 121.418C157.154 121.203 158.364 120.884 159.561 120.465L158.239 116.69ZM155.239 117.478L154.548 113.538L153.048 113.801L153.739 117.741L154.431 121.681L155.931 121.418L155.239 117.478ZM153.739 117.741L153.048 113.801L151.548 114.065L152.239 118.004L152.931 121.944L154.431 121.681L153.739 117.741ZM152.239 118.004L151.548 114.065C150.744 114.206 149.946 114.284 149.152 114.301L149.239 118.3L149.326 122.299C150.532 122.273 151.734 122.154 152.931 121.944L152.239 118.004ZM149.239 118.3L149.152 114.301L147.652 114.334L147.739 118.333L147.826 122.332L149.326 122.299L149.239 118.3ZM147.739 118.333L147.652 114.334L146.152 114.366L146.239 118.365L146.326 122.364L147.826 122.332L147.739 118.333ZM146.239 118.365L146.152 114.366C145.334 114.384 144.515 114.346 143.693 114.253L143.239 118.227L142.785 122.201C143.964 122.336 145.144 122.39 146.326 122.364L146.239 118.365ZM143.239 118.227L143.693 114.253L142.193 114.081L141.739 118.056L141.285 122.03L142.785 122.201L143.239 118.227ZM141.739 118.056L142.193 114.081L140.693 113.91L140.239 117.884L139.785 121.858L141.285 122.03L141.739 118.056ZM140.239 117.884L140.693 113.91C140.052 113.837 139.382 113.674 138.679 113.402L137.239 117.134L135.799 120.866C137.096 121.366 138.427 121.703 139.785 121.858L140.239 117.884ZM137.239 117.134L138.679 113.402L137.179 112.824L135.739 116.556L134.299 120.288L135.799 120.866L137.239 117.134ZM135.739 116.556L137.179 112.824L135.679 112.245L134.239 115.977L132.799 119.709L134.299 120.288L135.739 116.556ZM134.239 115.977L135.679 112.245C133.709 111.485 131.645 111.522 129.706 112.326L131.239 116.021L132.772 119.715C132.792 119.707 132.806 119.702 132.816 119.699C132.825 119.696 132.829 119.695 132.829 119.695C132.829 119.695 132.826 119.696 132.82 119.697C132.814 119.697 132.806 119.698 132.798 119.698C132.789 119.698 132.781 119.698 132.773 119.697C132.766 119.697 132.761 119.696 132.759 119.695C132.754 119.695 132.767 119.696 132.799 119.709L134.239 115.977ZM131.239 116.021L129.706 112.326L128.206 112.949L129.739 116.643L131.272 120.338L132.772 119.715L131.239 116.021ZM129.739 116.643L128.206 112.949L126.706 113.571L128.239 117.266L129.772 120.96L131.272 120.338L129.739 116.643ZM128.239 117.266L126.706 113.571C126.598 113.616 126.552 113.617 126.551 113.617C126.547 113.617 126.541 113.617 126.531 113.616C126.521 113.614 126.498 113.61 126.46 113.598L125.239 117.407L124.018 121.216C125.951 121.836 127.926 121.726 129.772 120.96L128.239 117.266ZM125.239 117.407L126.46 113.598L124.96 113.117L123.739 116.926L122.518 120.735L124.018 121.216L125.239 117.407ZM123.739 116.926L124.96 113.117L123.46 112.636L122.239 116.445L121.018 120.254L122.518 120.735L123.739 116.926ZM122.239 116.445L123.46 112.636C121.744 112.086 119.964 112.032 118.213 112.496L119.239 116.362L120.265 120.229C120.514 120.163 120.734 120.164 121.018 120.254L122.239 116.445ZM119.239 116.362L118.213 112.496L116.713 112.894L117.739 116.76L118.765 120.627L120.265 120.229L119.239 116.362ZM117.739 116.76L116.713 112.894L115.213 113.292L116.239 117.158L117.265 121.025L118.765 120.627L117.739 116.76ZM116.239 117.158L115.213 113.292C115.22 113.291 115.241 113.286 115.274 113.284C115.307 113.282 115.337 113.284 115.361 113.288C115.384 113.292 115.389 113.295 115.373 113.289C115.356 113.283 115.314 113.266 115.246 113.226L113.239 116.686L111.232 120.146C113.031 121.19 115.116 121.595 117.265 121.025L116.239 117.158ZM113.239 116.686L115.246 113.226L113.746 112.356L111.739 115.816L109.732 119.276L111.232 120.146L113.239 116.686ZM111.739 115.816L113.746 112.356L112.246 111.486L110.239 114.946L108.232 118.406L109.732 119.276L111.739 115.816ZM110.239 114.946L112.246 111.486C110.404 110.417 108.267 110.041 106.089 110.695L107.239 114.526L108.389 118.357C108.379 118.36 108.351 118.367 108.308 118.37C108.265 118.374 108.222 118.372 108.185 118.367C108.148 118.362 108.13 118.355 108.134 118.357C108.139 118.359 108.172 118.371 108.232 118.406L110.239 114.946ZM107.239 114.526L106.089 110.695L104.589 111.145L105.739 114.976L106.889 118.807L108.389 118.357L107.239 114.526ZM105.739 114.976L104.589 111.145L103.089 111.595L104.239 115.426L105.389 119.257L106.889 118.807L105.739 114.976ZM104.239 115.426L103.089 111.595C102.584 111.747 102.123 111.784 101.677 111.735L101.239 115.711L100.801 119.687C102.355 119.858 103.895 119.706 105.389 119.257L104.239 115.426ZM101.239 115.711L101.677 111.735L100.177 111.57L99.7391 115.546L99.3008 119.522L100.801 119.687L101.239 115.711ZM99.7391 115.546L100.177 111.57L98.6775 111.404L98.2391 115.38L97.8008 119.356L99.3008 119.522L99.7391 115.546ZM98.2391 115.38L98.6775 111.404C97.3708 111.26 96.0616 111.268 94.7561 111.427L95.2391 115.397L95.7221 119.368C96.4166 119.284 97.1075 119.28 97.8008 119.356L98.2391 115.38ZM95.2391 115.397L94.7561 111.427L93.2561 111.609L93.7391 115.58L94.2221 119.551L95.7221 119.368L95.2391 115.397ZM93.7391 115.58L93.2561 111.609L91.7561 111.792L92.2391 115.762L92.7221 119.733L94.2221 119.551L93.7391 115.58ZM92.2391 115.762L91.7561 111.792C91.1932 111.86 90.63 111.838 90.0494 111.717L89.2391 115.635L88.4288 119.552C89.8482 119.845 91.285 119.908 92.7221 119.733L92.2391 115.762ZM89.2391 115.635L90.0494 111.717L88.5494 111.407L87.7391 115.324L86.9288 119.241L88.4288 119.552L89.2391 115.635ZM87.7391 115.324L88.5494 111.407L87.0494 111.097L86.2391 115.014L85.4288 118.931L86.9288 119.241L87.7391 115.324ZM86.2391 115.014L87.0494 111.097C84.8223 110.636 82.7486 111.224 81.0276 112.366L83.2391 115.699L85.4506 119.032C85.6152 118.923 85.6731 118.92 85.6295 118.93C85.6085 118.934 85.5745 118.94 85.532 118.94C85.4895 118.941 85.4535 118.936 85.4288 118.931L86.2391 115.014ZM83.2391 115.699L81.0276 112.366L79.5276 113.361L81.7391 116.694L83.9506 120.027L85.4506 119.032L83.2391 115.699ZM81.7391 116.694L79.5276 113.361L78.0276 114.356L80.2391 117.689L82.4506 121.023L83.9506 120.027L81.7391 116.694ZM80.2391 117.689L78.0276 114.356C77.917 114.43 77.9479 114.383 78.1072 114.357C78.1842 114.345 78.2693 114.342 78.3547 114.349C78.4393 114.357 78.5025 114.374 78.5387 114.386L77.2391 118.169L75.9395 121.952C78.286 122.759 80.5733 122.268 82.4506 121.023L80.2391 117.689ZM77.2391 118.169L78.5387 114.386L77.0387 113.871L75.7391 117.654L74.4395 121.437L75.9395 121.952L77.2391 118.169ZM75.7391 117.654L77.0387 113.871L75.5387 113.356L74.2391 117.139L72.9395 120.922L74.4395 121.437L75.7391 117.654ZM74.2391 117.139L75.5387 113.356C74.5622 113.02 73.5855 112.675 72.6086 112.319L71.2391 116.077L69.8696 119.835C70.8927 120.208 71.916 120.57 72.9395 120.922L74.2391 117.139ZM71.2391 116.077L72.6086 112.319L71.1086 111.772L69.7391 115.53L68.3696 119.289L69.8696 119.835L71.2391 116.077ZM69.7391 115.53L71.1086 111.772L69.6086 111.225L68.2391 114.984L66.8696 118.742L68.3696 119.289L69.7391 115.53ZM68.2391 114.984L69.6086 111.225C67.553 110.476 65.4386 110.625 63.5139 111.545L65.2391 115.154L66.9644 118.763C67.0077 118.742 67.0266 118.738 67.0226 118.739C67.0177 118.74 66.9976 118.745 66.9661 118.747C66.9343 118.748 66.9045 118.746 66.8811 118.743C66.8584 118.739 66.8537 118.736 66.8696 118.742L68.2391 114.984ZM65.2391 115.154L63.5139 111.545L62.0139 112.262L63.7391 115.871L65.4644 119.48L66.9644 118.763L65.2391 115.154ZM63.7391 115.871L62.0139 112.262L60.5139 112.98L62.2391 116.588L63.9644 120.197L65.4644 119.48L63.7391 115.871ZM62.2391 116.588L60.5139 112.98C60.1176 113.169 59.8656 113.183 59.683 113.163L59.2391 117.138L58.7952 121.113C60.6126 121.316 62.3606 120.964 63.9644 120.197L62.2391 116.588ZM59.2391 117.138L59.683 113.163L58.183 112.995L57.7391 116.97L57.2952 120.946L58.7952 121.113L59.2391 117.138ZM57.7391 116.97L58.183 112.995L56.683 112.828L56.2391 116.803L55.7952 120.778L57.2952 120.946L57.7391 116.97ZM56.2391 116.803L56.683 112.828C56.0861 112.761 55.4529 112.6 54.7753 112.318L53.2391 116.012L51.7029 119.705C53.0253 120.255 54.3921 120.622 55.7952 120.778L56.2391 116.803ZM53.2391 116.012L54.7753 112.318L53.2753 111.694L51.7391 115.388L50.2029 119.081L51.7029 119.705L53.2391 116.012ZM51.7391 115.388L53.2753 111.694L51.7753 111.07L50.2391 114.764L48.7029 118.457L50.2029 119.081L51.7391 115.388ZM50.2391 114.764L51.7753 111.07C49.2572 110.023 46.7819 110.611 44.8531 112.044L47.2391 115.255L49.6251 118.465C49.7282 118.388 49.6441 118.48 49.385 118.522C49.2579 118.543 49.1217 118.546 48.9884 118.529C48.857 118.512 48.7596 118.481 48.7029 118.457L50.2391 114.764ZM47.2391 115.255L44.8531 112.044L43.3531 113.159L45.7391 116.369L48.1251 119.58L49.6251 118.465L47.2391 115.255ZM45.7391 116.369L43.3531 113.159L41.8531 114.274L44.2391 117.484L46.6251 120.695L48.1251 119.58L45.7391 116.369ZM44.2391 117.484L41.8531 114.274C41.7627 114.341 41.8707 114.235 42.162 114.193C42.3043 114.172 42.4525 114.173 42.5936 114.194C42.7323 114.215 42.8316 114.252 42.8853 114.276L41.2391 117.922L39.5929 121.567C42.1199 122.708 44.6507 122.162 46.6251 120.695L44.2391 117.484ZM41.2391 117.922L42.8853 114.276L41.3853 113.599L39.7391 117.244L38.0929 120.89L39.5929 121.567L41.2391 117.922ZM39.7391 117.244L41.3853 113.599L39.8853 112.921L38.2391 116.567L36.5929 120.212L38.0929 120.89L39.7391 117.244ZM38.2391 116.567L39.8853 112.921C38.4857 112.289 37.0133 111.899 35.4856 111.805L35.2391 115.797L34.9926 119.789C35.4649 119.818 35.9926 119.941 36.5929 120.212L38.2391 116.567ZM35.2391 115.797L35.4856 111.805L33.9856 111.712L33.7391 115.704L33.4926 119.697L34.9926 119.789L35.2391 115.797ZM33.7391 115.704L33.9856 111.712L32.4856 111.619L32.2391 115.612L31.9926 119.604L33.4926 119.697L33.7391 115.704ZM32.2391 115.612L32.4856 111.619C31.3001 111.546 30.1142 111.556 28.9293 111.648L29.2391 115.636L29.5489 119.624C30.364 119.56 31.1781 119.554 31.9926 119.604L32.2391 115.612ZM29.2391 115.636L28.9293 111.648L27.4294 111.764L27.7391 115.752L28.0489 119.74L29.5489 119.624L29.2391 115.636ZM27.7391 115.752L27.4294 111.764L25.9294 111.881L26.2391 115.869L26.5489 119.857L28.0489 119.74L27.7391 115.752ZM26.2391 115.869L25.9294 111.881C25.3103 111.929 24.7343 111.886 24.1868 111.765L23.3188 115.669L22.4509 119.574C23.7971 119.873 25.1679 119.964 26.5489 119.857L26.2391 115.869ZM23.3188 115.669L24.1868 111.765L22.7665 111.449L21.8985 115.354L21.0306 119.258L22.4509 119.574L23.3188 115.669ZM21.8985 115.354L22.7665 111.449L21.3462 111.133L20.4782 115.038L19.6103 118.943L21.0306 119.258L21.8985 115.354ZM20.4782 115.038L21.3462 111.133C20.6355 110.975 19.9648 110.759 19.3298 110.487L17.7542 114.164L16.1786 117.84C17.2819 118.313 18.4272 118.68 19.6103 118.943L20.4782 115.038ZM17.7542 114.164L19.3298 110.487L18.026 109.928L16.4504 113.605L14.8749 117.282L16.1786 117.84L17.7542 114.164ZM16.4504 113.605L18.026 109.928L16.7223 109.37L15.1467 113.046L13.5711 116.723L14.8749 117.282L16.4504 113.605ZM15.1467 113.046L16.7223 109.37C16.502 109.275 16.3593 109.159 16.2293 108.983L13.0087 111.355L9.78812 113.727C10.7704 115.061 12.0531 116.072 13.5711 116.723L15.1467 113.046ZM13.0087 111.355L16.2293 108.983L15.3951 107.85L12.1745 110.222L8.95389 112.595L9.78812 113.727L13.0087 111.355ZM12.1745 110.222L15.3951 107.85L14.5608 106.718L11.3402 109.09L8.11965 111.462L8.95389 112.595L12.1745 110.222ZM11.3402 109.09L14.5608 106.718C13.833 105.73 12.9899 104.809 12.0484 103.952L9.35566 106.91L6.66287 109.868C7.25523 110.407 7.73516 110.94 8.11965 111.462L11.3402 109.09ZM9.35566 106.91L12.0484 103.952L10.8981 102.905L8.20531 105.863L5.51253 108.821L6.66287 109.868L9.35566 106.91ZM8.20531 105.863L10.8981 102.905L9.74775 101.858L7.05496 104.816L4.36218 107.773L5.51253 108.821L8.20531 105.863ZM7.05496 104.816L9.74775 101.858C9.72142 101.834 9.71377 101.823 9.71692 101.827C9.72043 101.832 9.72983 101.845 9.74021 101.866C9.74511 101.876 9.74939 101.885 9.75295 101.895C9.75651 101.904 9.75887 101.912 9.76032 101.917C9.76341 101.928 9.76103 101.924 9.75893 101.9L5.77359 102.242L1.78824 102.584C1.96319 104.622 2.86314 106.409 4.36218 107.773L7.05496 104.816ZM5.77359 102.242L9.75893 101.9L9.6279 100.373L5.64256 100.715L1.65721 101.057L1.78824 102.584L5.77359 102.242ZM5.64256 100.715L9.6279 100.373L9.49688 98.8467L5.51153 99.1888L1.52618 99.5309L1.65721 101.057L5.64256 100.715ZM5.51153 99.1888L9.49688 98.8467C9.40831 97.815 9.31499 96.7918 9.21688 95.7773L5.23545 96.1623L1.25402 96.5473C1.34932 97.5328 1.44004 98.5273 1.52618 99.5309L5.51153 99.1888ZM5.23545 96.1623L9.21688 95.7773L9.07183 94.2773L5.0904 94.6623L1.10898 95.0473L1.25402 96.5473L5.23545 96.1623ZM5.0904 94.6623L9.07183 94.2773L8.92678 92.7773L4.94536 93.1623L0.963927 93.5473L1.10898 95.0473L5.0904 94.6623ZM4.94536 93.1623L8.92678 92.7773C8.83524 91.8306 8.76289 90.8841 8.70973 89.9379L4.71603 90.1623L0.722327 90.3867C0.781535 91.4405 0.862075 92.494 0.963927 93.5473L4.94536 93.1623ZM4.71603 90.1623L8.70973 89.9379L8.62545 88.4379L4.63175 88.6623L0.638049 88.8867L0.722327 90.3867L4.71603 90.1623ZM4.63175 88.6623L8.62545 88.4379L8.54117 86.9379L4.54747 87.1623L0.553771 87.3867L0.638049 88.8867L4.63175 88.6623ZM4.54747 87.1623L8.54117 86.9379C8.49323 86.0847 8.49237 85.2318 8.53857 84.3786L4.54443 84.1623L0.550279 83.946C0.488173 85.0928 0.489339 86.2399 0.553771 87.3867L4.54747 87.1623ZM4.54443 84.1623L8.53857 84.3786L8.61981 82.8786L4.62566 82.6623L0.631511 82.446L0.550279 83.946L4.54443 84.1623ZM4.62566 82.6623L8.61981 82.8786L8.70104 81.3786L4.70689 81.1623L0.712743 80.946L0.631511 82.446L4.62566 82.6623ZM4.70689 81.1623L8.70104 81.3786C8.72634 80.9113 8.8445 80.3892 9.11038 79.7942L5.45841 78.1623L1.80644 76.5304C1.1786 77.9354 0.795746 79.4133 0.712743 80.946L4.70689 81.1623ZM5.45841 78.1623L9.11038 79.7942L9.78066 78.2942L6.12869 76.6623L2.47672 75.0304L1.80644 76.5304L5.45841 78.1623ZM6.12869 76.6623L9.78066 78.2942L10.4509 76.7942L6.79898 75.1623L3.14701 73.5304L2.47672 75.0304L6.12869 76.6623ZM6.79898 75.1623L10.4509 76.7942C11.36 74.7598 11.3638 72.5765 10.4588 70.5387L6.80308 72.1623L3.14739 73.7859C3.15738 73.8083 3.15334 73.8046 3.1472 73.7769C3.14083 73.7481 3.13508 73.7064 3.13515 73.6568C3.13522 73.6072 3.14108 73.5658 3.14741 73.5375C3.15352 73.5103 3.15737 73.5072 3.14701 73.5304L6.79898 75.1623ZM6.80308 72.1623L10.4588 70.5387L9.79259 69.0387L6.1369 70.6623L2.48122 72.2859L3.14739 73.7859L6.80308 72.1623ZM6.1369 70.6623L9.79259 69.0387L9.12641 67.5387L5.47072 69.1623L1.81504 70.7859L2.48122 72.2859L6.1369 70.6623ZM5.47072 69.1623L9.12641 67.5387C8.839 66.8916 8.68716 66.3019 8.63211 65.7589L4.6525 66.1623L0.672895 66.5657C0.820574 68.0226 1.21421 69.433 1.81504 70.7859L5.47072 69.1623ZM4.6525 66.1623L8.63211 65.7589L8.48007 64.2589L4.50046 64.6623L0.520855 65.0657L0.672895 66.5657L4.6525 66.1623ZM4.50046 64.6623L8.48007 64.2589L8.32803 62.7589L4.34842 63.1623L0.368814 63.5657L0.520855 65.0657L4.50046 64.6623ZM4.34842 63.1623L8.32803 62.7589C8.32601 62.739 8.29883 62.5865 8.52643 62.2027L5.08598 60.1623L1.64553 58.1219C0.687007 59.7381 0.16811 61.5856 0.368814 63.5657L4.34842 63.1623ZM5.08598 60.1623L8.52643 62.2027L9.41603 60.7027L5.97558 58.6623L2.53513 56.6219L1.64553 58.1219L5.08598 60.1623ZM5.97558 58.6623L9.41603 60.7027L10.3056 59.2027L6.86518 57.1623L3.42473 55.1219L2.53513 56.6219L5.97558 58.6623ZM6.86518 57.1623L10.3056 59.2027C11.3366 57.4643 11.7989 55.4452 11.3451 53.325L7.43367 54.1623L3.52229 54.9996C3.52159 54.9963 3.51912 54.9824 3.51886 54.9614C3.5186 54.9405 3.52072 54.9246 3.52205 54.9176C3.52529 54.9004 3.51728 54.9658 3.42473 55.1219L6.86518 57.1623ZM7.43367 54.1623L11.3451 53.325L11.0239 51.825L7.11256 52.6623L3.20118 53.4996L3.52229 54.9996L7.43367 54.1623ZM7.11256 52.6623L11.0239 51.825L10.7028 50.325L6.79145 51.1623L2.88007 51.9996L3.20118 53.4996L7.11256 52.6623ZM6.79145 51.1623L10.7028 50.325C10.506 49.4055 10.3392 48.4876 10.2022 47.5709L6.24612 48.1623L2.29007 48.7537C2.45202 49.837 2.64875 50.919 2.88007 51.9996L6.79145 51.1623ZM6.24612 48.1623L10.2022 47.5709L9.97793 46.0709L6.02189 46.6623L2.06585 47.2537L2.29007 48.7537L6.24612 48.1623ZM6.02189 46.6623L9.97793 46.0709L9.75371 44.5709L5.79766 45.1623L1.84162 45.7537L2.06585 47.2537L6.02189 46.6623ZM5.79766 45.1623L9.75371 44.5709C9.71984 44.3444 9.73357 44.0799 9.89088 43.703L6.19952 42.1623L2.50816 40.6216C1.83069 42.2447 1.57652 43.9802 1.84162 45.7537L5.79766 45.1623ZM6.19952 42.1623L9.89088 43.703L10.517 42.203L6.82561 40.6623L3.13425 39.1216L2.50816 40.6216L6.19952 42.1623ZM6.82561 40.6623L10.517 42.203L11.1431 40.703L7.45169 39.1623L3.76033 37.6216L3.13425 39.1216L6.82561 40.6623ZM7.45169 39.1623L11.1431 40.703C11.9492 38.7715 11.9956 36.7113 11.2462 34.7405L7.50737 36.1623L3.76857 37.584C3.78074 37.6161 3.78247 37.6287 3.78164 37.6242C3.7813 37.6223 3.78058 37.6177 3.78002 37.6108C3.77946 37.6039 3.77919 37.5962 3.77934 37.5881C3.77949 37.58 3.78004 37.5729 3.78068 37.5675C3.78132 37.5621 3.78189 37.5596 3.78172 37.5604C3.78151 37.5614 3.77718 37.5812 3.76033 37.6216L7.45169 39.1623ZM7.50737 36.1623L11.2462 34.7405L10.6758 33.2405L6.93696 34.6623L3.19816 36.084L3.76857 37.584L7.50737 36.1623ZM6.93696 34.6623L10.6758 33.2405L10.1053 31.7405L6.36655 33.1623L2.62775 34.584L3.19816 36.084L6.93696 34.6623ZM6.36655 33.1623L10.1053 31.7405C9.73525 30.7673 9.37723 29.7944 9.03128 28.8218L5.26259 30.1623L1.4939 31.5028C1.85935 32.5302 2.2373 33.5573 2.62775 34.584L6.36655 33.1623ZM5.26259 30.1623L9.03128 28.8218L8.49773 27.3218L4.72904 28.6623L0.960354 30.0028L1.4939 31.5028L5.26259 30.1623ZM4.72904 28.6623L8.49773 27.3218L7.96418 25.8218L4.19549 27.1623L0.426805 28.5028L0.960354 30.0028L4.72904 28.6623ZM4.19549 27.1623L7.96418 25.8218C7.97049 25.8395 7.98566 25.8887 7.99431 25.9648C8.00312 26.0421 8.00296 26.128 7.99128 26.2148C7.96645 26.3995 7.90644 26.4749 7.94006 26.4233L4.58849 24.24L1.23692 22.0566C-0.00939608 23.9698 -0.378098 26.2399 0.426805 28.5028L4.19549 27.1623ZM4.58849 24.24L7.94006 26.4233L8.8666 25.001L5.51503 22.8177L2.16346 20.6343L1.23692 22.0566L4.58849 24.24ZM5.51503 22.8177L8.8666 25.001L9.79315 23.5787L6.44158 21.3954L3.09001 19.212L2.16346 20.6343L5.51503 22.8177ZM6.44158 21.3954L9.79315 23.5787C10.5758 22.3773 11.2019 21.1156 11.6151 19.795L7.79755 18.6006L3.98004 17.4061C3.82067 17.9155 3.54278 18.517 3.09001 19.212L6.44158 21.3954ZM7.79755 18.6006L11.6151 19.795L12.0445 18.4225L8.22698 17.2281L4.40947 16.0336L3.98004 17.4061L7.79755 18.6006ZM8.22698 17.2281L12.0445 18.4225L12.4739 17.05L8.6564 15.8556L4.8389 14.6611L4.40947 16.0336L8.22698 17.2281ZM8.6564 15.8556L12.4739 17.05C12.6672 16.4322 12.9482 15.7856 13.3344 15.1093L9.8608 13.1259L6.38719 11.1424C5.74008 12.2757 5.21816 13.449 4.8389 14.6611L8.6564 15.8556ZM9.8608 13.1259L13.3344 15.1093L14.1094 13.7521L10.6358 11.7687L7.16216 9.78524L6.38719 11.1424L9.8608 13.1259ZM10.6358 11.7687L14.1094 13.7521L14.8843 12.395L11.4107 10.4115L7.93712 8.42805L7.16216 9.78524L10.6358 11.7687ZM11.4107 10.4115L14.8843 12.395C15.0525 12.1004 15.2755 11.8641 15.6198 11.6572L13.5592 8.22881L11.4986 4.80039C10.0116 5.69415 8.8022 6.91305 7.93712 8.42805L11.4107 10.4115ZM13.5592 8.22881L15.6198 11.6572L16.9932 10.8317L14.9327 7.40331L12.8721 3.97489L11.4986 4.80039L13.5592 8.22881ZM14.9327 7.40331L16.9932 10.8317L18.3667 10.0062L16.3062 6.5778L14.2456 3.14938L12.8721 3.97489L14.9327 7.40331ZM16.3062 6.5778L18.3667 10.0062C18.4076 9.9817 18.4259 9.9752 18.4219 9.97672C18.4172 9.97852 18.3963 9.9858 18.3619 9.99156C18.3271 9.99737 18.2909 9.99956 18.2575 9.99824C18.2416 9.99761 18.2288 9.99629 18.2195 9.99497C18.2102 9.99367 18.2056 9.99254 18.206 9.99264L19.1406 6.10336L20.0752 2.21408C18.0084 1.71742 15.9944 2.0983 14.2456 3.14938L16.3062 6.5778ZM19.1406 6.10336L18.206 9.99264L19.6669 10.3437L20.6015 6.45443L21.5361 2.56514L20.0752 2.21408L19.1406 6.10336ZM20.6015 6.45443L19.6669 10.3437L21.1278 10.6948L22.0624 6.80549L22.997 2.91621L21.5361 2.56514L20.6015 6.45443ZM22.0624 6.80549L21.1278 10.6948C21.6496 10.8202 22.2403 10.9464 22.7764 10.9978C22.9847 11.0177 23.5454 11.0679 24.1901 10.9434C24.499 10.8838 25.2197 10.7147 25.9424 10.1576C26.8354 9.46934 27.5233 8.33016 27.5233 6.94554H23.5233H19.5233C19.5233 5.59609 20.196 4.48622 21.0586 3.82137C21.7508 3.28781 22.4259 3.13628 22.6739 3.0884C22.9795 3.02942 23.215 3.0248 23.3162 3.02476C23.433 3.02471 23.513 3.03171 23.5398 3.03429C23.5889 3.039 23.4491 3.02485 22.997 2.91621L22.0624 6.80549ZM23.5233 6.94554H27.5233V6.73453H23.5233H19.5233V6.94554H23.5233ZM23.5233 6.73453H27.5233V6.52351H23.5233H19.5233V6.73453H23.5233ZM23.5233 6.52351H27.5233C27.5233 7.77613 26.9485 8.66499 26.5352 9.12955C26.1436 9.56975 25.7497 9.80814 25.575 9.90621C25.3727 10.0197 25.2108 10.0839 25.1346 10.1124C25.0501 10.144 24.993 10.1604 24.9767 10.1649C24.9604 10.1695 25.1202 10.1287 25.5751 10.0653L25.0233 6.10357L24.4715 2.14181C23.9265 2.21773 23.3362 2.31659 22.8199 2.46113C22.5928 2.52471 22.1378 2.66139 21.6592 2.93007C21.4219 3.06322 20.9811 3.33671 20.5583 3.81203C20.1137 4.31172 19.5233 5.23573 19.5233 6.52351H23.5233ZM25.0233 6.10357L25.5751 10.0653L27.0751 9.85639L26.5233 5.89463L25.9715 1.93288L24.4715 2.14181L25.0233 6.10357Z" fill="#1DFF83"/>
</g>
<defs>
<filter id="filter0_n_193_199899" x="0" y="0" width="276.922" height="122.371" filterUnits="userSpaceOnUse" color-interpolation-filters="sRGB">
<feFlood flood-opacity="0" result="BackgroundImageFix"/>
<feBlend mode="normal" in="SourceGraphic" in2="BackgroundImageFix" result="shape"/>
<feTurbulence type="fractalNoise" baseFrequency="2.253246545791626 2.253246545791626" stitchTiles="stitch" numOctaves="3" result="noise" seed="4579" />
<feColorMatrix in="noise" type="luminanceToAlpha" result="alphaNoise" />
<feComponentTransfer in="alphaNoise" result="coloredNoise1">
<feFuncA type="discrete" tableValues="1 1 1 1 1 1 1 1 1 1 1 1 1 1 1 1 1 1 1 1 1 1 1 1 1 1 1 1 1 1 1 1 1 1 1 1 1 1 1 1 1 1 1 1 1 1 1 1 1 1 1 0 0 0 0 0 0 0 0 0 0 0 0 0 0 0 0 0 0 0 0 0 0 0 0 0 0 0 0 0 0 0 0 0 0 0 0 0 0 0 0 0 0 0 0 0 0 0 0 0 "/>
</feComponentTransfer>
<feComposite operator="in" in2="shape" in="coloredNoise1" result="noise1Clipped" />
<feFlood flood-color="rgba(0, 0, 0, 0.25)" result="color1Flood" />
<feComposite operator="in" in2="noise1Clipped" in="color1Flood" result="color1" />
<feMerge result="effect1_noise_193_199899">
<feMergeNode in="shape" />
<feMergeNode in="color1" />
</feMerge>
</filter>
</defs>
</svg>
